<svg xmlns="http://www.w3.org/2000/svg" xmlns:xlink="http://www.w3.org/1999/xlink" viewBox="0 0 134.96 63.07"><defs><style>.cls-1{fill:url(#linear-gradient);}.cls-2{fill:url(#linear-gradient-2);}.cls-3{fill:url(#linear-gradient-3);}.cls-4{fill:#fff;}</style><linearGradient id="linear-gradient" x1="132.18" y1="32.85" x2="79.13" y2="32.85" gradientUnits="userSpaceOnUse"><stop offset="0" stop-color="#1eff96"/><stop offset="0.24" stop-color="#15e8b6"/><stop offset="0.57" stop-color="#0accde"/><stop offset="0.84" stop-color="#03baf6"/><stop offset="1" stop-color="#00b4ff"/></linearGradient><linearGradient id="linear-gradient-2" x1="132.18" y1="4.9" x2="79.13" y2="4.9" xlink:href="#linear-gradient"/><linearGradient id="linear-gradient-3" x1="132.18" y1="59.9" x2="79.13" y2="59.9" xlink:href="#linear-gradient"/></defs><title>Ресурс 19</title><g id="Слой_2" data-name="Слой 2"><g id="hardware01"><path class="cls-1" d="M132.11,60.83c-.29,0-29.49-2.48-45.66-30.14-5.39-9.22-7-19.1-7.32-25.76l1-.06c.36,6.56,1.89,16.27,7.18,25.31,15.91,27.22,44.58,29.63,44.87,29.65Z"/><path class="cls-2" d="M75.88,5.1a3.76,3.76,0,1,1,4,3.55A3.76,3.76,0,0,1,75.88,5.1Z"/><polygon class="cls-3" points="126.02 63.07 125.75 62.1 132.05 60.32 126.07 57.63 126.48 56.72 134.96 60.53 126.02 63.07"/><path class="cls-4" d="M2,9.81H0V0H2V4.06H3.64L6.65,0H9L5.46,4.76,9.31,9.81H6.93L3.85,5.74H2Z"/><path class="cls-4" d="M19.88,0l-5,9.81h-2.1l1.19-2.39H13.3L9.31,0h2.17L14.7,6l3.08-6Z"/><path class="cls-4" d="M30.19,0V9.81h-2V1.68H23V9.81h-2V0Z"/><path class="cls-4" d="M39.88,3.08,34.41,9.81H32.59V0h2V6.72L40,0h1.82V9.81h-2Z"/><path class="cls-4" d="M47,9.81V1.68H43.31V0h9.25V1.68H48.92V9.81Z"/><path class="cls-4" d="M61.32,3.08,55.86,9.81H54V0h2V6.72L61.46,0h1.82V9.81h-2Z"/></g></g></svg>