<svg xmlns="http://www.w3.org/2000/svg" xmlns:xlink="http://www.w3.org/1999/xlink" viewBox="0 0 192.82 201.27"><defs><style>.cls-1{fill:none;}.cls-2{clip-path:url(#clip-path);}.cls-3{fill:#fff;}</style><clipPath id="clip-path"><rect class="cls-1" x="4.96" y="15.5" width="181.18" height="59.44"/></clipPath></defs><title>Ресурс 12</title><g id="Слой_2" data-name="Слой 2"><g id="playing"><g class="cls-2"><image width="248" height="118" transform="scale(0.78)" xlink:href="../Links/FIFA19-logo.png"/></g><path class="cls-3" d="M38.06,123.37l2.44-2.19,1-11.93H55.05v14.12h2.44V130h-3.6v-3.66H40.5V130H36.9v-6.58Zm4.37,0h9v-11.2H45l-.9,9.74Z"/><path class="cls-3" d="M77.44,109.25l-9.26,17H64.32l2.18-4.14H65.35L58,109.25h4l5.92,10.47,5.66-10.47Z"/><path class="cls-3" d="M95.1,109.25v2.92H83.26v4.14h9v2.92h-9v4.14h12.1v2.92H79.66v-17Z"/><path class="cls-3" d="M101.15,109.25h13.77v17h-3.6V112.17h-6.69l-1,11.2L100,126.54H96.52v-2.92h1.8l1.67-1.47Z"/><path class="cls-3" d="M132.35,115.09,135.7,118v5.36l-3.35,2.92h-13v-17H123v5.84Zm-.26,7.06v-2.92L130.68,118H123v5.36h7.72Z"/><path class="cls-3" d="M146.53,126.29v-2.92h3.87v-11.2h-3.87v-2.92H154v14.12h3.86v2.92Z"/><path class="cls-3" d="M167.81,118.18l-3.08-3.69-3.08,3.69h-2.48l4.21-5.11-3.91-4.83H162l2.78,3.48,2.78-3.48H170l-3.9,4.83,4.2,5.11Z"/><path class="cls-3" d="M171.85,126.29v-2.92h3.86v-11.2h-3.86v-2.92h7.46v14.12h3.87v2.92Z"/><path class="cls-3" d="M83.31,166.89v-4.06h5.36V147.27H83.31v-4.06H93.68v19.62H99v4.06Z"/><path class="cls-3" d="M121.81,142.87l5,4.4v15.56l-5,4.4h-13.4l-5-4.4V147.27l5-4.4ZM108.41,149v12.18l2.32,2h8.76l2.32-2V149l-2.32-2h-8.76Z"/><path class="cls-3" d="M149.92,166.89l-7.33-8.8-7.33,8.8h-5.9l10-12.18-9.3-11.5H136l6.62,8.29,6.61-8.29h5.9l-9.3,11.5,10,12.18Z"/><path class="cls-3" d="M182.66,157.42v5.92l-4.11,3.55H158.89V143.21H177.3l4.11,3.55v5.58l-2.32,1.86ZM175,147.27H163.9v5.58h10.54l2-1.69v-2.71Zm2.68,14.37v-3l-2-1.69H163.9v5.92h12.33Z"/><path class="cls-3" d="M129.89,196.12V179.07h14.54V182H133.49v14.13Z"/><path class="cls-3" d="M150.51,191v5.12h-3.6V179.07h13.25l3.35,2.92v6.09L160.16,191Zm8-9h-8v6.09h8l1.42-1.22v-3.65Z"/><path class="cls-3" d="M178.44,191.61h-8.5l-2.05,4.51h-4l8-17.05h4.63l8,17.05h-4Zm-7.08-2.92H177l-2.83-6.21Z"/><path class="cls-3" d="M9.42,180.5l-1.64-3.28,48.95-29.37a1.32,1.32,0,0,1,1.84.33h0a1.28,1.28,0,0,1-.32,1.81Z"/><path class="cls-3" d="M6,166.56l.33-3.28L46.76,132a1.32,1.32,0,0,1,1.84.33h0a1.28,1.28,0,0,1-.32,1.81Z"/><path class="cls-3" d="M21.39,196.57l-1.31-1.48,78.18-23.94a1.34,1.34,0,0,1,1.84.33h0a1.29,1.29,0,0,1-.32,1.82Z"/><path class="cls-3" d="M68,141.29h0a1.25,1.25,0,0,1,.32-1.72l15.46-10.81a1.33,1.33,0,0,1,1.84.33h0a1.28,1.28,0,0,1-.32,1.81L69.8,141.64A1.29,1.29,0,0,1,68,141.29Z"/><path class="cls-3" d="M65.41,144a2.5,2.5,0,0,1-1,3.43,2.6,2.6,0,0,1-3.49-1,2.5,2.5,0,0,1,1-3.43A2.6,2.6,0,0,1,65.41,144Z"/><path class="cls-3" d="M43.56,200.89l-9.81-.82,60.6-6.8a1.15,1.15,0,0,1,1.26,1h0a1.15,1.15,0,0,1-1,1.26Z"/><path class="cls-3" d="M105.77,192.93h0a1.11,1.11,0,0,1,1-1.18l16.43-1.86a1.15,1.15,0,0,1,1.27,1h0a1.15,1.15,0,0,1-1,1.26L107,194A1.1,1.1,0,0,1,105.77,192.93Z"/><path class="cls-3" d="M102.62,193.92a2.23,2.23,0,1,1-2.22-2.22A2.22,2.22,0,0,1,102.62,193.92Z"/><path class="cls-3" d="M61.62,185.81c-.26,1.22-.46,2.12,0,2.62s.36,1.57.62,2.34a3.41,3.41,0,0,0,1.33,1.56,4.7,4.7,0,0,0,4,.87A8.54,8.54,0,0,0,69.66,192c4.33-2.95,10.27-3.76,14.86-1.26a43.36,43.36,0,0,0,4,2.33,15.66,15.66,0,0,0,6,.78L42,200.45s2.87-2.79,5.36-3.53,6.72-1.31,8.47-3.64C56.18,192.69,61.62,185.81,61.62,185.81Z"/><path class="cls-3" d="M38.52,134.15a33.56,33.56,0,1,0,33.55,33.56A33.56,33.56,0,0,0,38.52,134.15Zm25.85,15.49.33.48A33,33,0,0,1,70.29,168a8.16,8.16,0,0,0-1.79-.53,4.48,4.48,0,0,1-1.93-.7,4.5,4.5,0,0,1-1.19-2.41l-2.45-9a6.23,6.23,0,0,1-.34-2.79,4.25,4.25,0,0,1,.93-1.7A7.12,7.12,0,0,0,64.37,149.64Zm-38.13-.7a5.89,5.89,0,0,1,.5-3.07c.5-.68,1.8-1,2.84-1.24.36-.09.7-.17,1-.27l6.17-1.9A8.09,8.09,0,0,1,39,142a3.06,3.06,0,0,1,.74.09,5.22,5.22,0,0,1,2.3,1.78,39.58,39.58,0,0,1,5,7.33l-7.62,9.3a2.46,2.46,0,0,1-.67.63,2.23,2.23,0,0,1-1.27-.1l-10.83-2.78a1.81,1.81,0,0,1-.61-.23c-.3-.24-.31-.86-.27-1.44l.39-6.54C26.25,149.7,26.25,149.33,26.24,148.94Zm.13,10.68L37.2,162.4a4.88,4.88,0,0,0,1.25.2,2.36,2.36,0,0,0,.82-.14c1.29,2.32,2.5,4.62,3.66,6.84s2.4,4.6,3.72,7a13,13,0,0,0-2.33,2.19c-.36.4-.71.77-1,1.06l-8.77,8.22-.08.09a46.56,46.56,0,0,1-11.39-2.31.74.74,0,0,0-.08-.29,78.6,78.6,0,0,1-5.82-15.42l0-.05L25.7,159.4A3.72,3.72,0,0,0,26.37,159.62Zm17.91,20.92c.34-.32.7-.72,1.08-1.14a9.16,9.16,0,0,1,2.44-2.17c.62-.28,2.07.21,3,.53.41.13.79.26,1.12.35l5.42,1.34c.73.18,1.51.44,1.71,1a2.36,2.36,0,0,1-.17,1.38l-1.86,5.86a8.82,8.82,0,0,1-1.53,3.24,9.11,9.11,0,0,1-3.26,2l-6.18,2.64a3.51,3.51,0,0,1-2.31.44,3.51,3.51,0,0,1-1.26-1L36,188.27Zm13.43-2.46-5.41-1.35c-.28-.06-.64-.19-1-.31-1.25-.42-2.8-.93-3.91-.53-1.32-2.36-2.55-4.7-3.73-7s-2.37-4.55-3.68-6.88a4.69,4.69,0,0,0,.62-.66l7.92-9.66.07-.1,12.55,1.7a9.62,9.62,0,0,0,.44,2.45l2.46,9a5.94,5.94,0,0,0,1.55,3,63.58,63.58,0,0,1-5.74,11.27A4.73,4.73,0,0,0,57.71,178.08ZM45.82,136.74a32.12,32.12,0,0,1,17.5,11.48,3.4,3.4,0,0,1-.92,1.84,5.48,5.48,0,0,0-1.2,2.29l0,.17L48.49,150.8A40.76,40.76,0,0,0,43.14,143a6.53,6.53,0,0,0-2.88-2.18l3-4.55C44.11,136.35,45,136.53,45.82,136.74Zm-27,5.55a33,33,0,0,1,19.58-6.45,31.47,31.47,0,0,1,4,.25l-3,4.51a8.3,8.3,0,0,0-3.06.51L30.17,143c-.26.08-.58.16-.92.24-1.27.31-2.84.69-3.64,1.77a2.36,2.36,0,0,0-.29.48l-6.68-1.32A4.45,4.45,0,0,0,18.78,142.29Zm-5.87,5.82a28.29,28.29,0,0,1,4.46-4.69,8.71,8.71,0,0,1-1.6,3.17L9.6,155.38,9,155.24A30.35,30.35,0,0,1,12.91,148.11Zm-5.54,20.1-.09,4.9a33,33,0,0,1-.19-10.77,32.48,32.48,0,0,1,1.39-5.76l1,.22a37.77,37.77,0,0,1-1,5.48,39.68,39.68,0,0,0-1,5.55A.71.71,0,0,0,7.37,168.21Zm1.9-5.75a36.32,36.32,0,0,0,1-5.69.64.64,0,0,0,.21-.19l6.44-9.18A13.3,13.3,0,0,0,18.36,145l6.69,1.32a11.16,11.16,0,0,0-.22,2.68c0,.37,0,.71,0,1l-.39,6.55a3.17,3.17,0,0,0,.61,2.44l-8.53,10.32-8.19-1.71A43.33,43.33,0,0,1,9.27,162.46Zm6,26.54,2.43,1.06.58,1.87A33.29,33.29,0,0,1,15.24,189Zm-2-2.41A32.78,32.78,0,0,1,8.6,178l.16-8.94,7.15,1.49a80.16,80.16,0,0,0,5.6,14.83l-3.26,3.36Zm12.38,10.1a30.92,30.92,0,0,1-5.42-3.21l-1.1-3.56,3.57-3.69a47.19,47.19,0,0,0,11.76,2.4.39.39,0,0,0,.08.1l7,7.21a5.65,5.65,0,0,0,1.38,1.13l-3.26,2.51A31.78,31.78,0,0,1,25.63,196.69Zm27.22-.29A31.43,31.43,0,0,1,41,199.52l2.78-2.13h0a3.55,3.55,0,0,0,.46,0,6.24,6.24,0,0,0,2.38-.63l6.19-2.64a10,10,0,0,0,3.76-2.34l.29-.36,3.16.08A31.55,31.55,0,0,1,52.85,196.4Zm15.76-17.69a31.09,31.09,0,0,1-7.73,12l-3.5-.08a14.41,14.41,0,0,0,1-2.59l1.86-5.86a3.5,3.5,0,0,0,.15-2.32l-.06-.12a65.88,65.88,0,0,0,5.92-11.51,7.1,7.1,0,0,0,1.95.6,4.92,4.92,0,0,1,1.88.66.58.58,0,0,0,.19.1A30.75,30.75,0,0,1,68.61,178.71Z"/></g></g></svg>