<svg xmlns="http://www.w3.org/2000/svg" xmlns:xlink="http://www.w3.org/1999/xlink" viewBox="0 0 150 34.91"><defs><style>.cls-1{fill:#fff;}.cls-2{fill:#43b02a;}.cls-3{mask:url(#mask);}.cls-4{fill:#ff671f;}</style><mask id="mask" x="0" y="0" width="150" height="34.91" maskUnits="userSpaceOnUse"><g id="mask-2"><path id="path-1" class="cls-1" d="M18.28,0H132.53a17.44,17.44,0,0,1,13.11,29,17.65,17.65,0,0,1-13.09,5.91H21.87c-3.11,0-6.29.21-9.31-.72A17.44,17.44,0,0,1,14.48.26,23,23,0,0,1,18.28,0Z"/></g></mask></defs><title>Ресурс 6</title><g id="Слой_2" data-name="Слой 2"><g id="about"><g id="Desktop-HD"><g id="logo-witout-ua"><g id="Group-26"><g id="Path"><path id="path-1-2" data-name="path-1" class="cls-2" d="M18.28,0H132.53a17.44,17.44,0,0,1,13.11,29,17.65,17.65,0,0,1-13.09,5.91H21.87c-3.11,0-6.29.21-9.31-.72A17.44,17.44,0,0,1,14.48.26,23,23,0,0,1,18.28,0Z"/></g><g class="cls-3"><g id="Group-24"><path id="Shape" class="cls-4" d="M129.46,8.27a9.76,9.76,0,0,1,11.36,5.34,9.72,9.72,0,1,1-18.48,5.33A9.76,9.76,0,0,1,129.46,8.27Z"/><g id="Group-2"><path id="Shape-2" data-name="Shape" class="cls-1" d="M17.67,6.63a11.15,11.15,0,0,1,11.11,5c1.09,1.79-.51,4.46-2.63,4.16-1.19.15-2-.79-2.67-1.65a5.35,5.35,0,0,0-9.15,5.13A5.26,5.26,0,0,0,19.7,23c1.91.09,3.36-1.3,4.55-2.61,1.58-1.53,4.47-.22,4.61,1.9.22,1.88-1.45,3.2-2.73,4.28A11.14,11.14,0,1,1,17.67,6.63Z"/><path id="Shape-3" data-name="Shape" class="cls-1" d="M39.08,6.68a11.19,11.19,0,0,1,12.85,8.7c1.45,5.92-3,12.37-9,13.25A11.18,11.18,0,0,1,30.2,20.22C28.57,14.24,33,7.61,39.08,6.68Zm1.07,5.69a5.35,5.35,0,1,0,6.22,4.82A5.37,5.37,0,0,0,40.15,12.37Z"/><path id="Shape-4" data-name="Shape" class="cls-1" d="M54,9.3a2.84,2.84,0,0,1,4.5-2.24c2.36,2.17,4.56,4.53,6.85,6.78,2.2-2.17,4.35-4.38,6.56-6.54A2.85,2.85,0,0,1,75,6.74a3.1,3.1,0,0,1,1.74,2.92c0,5.42,0,10.84,0,16.27a2.93,2.93,0,0,1-3.29,2.85A2.88,2.88,0,0,1,71,25.94c0-3.19,0-6.38,0-9.56-1.26,1.2-2.48,2.45-3.72,3.67a2.79,2.79,0,0,1-3.6.22c-1.43-1.17-2.59-2.63-4-3.87,0,3.22,0,6.45,0,9.67a2.86,2.86,0,0,1-3.38,2.68A2.8,2.8,0,0,1,54,25.89C53.94,20.36,53.93,14.83,54,9.3Z"/><path id="Shape-5" data-name="Shape" class="cls-1" d="M79.13,9.4a2.93,2.93,0,0,1,3-2.92H93.72A2.93,2.93,0,0,1,96.27,8.1a2.83,2.83,0,0,1-2.21,4.1c-3.06.07-6.11,0-9.17,0v3.55h7.73a3,3,0,0,1,2.93,3.6,2.93,2.93,0,0,1-3,2.22c-2.57,0-5.14,0-7.71,0,0,1.52,0,3,0,4.56a2.89,2.89,0,0,1-3.71,2.49,3.59,3.59,0,0,1-1.84-1.51,24.87,24.87,0,0,1-.21-4.88C79.12,18,79.08,13.69,79.13,9.4Z"/><path id="Shape-6" data-name="Shape" class="cls-1" d="M97.82,9.68a2.88,2.88,0,0,1,3.56-3.09c1.26.36,2,1.54,2.92,2.38,1.42,1.34,2.72,2.8,4.16,4.12,2-1.94,3.94-4,6-5.91a2.84,2.84,0,0,1,4,.27,2.88,2.88,0,0,1-.07,4c-2.32,2.35-4.68,4.66-7,7,0,2.5,0,5,0,7.5a2.86,2.86,0,1,1-5.71,0c0-2.49,0-5,0-7.47-1.86-2-3.83-3.81-5.7-5.75C99.05,11.8,97.86,11,97.82,9.68Z"/></g></g></g></g></g></g></g></g></svg>