<svg xmlns="http://www.w3.org/2000/svg" viewBox="0 0 200.34 208.8"><defs><style>.cls-1,.cls-2,.cls-3{fill:#fff;}.cls-1{fill-rule:evenodd;}.cls-3{font-size:24.36px;font-family:Predator-Bold, Predator;font-weight:700;}.cls-4{letter-spacing:-0.08em;}.cls-5{letter-spacing:0em;}.cls-6{font-size:33.83px;}.cls-7{letter-spacing:-0.03em;}.cls-8{letter-spacing:-0.04em;}</style></defs><title>Ресурс 9</title><g id="Слой_2" data-name="Слой 2"><g id="playing"><path class="cls-1" d="M193.83,40H174a6.53,6.53,0,0,0-6.52,6.51V63.57A6.53,6.53,0,0,0,174,70.08h19.84a6.52,6.52,0,0,0,6.51-6.51V46.48A6.52,6.52,0,0,0,193.83,40ZM120.94,17.5H118.5v-.43c.67,0,1.09-.13.8-.72-.45-.88,1.5-.84,1.79-.64.51.33.17,1.31-.15,1.79Zm-3.34.59h3c-.33.5-1.25,2.17-1.84,2.18a6.16,6.16,0,0,1-1.12-2.18Zm56.49,28.39h19.63V63.57H174.09V46.48Zm-40.28,0h27.32A6.53,6.53,0,0,0,154.61,40h-21a6.52,6.52,0,0,0-6.51,6.51V63.57a6.52,6.52,0,0,0,6.51,6.51h21a6.53,6.53,0,0,0,6.52-6.51V52.29H139a5,5,0,0,0,5,5h10.92v6.24h-21.1V46.48Zm-85.29,0H74.59A6.52,6.52,0,0,0,68.08,40H47.9a6.53,6.53,0,0,0-6.52,6.51v5.29a6.53,6.53,0,0,0,6.52,6.51H68.13v5.29H41.38a6.53,6.53,0,0,0,6.52,6.51H68.75a6.53,6.53,0,0,0,6.52-6.51V58.28a6.53,6.53,0,0,0-6.52-6.51H48.52V46.48ZM11,46.48H35.59A6.53,6.53,0,0,0,29.07,40H9.24a6.53,6.53,0,0,0-6.52,6.51V63.57a6.53,6.53,0,0,0,6.52,6.51H29.07a6.53,6.53,0,0,0,6.52-6.51H11V46.48ZM127.21,14.53a1.64,1.64,0,0,1-.49.17c-.93,1.32-.37,1.16-2,2.26a12.25,12.25,0,0,0,.59,4.4.19.19,0,0,1,0,.13.15.15,0,0,1-.11.08l-1.3.3a8.36,8.36,0,0,1,0,2.25c-.28,1.46-3.75,4.65-4.58,4.82-1.15.22-2.43-.79-4.44-1.67a36,36,0,0,0-3.38-1.79c-.81-.27-1.62,1.69-.61,2.22.46.24,1.21.57,1.44,1.18.7,1.81-.11,8.77-1.54,10.16-.68,0-1.26-.63-1.76-.46-.91.49-.33,3.25,0,3.73,5.55,5.72,4.89,9.95,7.25,13.11,1.08,0,.37,1.14,1.18,2.48a5.11,5.11,0,0,1-.17,2.29v1.73l-.18.54V64c-.17.74-.35,1.72-.51,2.41-.33,1.45,1,2.57.18,3.95,0,.85,0,.68-.5,1.36,0,1.32-.31,4.09,0,5.07a15.25,15.25,0,0,0,3.3,3.84c1.5.66,3.7.52,3,2.87-4.37,1.34-7.16-.76-9.48-.79l-.11.4a9.92,9.92,0,0,1-3-.47,35.92,35.92,0,0,1,.65-4l.5-.79a49.13,49.13,0,0,0-.22-5.42c-.93-.68-1.11-2.77-1.11-3.91a13.1,13.1,0,0,1-.32-3.09,5.68,5.68,0,0,1-.15-2c.14-.46.66-.67.79-1V61.06c.25-1.36.17-2-.64-2.81-2,0-2.33.13-3.45-1.61-.35-.54-3.21-5-3.48-5.17-2.38-1-1.91-.64-2.95-2.48a2.43,2.43,0,0,0-1.23,1,40,40,0,0,0-2.79,6.85c-.24.81,0,1.7-.36,2.37-.26.48-1.11.64-1.29,1-.83,1.5-.21,1.38-1.79,2.44A6.94,6.94,0,0,0,91.57,64l-.36.5c-.26.57.29,1.62.18,2a25.28,25.28,0,0,1-1,2.77c-.73,1.72-.64,4-1.37,5.08-.37.53-1.26,0-1.94.45,0,.37-1.11,2.83-1.32,3.52v3.91c.2.66.75,1.29.59,2.12s-3.27.88-4.95.64a1.67,1.67,0,0,1-1.44-2c0-1.13,2.31-8.47,2.17-9-1.74-2,.46-4,1.11-5.78.32-.89.12-2.13.47-3L85.54,62c1.11-1.06.62-1.11,1.22-2.05s1.16-1.37.79-2.62c-.74-2.52.86-6.09,1-8.73-.28-.3-1.25-.2-1.37-1-.24-1.63.62-4.53,1.15-4.81.24-.12.51,0,.72-.14,0-1.23-1.22-8.06-.29-8.4.57-.21,1.88-.33,2.14-.44,0-.29-.22-.91-.46-.95-.41-.05-1.24-.21-1.91-.36-2-.47-.15-8.52-.12-8.56.56-.74,3.16.26,3.48-1,.87-1.11-.67-5.39,2.3-10.65,1-1.78,2.93-3.58,5.17-2.82.75.26.29,1.34,1.61.18a4.78,4.78,0,0,0-.46-1.79c-2.2-6.55,5.24-10.1,10.45-6.36a5.76,5.76,0,0,1,1.36.68c.29,1.49,1.76,4.13.29,5.86a5.42,5.42,0,0,0-1.8.79,5.19,5.19,0,0,0,.18,1.51c.1.32.29.44-.2.64-.06,0,0,.23,0,.3a6.14,6.14,0,0,0,3.33-.55h1V9.53h.46v-1H116v1.66h1.21v.52h17.95v.93h.8V8.27h.66v2.78h1.53v1.58h4.75v-.47h.79v.2h2.25v1.32h-2.25v.21h-.79v-.47h-4.75v.47H136v-.32h-.9v1Z"/><path class="cls-2" d="M50,155.73A1.88,1.88,0,0,0,50,152h-.28a35.6,35.6,0,0,0-6.69.64,1.87,1.87,0,0,0,.35,3.71l.35,0a31.58,31.58,0,0,1,6-.57Z"/><path class="cls-2" d="M58.6,169.89a12.27,12.27,0,0,1,5.85-1.5,12,12,0,0,1,3.5.52,4,4,0,0,1,2.7,5l-.6,2a7.36,7.36,0,0,1-9.12,5l-7.47-2.22a1.13,1.13,0,0,1-.77-1.41A12.21,12.21,0,0,1,58.6,169.89Z"/><path class="cls-2" d="M32.81,168.91a12.11,12.11,0,0,1,9.35,1,12.26,12.26,0,0,1,5.92,7.31,1.14,1.14,0,0,1-.77,1.41l-7.47,2.22a7.35,7.35,0,0,1-9.13-5l-.59-2A4,4,0,0,1,32.81,168.91Z"/><path class="cls-2" d="M46.06,187.13a3.31,3.31,0,0,0,2.86,5h2.93a3.31,3.31,0,0,0,2.86-5l-3.15-5.45a1.36,1.36,0,0,0-2.35,0Zm2.36,1.94a.54.54,0,0,1,0-.58l2-3.41,2,3.41a.54.54,0,0,1,0,.58.55.55,0,0,1-.5.29H48.92a.55.55,0,0,1-.5-.29Z"/><path class="cls-2" d="M17.15,183.62a8.18,8.18,0,0,0,13.44,6.25c1.23,1.82,1.89,10.77,1.89,13v1.81A1.36,1.36,0,0,0,33.84,206H66.93a1.36,1.36,0,0,0,1.36-1.36v-1.81c0-2.22.66-11.17,1.89-13a8.17,8.17,0,0,0,10.54-12.49v-10.8a30.23,30.23,0,0,0-30.23-30.24h-.22a30.23,30.23,0,0,0-30.22,30.24v10.8A8.18,8.18,0,0,0,17.15,183.62Zm5.72.27A5.16,5.16,0,0,1,25,179.72a1.31,1.31,0,0,0,.52-1V168a26,26,0,0,1,7.3-18.23,24.22,24.22,0,0,1,17.6-7.5h.09A24.2,24.2,0,0,1,68,149.72,26,26,0,0,1,75.29,168v10.73a1.28,1.28,0,0,0,.52,1,5.16,5.16,0,0,1,2.09,4.17A5,5,0,0,1,73,189a4.83,4.83,0,0,1-3.88-2,1.2,1.2,0,0,0-1.89-.06c-2,2.36-3.14,11.77-3.14,14.93v.42H59.84V198a1.23,1.23,0,1,0-2.45,0v4.34H51.61V198a1.23,1.23,0,1,0-2.45,0v4.34H43.38V198a1.23,1.23,0,1,0-2.45,0v4.34H36.69v-.42c0-3.16-1.12-12.57-3.14-14.93a1.22,1.22,0,0,0-1-.43,1.19,1.19,0,0,0-.93.49,4.83,4.83,0,0,1-3.88,2A5,5,0,0,1,22.87,183.89Z"/><path class="cls-2" d="M46,155.72a1.75,1.75,0,0,0,1.72-1.43,24.44,24.44,0,0,0-8.53-23.41,24.45,24.45,0,0,0-24.57-4.1A1.74,1.74,0,0,0,15.84,130a21.23,21.23,0,0,1,28.42,23.62,1.75,1.75,0,0,0,1.41,2A1.63,1.63,0,0,0,46,155.72Z"/><path class="cls-2" d="M15.45,134.05a1,1,0,1,0,0-1.93c-2.49,0-4.51-1.74-4.51-3.89s2-3.89,4.51-3.89a1,1,0,1,0,0-1.93c-3.71,0-6.73,2.61-6.73,5.82S11.74,134.05,15.45,134.05Z"/><path class="cls-2" d="M16.52,121.87a1.07,1.07,0,0,0,1.11-.91l.34-5.23a1,1,0,0,0-1-1,1.06,1.06,0,0,0-1.17.9l-.35,5.23a1,1,0,0,0,1,1Z"/><path class="cls-2" d="M7.16,124.83a1.15,1.15,0,0,0,.91-.41.88.88,0,0,0-.27-1.34l-6-3.65a1.22,1.22,0,0,0-1.55.24A.88.88,0,0,0,.48,121l6,3.65A1.33,1.33,0,0,0,7.16,124.83Z"/><path class="cls-2" d="M12.52,144.26a1.06,1.06,0,0,0,1.11-.87L14.2,138a1,1,0,0,0-1-1,1.08,1.08,0,0,0-1.21.87l-.57,5.42a1,1,0,0,0,1,1Z"/><path class="cls-2" d="M1.68,138.05a1.24,1.24,0,0,0,.6-.15l6.05-3.36a.89.89,0,0,0,.34-1.33,1.24,1.24,0,0,0-1.54-.29l-6,3.36a.89.89,0,0,0-.33,1.33A1.17,1.17,0,0,0,1.68,138.05Z"/><circle class="cls-2" cx="10.38" cy="114.54" r="2.03"/><circle class="cls-2" cx="10.38" cy="148.72" r="2.28"/><path class="cls-2" d="M.25,126.69a1.74,1.74,0,0,0,1.9,1.52,1.56,1.56,0,1,0,0-3A1.74,1.74,0,0,0,.25,126.69Z"/><text class="cls-3" transform="translate(47.41 130.94) scale(1.06 1)"><tspan class="cls-4">Г<tspan class="cls-5" x="14.15" y="0">АН-ГЕЙМ</tspan></tspan><tspan class="cls-6"><tspan x="46.9" y="40.59">10ХВ</tspan></tspan><tspan class="cls-7" x="49.15" y="69.82">Р</tspan><tspan class="cls-8" x="67.32" y="69.82">А</tspan><tspan x="85.83" y="69.82">УНД</tspan></text></g></g></svg>