<svg xmlns="http://www.w3.org/2000/svg" xmlns:xlink="http://www.w3.org/1999/xlink" viewBox="0 0 313.18 357.23"><defs><style>.cls-1{fill:#fff;}.cls-2{fill:url(#linear-gradient);}.cls-3{fill:#1eff96;}.cls-4{fill:none;}.cls-5{fill:url(#linear-gradient-2);}.cls-6{fill:url(#linear-gradient-3);}.cls-7{fill:#43b02a;}.cls-8{mask:url(#mask);}.cls-9{fill:#ff671f;}.cls-10{fill:#bcbec0;}</style><linearGradient id="linear-gradient" x1="156.59" y1="345.09" x2="156.59" y2="8.49" gradientUnits="userSpaceOnUse"><stop offset="0" stop-color="#1eff96"/><stop offset="0.48" stop-color="#00b4ff"/><stop offset="1" stop-color="#00b4ff"/></linearGradient><linearGradient id="linear-gradient-2" x1="156.59" y1="210.15" x2="156.59" y2="139.07" gradientUnits="userSpaceOnUse"><stop offset="0" stop-color="#1eff96"/><stop offset="0" stop-color="#1cef8d"/><stop offset="0.02" stop-color="#16bd6f"/><stop offset="0.04" stop-color="#119055"/><stop offset="0.05" stop-color="#0c693e"/><stop offset="0.07" stop-color="#09492b"/><stop offset="0.09" stop-color="#052e1b"/><stop offset="0.11" stop-color="#031a0f"/><stop offset="0.14" stop-color="#010b07"/><stop offset="0.17" stop-color="#000302"/><stop offset="0.21"/></linearGradient><linearGradient id="linear-gradient-3" x1="156.59" y1="202.2" x2="156.59" y2="141.32" gradientUnits="userSpaceOnUse"><stop offset="0" stop-color="#1eff96"/><stop offset="0.01" stop-color="#1efe98"/><stop offset="0.2" stop-color="#13e3bd"/><stop offset="0.39" stop-color="#0bcfda"/><stop offset="0.57" stop-color="#05c0ee"/><stop offset="0.76" stop-color="#01b7fb"/><stop offset="0.94" stop-color="#00b4ff"/></linearGradient><mask id="mask" x="100.65" y="231.16" width="111.88" height="26.04" maskUnits="userSpaceOnUse"><g id="mask-2"><path id="path-1" class="cls-1" d="M114.28,231.16H199.5a13,13,0,0,1,13,12.89,12.86,12.86,0,0,1-3.26,8.72,13.08,13.08,0,0,1-9.76,4.41H117c-2.32,0-4.7.16-7-.54a13.07,13.07,0,0,1-8.86-8.91,12.89,12.89,0,0,1,.81-9.25,13.09,13.09,0,0,1,9.48-7.14A18,18,0,0,1,114.28,231.16Z"/></g></mask></defs><title>Ресурс 1</title><g id="Слой_2" data-name="Слой 2"><g id="intro"><path class="cls-2" d="M282.42,32.7S233.56,8.49,159.19,8.49,30.76,32.7,30.76,32.7s1.55,60.42.6,116c-.43,25.68.44,47.55,3,66.54v0h0c7.12,53.59,27.35,72.07,68.37,100.63,18.6,11.53,44,29.24,53.9,29.24s35.3-17.71,53.9-29.24c55.56-38.69,73-69.06,71.33-167.2C280.87,93.12,282.42,32.7,282.42,32.7Zm-14.71,8.95L249.44,55.09a272.92,272.92,0,0,0-91-15.8c-30.55,0-63.23,5.48-94.63,15.84l-18-13.26c17.93-6,61.22-19.68,113.42-19.68A320.48,320.48,0,0,1,267.71,41.65ZM85.86,277.87c-16.37-20.6-19.57-49.67-20.09-56l.26-.08c12.8-4.15,41.09-11.1,86.64-11.1,39.69,0,76.36,6.82,95.38,11.08-.49,6.11-3.62,35.38-20.1,56.11-17.37,21.86-65.14,48.18-71.27,51.5C150.58,326,103.23,299.73,85.86,277.87Zm66.81-69.93c-43.12,0-71,6-86.93,11.05l-16.22-8.7c17.36-4.62,50.16-10.81,101.27-10.81,46.9,0,90.63,6.94,112.78,11.15l-14.31,8.59C230.31,215,193.05,207.94,152.67,207.94ZM47.58,210.81h0l0,0Zm103.21-75.67a493.12,493.12,0,0,0-83.61,7.58L64.51,57.78C95.68,47.48,128.12,42,158.43,42a270.14,270.14,0,0,1,90.25,15.7L246,142.24A624.22,624.22,0,0,0,150.79,135.14ZM44.23,42.38l-.09.12v-.09ZM44.11,44,61.74,57l2.71,86.18c-7.63,1.35-14.14,2.64-19.28,3.67C45.76,113.54,43.9,59.22,44.11,44ZM58.29,248.26c-4.86-12.16-8.32-19.37-10.5-35.79l15.39,8.26H63c0,.35,1.82,35,20.76,58.84,14.17,17.82,46.67,37.88,62.86,47.24-11.52-5.11-30.1-13.64-36.34-17.51C83.47,290.62,67.92,272.34,58.29,248.26ZM203,309.31c-5.68,3.52-21.82,10.91-33.57,16.06,17-9.87,47.25-28.85,60.72-45.79,17.4-21.89,20.34-52.92,20.72-58.1l14.53-8.72c-2.18,16.27-5.62,23.41-10.46,35.5C245.26,272.34,229.72,290.62,203,309.31ZM268,146.07c-5.06-1-11.52-2.16-19.25-3.4L251.44,57l17.63-13C269.24,59.48,267.41,113.12,268,146.07Z"/><path class="cls-3" d="M159.19,2.74c75.15,0,124.36,24,126.41,25L290.29,30l-.13,5.23c0,.6-1.54,60.67-.61,115.17,1.74,102-18,134.08-74.58,173.45l-.18.13-.18.11c-3.46,2.15-7.13,4.49-11,7-22.78,14.56-37.32,23.39-47,23.39s-24.21-8.83-47-23.39c-3.88-2.48-7.55-4.82-11-7l-.19-.11-.18-.13c-38.76-27-59.73-46.07-68.92-90.22,0,0-6.11-56.65-5.66-83.23.93-54.51-.58-114.57-.6-115.17l-.14-5.46,5-2.23c2.27-1,56.33-24.84,131.32-24.84m0-2.74C83.61,0,29,24.06,26.75,25.08l-5,2.23-1.67.75,0,1.82.14,5.46c.06,2.48,1.52,61.29.6,115.06-.45,26.44,5.61,83,5.67,83.56l0,.13,0,.14C31.16,256.1,38.54,272.36,50.55,287c11.35,13.8,26.05,25.22,46.1,39.18l.18.13.06,0,.06,0,.18.12c3.42,2.12,7.05,4.44,10.89,6.89l.1.06c23.2,14.82,38,23.82,48.47,23.82s25.27-9,48.48-23.82l.05,0c3.86-2.46,7.5-4.79,10.93-6.92l.19-.11.06,0,.06-.05.18-.12c26.93-18.75,47.46-36.87,60.07-64.36,11.88-25.89,16.57-59.2,15.68-111.38-.91-53.76.54-112.58.61-115.06l.13-5.23.05-1.75-1.57-.78-4.69-2.32C284.74,24.23,235,0,159.19,0Z"/><path class="cls-4" d="M282.42,32.7S233.56,8.49,159.19,8.49,30.76,32.7,30.76,32.7s1.55,60.42.6,116c-.43,25.68.44,47.55,3,66.54v0h0c7.12,53.59,27.35,72.07,68.37,100.63,18.6,11.53,44,29.24,53.9,29.24s35.3-17.71,53.9-29.24c55.56-38.69,73-69.06,71.33-167.2C280.87,93.12,282.42,32.7,282.42,32.7Z"/><path class="cls-5" d="M96.34,142.84l-8.47,18.89-8.41-16.56L69,146.89v30.53l-4.42-14.69-9-13.3L42.9,152.16,38.66,168.1l-11-12.22-21.9,6.23L0,172l0,26.08,5.85,6.06,27.44,6,18.19-6.38L53.69,196l6.2-1.32,5.58,6.16,20.78-3.56.09-14.69,4,6.78,6.77-.91,4.26,6.8,12.84-1.34,20.51-1.44,0-9.84-2.27-11.55-3,.16,0-6.61,5.31-.3,0-10.18-2.27-14.45Zm15,13.48,3,9.5,1.64-.14v6.52l-4.66.4Zm201.87,8.94L302.53,162l-8.24,7.63-3.87-11.08L280,155.82l-5.66,6.44-2.2-8.34-12.63-2.79-9.48,13.24,0,.16c-.47,1.57-1.77,5.91-2.89,9.63l0-17.2-6-9.29-24.92-3.62-5.75,14.09.13,38.24,23.07,3.24,9.09-11-3.68,11.92,10.09,1.88,5.83-6.07,6,1.3,2.17,7.74,16.75,4.08,21.53-6.14,0-12Zm-144.89-26.1-.13,42.09L167.24,192l-9.58-.07-9.89-17.13-.05,17.25-.9,0c-.69,0-8.35.27-8.35.27l-.82,0-1.83-10.67.06-42.13,10.42-.36,10.91,19.51,0-19.66ZM200,156.24l1.25-4.27,0-11.19L178,139.42l-6.31,8.24-1.32,13.18,0,23.84,5.76,7.56h.44c1.36.06,17.28.95,17.44,1l.49,0,5.72-6.9,3.93-10.65.07-19.11Z"/><path class="cls-6" d="M63.61,180q-1.48-4.78-3-9.61t-3-9.72q-1.34-4.38-2.66-8.79l-2.08.43-2.87.61-2.87.63-2.37.52q-1.38,5.25-2.78,10.45Q40.59,170,39.1,175.48t-2.93,10.83c-.78,2.88-1.57,5.76-2.35,8.63l2.93-.71,2.33-.54,1.86-.43,2.33-8.54,3.4-.75,2.93-.63,2.93-.61,3.72-.75,2.34,7.57,1.59-.3,2.35-.44,3.62-.66Q64.89,184.1,63.61,180Zm-13.54-4.11-4.67,1,1.27-5.06,3.1-12.52,1.62,5.89,2.72,9.84ZM27.36,173.7l2.28-.59V189l-5.21,8.27-4.28,1.15-4.56,1.25L11.05,201q-2,.58-4.08,1.2l-4.69-4.88V172.84L7.43,164l4.92-1.48c1.74-.51,3.48-1,5.22-1.51s3.49-1,5.24-1.47l4-1.08V166l-3.51.93-4.18,1.15c-1.39.38-2.77.78-4.16,1.17l-4.15,1.21-.3.09L9,173.24v18.35l1.53,1.78.4.47,2.95-.85,2.47-.7,2.46-.69,2.77-.75,1.54-2.64v-6.64l-2.63.71-3,.82v-6.75l2.82-.79,3.48-.94Zm77-29.47,1.19-.12,0,38.57-1.46.15-2.27.24-3.47.39,0-23.47-4.76,10.35-2.75,6-2.64.35-2.5.35-2.63-5-3-5.68L78.39,163v23.12l-1.49.22-2.25.36-3.37.55,0-38.44,1.47-.26L75,148.2l3.89-.62,4.14,8.17,2.26,4.41,3.1,6.06,3-6.65L96,149.49l2-4.55,4.06-.46Zm22.75-1.91c1.38-.09,2.77-.17,4.15-.24v7.63l-5.74.33-.06,1.18,0,22.47,3.9-.23,1.9-.11v7.35l-4.31.25c-1.73.1-3.45.22-5.18.34s-3.45.25-5.18.39l-4.13.35v-7.34l3.49-.31,2.3-.18,0-23.64-5.78.49v-7.62l4.3-.37,5.16-.4C123.63,142.54,125.35,142.42,127.07,142.32Zm152.59,45.73q-1.47-5.38-2.92-10.82t-2.92-10.94q-1.38-5.21-2.77-10.45l-2.36-.53-2.86-.64-2.87-.62-2.07-.44q-1.32,4.38-2.66,8.75l-3,9.69q-1.48,4.81-3,9.59l-2.55,8.12,3.63.67,3.93.75.87-2.78,1.48-4.77,3.71.77,2.93.63,2.92.64,3.39.76L274.9,195l1.86.44,2.32.55,2.91.71Q280.82,192.37,279.66,188.05Zm-10.84-9.78-3-.66-4-.87,1.13-4,3.25-11.67,1.47,6,2.84,11.57Zm42.08-11.54q-1.11,2.53-2.24,5l-2.85,6.37q-1.43,3.18-2.85,6.33c-1,2.1-3,6.6-3,6.6l0,10.36-3.11-.88-2.18-.6-1.54-.42,0-11.09s-2-5.48-2.93-8.13-1.91-5.3-2.87-8-1.91-5.35-2.87-8c-.67-1.91-1.35-3.81-2-5.72l2.69.69,2.33.61,1.92.52,3.09,8.83,4,11.28L299,174.7l1.63-3.71,2.87-6.54,1.57.48,2.3.71,2.3.71Zm-70.49-17c-1.86-.31-3.71-.61-5.57-.9s-3.94-.61-5.92-.9-3.95-.56-5.93-.82c-1.61-.22-3.23-.42-4.85-.62l0,38.48c1.72.2,3.44.42,5.16.64q3,.39,6,.81t5.94.87c1.83.28,3.67.57,5.5.87l5-5.69V157.82Zm-3.71,30.5-3-.46-2.55-.38-2.55-.37-3.34-.46,0-23.56,3.66.51,2.56.38,2.56.38,2.91.46,1.64,2.64,0,18.51Zm-34.06-21.64,0,16.44-5.18,6.29-4.36-.29c-1.59-.11-3.18-.2-4.77-.29l-4.77-.24q-2.2-.11-4.41-.18l-5.26-7,.09-24.83,5.24-6.83c1.69.06,3.38.13,5.07.22s3.65.18,5.47.28l5.48.35,4.6.34,0,7.63-3.31-.25L192.1,150c-1.45-.09-2.9-.18-4.35-.25l-4.36-.22-.43,0L181.14,152l0,18.6,1.73,2.51,3,.15,2.58.14,2.58.15,3,.19,1.83-2.43,0-5.17V165l-3.8-.25-2-.13,0-6.91,2.61.16,3.63.25c1.2.08,2.41.17,3.61.27Zm-35.87-17.24L166.7,180l-2.77,0h-4.75l-2.82-4.9-3.1-5.41-3.09-5.42-4.8-8.42,0,24.33-1.38,0-2.29.07-3.58.13.1-38.64,3.54-.14,4-.12,2.81,5,3.1,5.54,3.1,5.52,4.79,8.5.08-24.76h3.6Z"/><path class="cls-1" d="M181.12,158.06l0-6.05,1.82-2.52.43,0,4.36.22c1.45.07,2.9.16,4.35.25l4.36.29,3.31.25,0-7.63-4.6-.34-5.48-.35c-1.82-.1-3.64-.2-5.47-.28s-3.38-.16-5.07-.22l-5.24,6.83,0,8.95C176.32,157.65,178.73,157.85,181.12,158.06Z"/><path class="cls-1" d="M145.37,156.7v-.88l.5.88c1.32,0,2.65,0,4,0s2.91,0,4.36,0l-2.61-4.64-3.1-5.54-2.81-5-4,.12-3.54.14,0,15.12C140.55,156.79,143,156.73,145.37,156.7Z"/><path class="cls-1" d="M192.63,157.87l-2.61-.16V159q6.39.75,12.61,1.72v-2.08l-2.77-.22c-1.2-.1-2.41-.19-3.61-.27Z"/><path class="cls-1" d="M166.74,157.08l0-15.71-3.61,0h-3.6l-.05,15.48Q163.14,156.91,166.74,157.08Z"/><path class="cls-1" d="M225.26,165.1V155l3.67.51,2.56.38,2.56.38,2.91.46,1.64,2.64v9.21c2.39.69,4.75,1.42,7.07,2.16V157.82l-5.26-8.07c-1.86-.31-3.71-.61-5.57-.9s-3.94-.61-5.92-.9-3.95-.56-5.93-.82c-1.61-.22-3.23-.42-4.85-.63l0,17Q221.74,164.28,225.26,165.1Z"/><path class="cls-1" d="M261.81,176.62l1.1-3.9,3.25-11.67,1.47,6,2.84,11.57-1.65-.37-3-.66-3.32-.71q8.55,3.51,16.18,7.52c-.65-2.39-1.29-4.79-1.94-7.19q-1.46-5.44-2.92-10.94-1.38-5.21-2.77-10.45l-2.36-.53-2.86-.64-2.87-.62-2.07-.44q-1.32,4.38-2.66,8.75l-3,9.69-.57,1.81C257.11,174.75,259.49,175.67,261.81,176.62Z"/><path class="cls-1" d="M287.33,172.35c1,2.66,1.91,5.31,2.87,8s2.93,8.13,2.93,8.13V193c2.39,1.61,4.66,3.26,6.83,4.94v-6.88s2-4.5,3-6.6,1.9-4.21,2.85-6.33l2.85-6.37q1.13-2.51,2.24-5l-1.21-.38-2.3-.71-2.3-.71-1.57-.48L300.65,171,299,174.7l-2.59,5.84-4-11.28-3.09-8.83-1.92-.52-2.33-.61-2.69-.69c.68,1.91,1.36,3.81,2,5.72C285.42,167,286.38,169.68,287.33,172.35Z"/><path class="cls-1" d="M46.27,173.45l.4-1.6,3.1-12.52,1.62,5.89,1.63,5.9c2.35-.77,4.73-1.52,7.16-2.23q-1.26-4.09-2.51-8.2-1.34-4.38-2.66-8.79l-2.08.43-2.87.61-2.87.63-2.37.52q-1.38,5.25-2.78,10.45Q40.59,170,39.1,175.48l-.21.79Q42.51,174.82,46.27,173.45Z"/><path class="cls-1" d="M23.88,174.62l-3.48.94-2.82.79v6.75l3-.82,2.63-.71v1.84q3.16-1.62,6.48-3.15v-7.15l-2.28.59Z"/><path class="cls-1" d="M9,191.54v-18.3l1.51-2.7.3-.09L15,169.24c1.39-.39,2.77-.79,4.16-1.17l4.18-1.15,3.51-.93V158.5l-4,1.08q-2.62.72-5.24,1.47c-1.74.49-3.48,1-5.22,1.51L7.43,164l-5.14,8.8v23.4C4.44,194.63,6.69,193.07,9,191.54Z"/><path class="cls-1" d="M98.08,160.53l.25-.54v.5c2.37-.36,4.77-.69,7.18-1V144.11l-1.19.12-2.26.25-4.06.46-2,4.55-4.53,10.08-1,2.24C93,161.35,95.5,160.93,98.08,160.53Z"/><path class="cls-1" d="M118.2,158.09c2.39-.21,4.78-.41,7.2-.58v-6.29l.06-1.18,5.74-.33v-7.63c-1.38.07-2.77.15-4.15.24-1.72.1-3.44.22-5.16.34l-5.16.4-4.3.37v7.62l5.78-.49Z"/><path class="cls-1" d="M78.39,164.21V163l.55,1.07q3.75-.83,7.59-1.56l-1.21-2.37-2.26-4.41-4.14-8.17L75,148.2l-2.24.37-1.47.26,0,17C73.63,165.29,76,164.74,78.39,164.21Z"/><path class="cls-3" d="M159.56,141.32h3.6l3.61,0L166.7,180l-2.77,0h-4.75l-2.82-4.9-3.1-5.41-3.09-5.42-4.8-8.42,0,24.33-1.38,0-2.29.07-3.58.13.1-38.64,3.54-.14,4-.12,2.81,5,3.1,5.54,3.1,5.52,4.79,8.5.08-24.76m19.61.38c1.69.06,3.38.13,5.07.22s3.65.18,5.47.28l5.48.35,4.6.34,0,7.63-3.31-.25L192.1,150c-1.45-.09-2.9-.18-4.35-.25l-4.36-.22-.43,0L181.14,152l0,18.6,1.73,2.51,3,.15,2.58.14,2.58.15,3,.19,1.83-2.43,0-5.17V165l-3.8-.25-2-.13,0-6.91,2.61.16,3.63.25c1.2.08,2.41.17,3.61.27l2.77.22,0,16.44-5.18,6.29-4.36-.29c-1.59-.11-3.18-.2-4.77-.29l-4.77-.24q-2.2-.11-4.41-.18l-5.26-7,.09-24.83,5.24-6.83m-47.95.38v7.63l-5.74.33-.06,1.18,0,22.47,3.9-.23,1.9-.11v7.35l-4.31.25c-1.73.1-3.45.22-5.18.34s-3.45.25-5.18.39l-4.13.35v-7.34l3.49-.31,2.3-.18,0-23.64-5.78.49v-7.62l4.3-.37,5.16-.4c1.72-.12,3.44-.24,5.16-.34,1.38-.09,2.77-.17,4.15-.24m-25.71,2,0,38.57-1.46.15-2.27.24-3.47.39,0-23.47-4.76,10.35-2.75,6-2.64.35-2.5.35-2.62-5-3-5.67L78.39,163v23.12l-1.49.22-2.25.36-3.37.55,0-38.44,1.47-.26L75,148.2l3.89-.62,4.14,8.17,2.26,4.41,3.1,6.06,3-6.65L96,149.49l2-4.55,4.06-.46,2.26-.25,1.19-.12m112.63,2.4c1.62.2,3.24.4,4.85.62,2,.26,4,.54,5.93.82s4,.59,5.92.9,3.71.59,5.57.9l5.26,8.07v24.67l-5,5.69c-1.83-.3-3.67-.59-5.5-.87q-3-.45-5.94-.87t-6-.81c-1.72-.22-3.44-.44-5.16-.64l0-38.48m18.56,33.74,1.88-2.35,0-18.51L237,156.75l-2.91-.46-2.56-.38-2.56-.38-3.66-.51,0,23.56,3.34.46,2.55.37,2.55.38,3,.46M55,151.9q1.32,4.41,2.66,8.79,1.48,4.88,3,9.72t3,9.61q1.27,4.08,2.54,8.13l-3.62.66-2.35.44-1.59.3L56.25,182l-3.72.75-2.93.61-2.93.63-3.4.75-2.33,8.54-1.86.43-2.33.54-2.93.71c.78-2.87,1.57-5.75,2.35-8.63q1.47-5.4,2.93-10.83T42,164.54q1.4-5.21,2.78-10.45l2.37-.52,2.87-.63,2.87-.61L55,151.9m205.88,1.71,2.07.44,2.87.62,2.86.64,2.36.53q1.38,5.25,2.77,10.45,1.46,5.49,2.92,10.94t2.92,10.82q1.15,4.32,2.33,8.61l-2.91-.71-2.32-.55L274.9,195l-2.31-8.53-3.39-.76-2.92-.64-2.93-.63-3.71-.77-1.48,4.77-.87,2.78-3.93-.75-3.63-.67,2.55-8.12q1.5-4.78,3-9.59l3-9.69q1.33-4.37,2.66-8.75m-234,4.89V166l-3.51.93-4.18,1.15c-1.39.38-2.77.78-4.16,1.17l-4.15,1.21-.3.09L9,173.24v18.35l1.53,1.78.4.47,2.95-.85,2.47-.7,2.46-.69,2.77-.75,1.54-2.64v-6.64l-2.63.71-3,.82v-6.75l2.82-.79,3.48-.94,3.48-.92,2.28-.58V189l-5.21,8.27-4.28,1.15-4.56,1.25L11.05,201q-2,.58-4.08,1.2l-4.69-4.88V172.84L7.43,164l4.92-1.48c1.74-.51,3.48-1,5.22-1.51s3.49-1,5.24-1.47l4-1.08m255.59.11,2.69.69,2.33.61,1.92.52,3.09,8.83,4,11.28L299,174.7l1.63-3.71,2.87-6.54,1.57.48,2.3.71,2.3.71,1.21.38q-1.11,2.53-2.24,5l-2.85,6.37q-1.43,3.18-2.85,6.33c-.95,2.1-3,6.6-3,6.6l0,10.36-3.11-.88-2.18-.6-1.54-.42,0-11.09s-2-5.48-2.93-8.13-1.91-5.3-2.87-8-1.91-5.35-2.87-8c-.67-1.91-1.35-3.81-2-5.72M158.37,140.12v1.19l-.06,20.26L155.73,157l-3.1-5.52-3.11-5.53-2.8-5-.35-.63-.72,0-4,.13-3.54.13-1.14,0v1.14l-.1,38.65v1.24l1.24,0,3.57-.14,2.29-.07,1.37,0,1.16,0v-1.15l0-19.85,2.58,4.53,3.1,5.42,3.1,5.41,2.82,4.9.34.6h5.43l2.76,0h1.2V180l.08-38.65V140.2l-1.17,0-3.62,0h-4.8Zm20.23.37-.37.48L173,147.81l-.24.32v.4l-.09,24.82v.4l.24.32,5.26,7,.34.45.57,0,4.39.19c1.59.07,3.18.15,4.76.24l4.76.28q2.17.14,4.35.3l.61,0,.39-.47,5.19-6.3.27-.32v-.43l0-16.44v-1.09l-1.09-.09L200,157.2l-3.63-.27-3.63-.24-2.62-.16-1.25-.08v1.26l0,6.91v1.12l1.12.07,2.05.12,2.67.18v0l0,4.78-1.21,1.6-2.37-.15-2.59-.15-2.59-.14-2.39-.11-1.18-1.73,0-17.84,1.23-1.69,4.13.2,4.35.25c1.45.1,2.9.19,4.34.3l3.31.24,1.27.1v-1.28l0-7.63v-1.1l-1.1-.08c-1.54-.12-3.08-.24-4.61-.34-1.83-.13-3.66-.24-5.49-.35s-3.65-.2-5.48-.29-3.39-.16-5.09-.22l-.61,0Zm-46.19.33-1.25.07c-1.39.07-2.78.16-4.16.24-1.73.11-3.46.22-5.18.35s-3.45.26-5.17.4c-1.43.11-2.87.24-4.3.37l-1.08.09v10l1.3-.1,4.49-.39,0,21.25-1.2.1-3.5.3-1.08.1v9.73l1.29-.12,4.13-.35,5.16-.39,5.17-.34,4.3-.24,1.13-.06V172.1l-1.25.07-1.9.1-2.65.16,0-21.18v-.09l4.68-.27,1.12-.06v-10Zm-25.71,2-1.31.14-1.2.12-2.26.25-4.07.46-.67.08-.28.62-2,4.54-4.54,10.09-2,4.39-2-3.86-2.25-4.41L80,147l-.39-.77-.85.14-3.88.62-2.25.37-1.48.26-1,.17v1l0,38.44v1.41l1.38-.24,3.37-.55,2.25-.35,1.48-.23,1-.15V167.89L82,172.55l2.62,5,.39.74.83-.11,2.5-.35,2.63-.35.65-.09.28-.59,2.75-6,2.48-5.38,0,18v1.33l1.32-.15,3.48-.39,2.26-.24,1.44-.15,1.07-.1v-1.08l0-38.57v-1.32ZM217,145.16v1.34L216.91,185V186l1.05.12,5.15.65,5.93.8c2,.29,4,.58,5.93.88l5.48.86.65.11.44-.49,5-5.7.29-.33v-.45l0-24.67v-.35l-.2-.3-5.26-8.07-.28-.44-.52-.08c-1.85-.31-3.72-.62-5.58-.91s-4-.61-5.93-.89l-5.94-.83-4.86-.62-1.33-.17Zm9.48,32.38V156.38l2.31.33,2.56.37,2.55.39,2.37.37,1.18,1.89,0,17.76L236.2,179l-2.33-.35-2.55-.38-2.56-.37-2.32-.33Zm-170.6-27-1.07.22-2.08.43-2.88.61-2.88.63-2.37.53-.7.15-.18.7q-1.4,5.24-2.78,10.44-1.47,5.49-2.94,10.94T35,186c-.79,2.88-1.57,5.75-2.36,8.62l-.53,1.94,2-.47,2.94-.7,2.32-.55,1.85-.42.7-.16.18-.69,2.15-7.84,2.7-.6,2.92-.62,2.92-.62,2.66-.54,2,6.55.31,1,1-.2,1.58-.3,2.35-.44,3.61-.66,1.33-.23-.4-1.29q-1.28-4.06-2.54-8.13-1.5-4.8-3-9.61t-3-9.72c-.88-2.92-1.77-5.84-2.65-8.78l-.31-1Zm204.23,1.7-.32,1c-.88,2.93-1.77,5.85-2.65,8.76q-1.49,4.86-3,9.68t-3,9.58c-.85,2.72-1.7,5.42-2.55,8.12l-.41,1.28,1.33.25,3.61.66,3.94.76,1,.2.31-1,.87-2.79,1.16-3.74,2.66.55,2.92.63,2.91.63,2.69.61,2.13,7.84.18.69.69.16,1.85.43,2.32.56,2.91.71,2,.48-.53-2q-1.17-4.29-2.34-8.61-1.46-5.38-2.91-10.82T275,166q-1.39-5.2-2.77-10.45l-.18-.69-.7-.16-2.37-.54-2.87-.64-2.87-.63-2.08-.44-1.06-.22Zm20.49,4.68.75,2.11,2,5.72c.95,2.67,1.91,5.35,2.87,8s1.9,5.32,2.86,8c.84,2.34,2.5,6.92,2.87,7.93l0,10.88v.91l.88.24,1.54.41,2.17.6,3.11.88,1.51.43V191.33c.44-1,2.08-4.56,2.9-6.37q1.43-3.17,2.86-6.33l2.85-6.37q1.11-2.52,2.24-5l.53-1.21-1.26-.4-1.21-.38-2.31-.72-2.3-.71-1.58-.47-1-.31-.42,1-2.87,6.54-1.63,3.71-1.37,3.09-3-8.46L290.49,160l-.21-.59-.6-.16-1.92-.51-2.34-.62-2.7-.69-2.16-.56ZM28,157l-1.49.4c-1.35.35-2.7.71-4,1.08l-5.25,1.46L12,161.42,7.08,162.9l-.44.14-.23.4-5.15,8.8-.16.28V197.8l.34.34L6.12,203l.5.52.69-.21,4.07-1.19,4.53-1.3,4.55-1.25,4.27-1.14.46-.11.25-.4,5.21-8.28.18-.29V171.59l-1.48.37-2.28.59-3.49.92-3.48.95-2.83.78-.87.25v9.22l1.5-.42,3-.82,1.12-.3v4.76l-1.13,1.94-2.31.63-2.47.69-2.46.7-2.22.64-1.15-1.34,0-17.6,1.13-2,4-1.16,4.15-1.17,4.17-1.14,3.51-.93.88-.23V157Z"/><polygon class="cls-1" points="166.58 108.98 166.58 83.38 171.25 76.15 171.25 83.79 168.39 86.65 168.39 94.55 177.27 85.67 177.27 54.86 172.1 67.26 163.07 76.29 157.62 61.26 157.62 93.64 162.38 98.4 166.58 108.98"/><polygon class="cls-1" points="140.89 67.26 135.72 54.86 135.72 85.67 144.6 94.55 144.6 86.65 141.75 83.79 141.75 76.15 146.41 83.38 146.41 108.98 150.61 98.4 155.37 93.64 155.37 61.26 149.92 76.29 140.89 67.26"/><polygon class="cls-1" points="212.51 127.88 206.8 120.83 211.14 116.17 208.62 113.06 197.51 113.06 197.51 125 201.35 123.05 201.35 116.17 205.25 116.17 205.62 116.57 201.82 120.12 212.51 127.88"/><path class="cls-1" d="M184.41,113.06l-1.76,3.11h.8V123l1,1.69h10.24l.95-1.69v-8.28l-.95-1.69Zm7.35,8.55h-4.47v-5.44h4.47Z"/><polygon class="cls-1" points="169.96 116.17 174.22 116.17 174.22 125 178.06 123.05 178.06 116.17 180.79 116.17 182.55 113.06 171.72 113.06 169.96 116.17"/><path class="cls-1" d="M158.47,113.06l-1.76,3.11h.81V125l3.84-2v-2.47h4.12V125l3.84-2v-8.3l-.95-1.69Zm7,4.56h-4.12v-1.45h4.12Z"/><path class="cls-1" d="M144.13,113.06l-1.76,3.11h.81v8.55h11.19l.95-1.69v-8.28l-.95-1.69Zm7.35,8.55H147v-5.44h4.46Z"/><polygon class="cls-1" points="140.24 116.17 142 113.06 130.81 113.06 130.81 124.72 139.13 124.72 140.88 121.61 134.65 121.61 134.65 120.58 139.19 120.58 140.95 117.47 134.65 117.47 134.65 116.17 140.24 116.17"/><polygon class="cls-1" points="129.68 116.17 127.16 113.06 116.05 113.06 116.05 125 119.88 123.05 119.88 116.17 123.78 116.17 124.16 116.57 120.36 120.12 131.05 127.88 125.33 120.83 129.68 116.17"/><path class="cls-1" d="M102.43,113.06l-1.76,3.11h.8V125l3.84-2v-2.92l2.81,1.26,7-5.22-2.51-3.11Zm2.88,6.43v-3.32h3.9l.38.4Z"/><g id="Desktop-HD"><g id="logo-witout-ua"><g id="Group-26"><g id="Path"><path id="path-1-2" data-name="path-1" class="cls-7" d="M114.28,231.16H199.5a13,13,0,0,1,13,12.89,12.86,12.86,0,0,1-3.26,8.72,13.08,13.08,0,0,1-9.76,4.41H117c-2.32,0-4.7.16-7-.54a13.07,13.07,0,0,1-8.86-8.91,12.89,12.89,0,0,1,.81-9.25,13.09,13.09,0,0,1,9.48-7.14A18,18,0,0,1,114.28,231.16Z"/></g><g class="cls-8"><g id="Group-24"><path id="Shape" class="cls-9" d="M197.21,237.33a7.28,7.28,0,0,1,8.47,4,7.24,7.24,0,0,1-7,10.24,7.24,7.24,0,0,1-1.51-14.22Z"/><g id="Group-2"><path id="Shape-2" data-name="Shape" class="cls-1" d="M113.83,236.1a8.34,8.34,0,0,1,8.29,3.74,2.1,2.1,0,0,1-2,3.1c-.89.12-1.52-.58-2-1.22a4,4,0,1,0-2.81,6.58c1.42.06,2.5-1,3.39-2a2.12,2.12,0,0,1,3.44,1.42c.16,1.4-1.09,2.38-2,3.19a8.31,8.31,0,1,1-6.31-14.86Z"/><path id="Shape-3" data-name="Shape" class="cls-1" d="M129.8,236.14a8.32,8.32,0,1,1-6.63,10.1A8.35,8.35,0,0,1,129.8,236.14Zm.8,4.25a4,4,0,1,0,4.64,3.59A4,4,0,0,0,130.6,240.39Z"/><path id="Shape-4" data-name="Shape" class="cls-1" d="M140.89,238.1a2.12,2.12,0,0,1,3.36-1.67c1.76,1.62,3.4,3.38,5.11,5,1.63-1.61,3.24-3.27,4.89-4.87a2.1,2.1,0,0,1,2.36-.42,2.31,2.31,0,0,1,1.3,2.17c0,4,0,8.09,0,12.14a2.16,2.16,0,0,1-4.32,0c0-2.37,0-4.75,0-7.13-.93.91-1.84,1.84-2.77,2.75a2.08,2.08,0,0,1-2.68.16c-1.07-.87-1.94-2-3-2.89,0,2.41,0,4.81,0,7.21a2.14,2.14,0,0,1-2.52,2,2.1,2.1,0,0,1-1.73-2.14C140.89,246.35,140.87,242.22,140.89,238.1Z"/><path id="Shape-5" data-name="Shape" class="cls-1" d="M159.67,238.17a2.18,2.18,0,0,1,2.27-2.17h8.61a2.19,2.19,0,0,1,1.91,1.2,2.11,2.11,0,0,1-1.66,3.06c-2.27.06-4.55,0-6.83,0v2.65c1.92,0,3.84,0,5.77,0a2.22,2.22,0,0,1,2.18,2.69,2.18,2.18,0,0,1-2.2,1.65c-1.92,0-3.83,0-5.75,0,0,1.13,0,2.27,0,3.4a2.16,2.16,0,0,1-2.77,1.86,2.71,2.71,0,0,1-1.37-1.13,18.46,18.46,0,0,1-.15-3.64C159.66,244.57,159.64,241.37,159.67,238.17Z"/><path id="Shape-6" data-name="Shape" class="cls-1" d="M173.61,238.38a2.15,2.15,0,0,1,2.65-2.31c1,.28,1.49,1.16,2.18,1.78,1.06,1,2,2.09,3.11,3.07,1.5-1.45,2.93-3,4.44-4.4a2.14,2.14,0,0,1,2.9,3.14c-1.72,1.76-3.49,3.48-5.21,5.24,0,1.86,0,3.73,0,5.6a2.14,2.14,0,1,1-4.27,0c0-1.85,0-3.71,0-5.57-1.39-1.46-2.86-2.84-4.26-4.29C174.53,240,173.64,239.38,173.61,238.38Z"/></g></g></g></g></g></g><path class="cls-10" d="M169.19,284.73c-.26.85-1.49,1.44-3.67,1.75l-5.23.75.14-.43a5,5,0,0,1,1.84-2.88,7.53,7.53,0,0,1,3.88-.76c2.35,0,3.37.52,3,1.57m-29,6.76a25.6,25.6,0,0,1-3.65.2c-2.75,0-4-.56-3.61-1.67.25-.8,1-1.28,2.17-1.44l6.27-.84Zm43.71-10c-.19-.27-.42-.46-1.35-.53-.25,0-1.06-.05-2.42-.05-3.58,0-6,1.09-7.26,3.23.34-2.16-1.76-3.24-6.32-3.24q-8,0-10,6.46a6.07,6.07,0,0,0-.16,3.94l-1.26.09c-1,.07-2.28.14-3.08.14-2,0-3.17-.33-3.64-1s-.38-1.68.11-3.27c.82-2.65,2.84-3.84,6.07-3.84,1.67,0,3.31.18,3.31.18a.38.38,0,0,0,.3-.45l0-.25-.11-.89c-.08-.58-.51-.93-1.3-1s-1.27-.09-2.07-.09h0q-6.33,0-8.83,4.16.91-4.15-5.86-4.16a47.81,47.81,0,0,0-5.42.22,1.61,1.61,0,0,0-1.53,1l-.36,1.14c-.06.21,0,.31.31.31h0c.2,0,1-.1,2.28-.2,1.73-.14,3-.21,3.85-.21q3.74,0,3.15,1.87a.74.74,0,0,1-.57.51q-3.52.58-5.6.84-5.84.75-6.75,3.64c-.83,2.65,1.26,4,6.24,4a39.13,39.13,0,0,0,6.27-.43c1-.16,1.46-.41,1.66-1l.93-2.95c-.1,2.95,2,4.44,6.22,4.44a33.74,33.74,0,0,0,4.4-.2c.87-.16,1.29-.35,1.48-1l.19-.93q1.36,2.12,5.95,2.11a30.46,30.46,0,0,0,5.66-.27,1.1,1.1,0,0,0,.82-.7.58.58,0,0,0,0-.19l.39-1.25c.07-.22,0-.32-.3-.31l-2.07.1c-1.38.07-2.46.11-3.24.11a10.17,10.17,0,0,1-3-.3,1.74,1.74,0,0,1-1.17-1.88l6.55-.84c2.93-.38,4.9-1.28,5.89-2.72L170,293.49a.35.35,0,0,0,0,.35.59.59,0,0,0,.44.14h2.71a.64.64,0,0,0,.7-.45l2.39-8.35c.32-1.09,1.33-1.63,3.09-1.63,1.59,0,2.79,0,3.56,0H183a.57.57,0,0,0,.55-.42L184,282a.59.59,0,0,0,0-.58"/></g></g></svg>