<svg xmlns="http://www.w3.org/2000/svg" viewBox="0 0 131.33 85.75"><defs><style>.cls-1{fill:#fff;}</style></defs><title>Ресурс 5</title><g id="Слой_2" data-name="Слой 2"><g id="about"><polygon class="cls-1" points="77.4 63.55 77.4 33.49 82.88 25.01 82.88 33.97 79.52 37.33 79.52 46.61 89.95 36.19 89.95 0 83.88 14.56 73.27 25.17 66.87 7.51 66.87 45.54 72.47 51.13 77.4 63.55"/><polygon class="cls-1" points="47.23 14.56 41.16 0 41.16 36.19 51.59 46.61 51.59 37.33 48.23 33.97 48.23 25.01 53.71 33.49 53.71 63.55 58.64 51.13 64.24 45.54 64.24 7.51 57.84 25.17 47.23 14.56"/><polygon class="cls-1" points="131.33 85.75 124.62 77.46 129.72 71.99 126.77 68.34 113.72 68.34 113.72 82.37 118.22 80.07 118.22 71.99 122.8 71.99 123.25 72.47 118.78 76.63 131.33 85.75"/><path class="cls-1" d="M98.33,68.34,96.27,72h.94v8.07l1.12,2h12l1.12-2V70.33l-1.12-2Zm8.64,10h-5.25V72H107Z"/><polygon class="cls-1" points="81.37 71.99 86.37 71.99 86.37 82.37 90.88 80.07 90.88 71.99 94.09 71.99 96.15 68.34 83.44 68.34 81.37 71.99"/><path class="cls-1" d="M67.88,68.34,65.81,72h1V82.37l4.5-2.3v-2.9h4.85v5.2l4.51-2.3V70.33l-1.12-2Zm8.23,5.36H71.26V72h4.85Z"/><path class="cls-1" d="M51,68.34,49,72h.94V82H63.06l1.12-2V70.33l-1.12-2Zm8.63,10H54.42V72h5.25Z"/><polygon class="cls-1" points="46.46 71.99 48.53 68.34 35.39 68.34 35.39 82.04 45.16 82.04 47.22 78.39 39.9 78.39 39.9 77.17 45.23 77.17 47.3 73.52 39.9 73.52 39.9 71.99 46.46 71.99"/><polygon class="cls-1" points="34.06 71.99 31.11 68.34 18.05 68.34 18.05 82.37 22.56 80.07 22.56 71.99 27.14 71.99 27.59 72.47 23.12 76.63 35.67 85.75 28.96 77.46 34.06 71.99"/><path class="cls-1" d="M2.07,68.34,0,72H.94V82.37l4.51-2.3V76.65l3.29,1.48L17,72,14,68.34ZM5.45,75.9V72H10l.44.48Z"/></g></g></svg>