<svg xmlns="http://www.w3.org/2000/svg" viewBox="0 0 672.78 323.48"><defs><style>.cls-1{fill:#fff;}.cls-2{fill:none;stroke:#fff;stroke-miterlimit:10;stroke-width:2px;}.cls-3{fill:#44d62c;}</style></defs><title>Ресурс 57</title><g id="Слой_2" data-name="Слой 2"><g id="prize"><path class="cls-1" d="M110.3,293l-8-3.23c.21.08,0,4.2,0,4.5s-.26,4.38,0,4.5l8,3.23c-.21-.09,0-4.2,0-4.5S110.6,293.07,110.3,293Z"/><path class="cls-1" d="M224.75,7.27,223,4.61a10.56,10.56,0,0,0-.74-1.09,9.48,9.48,0,0,1-7.37-1.3,5.85,5.85,0,0,1,.69,1.12c.56.9,1.14,1.79,1.71,2.68L219,8.68a4.82,4.82,0,0,0,.75,1.09,9.46,9.46,0,0,0,7.36,1.31A37.54,37.54,0,0,1,224.75,7.27Z"/><path class="cls-1" d="M163.4,192.54a57.58,57.58,0,0,0-7.45-3.63,34.18,34.18,0,0,1,0,4.5c0,.33-.25,4.38,0,4.5a57.58,57.58,0,0,1,7.45,3.63s0-1.4,0-1.32c0-1.06,0-2.12,0-3.18s0-2.12,0-3.18A7.42,7.42,0,0,0,163.4,192.54Z"/><path class="cls-1" d="M396.25,243.43a25.63,25.63,0,0,1-11.05-6.32c.42.41,0,3.92,0,4.5s-.45,4,0,4.5a25.63,25.63,0,0,0,11.05,6.32c-.13,0,0-4.24,0-4.5S396.48,243.49,396.25,243.43Z"/><path class="cls-1" d="M161.8,251.58a32.5,32.5,0,0,1-7.72-9.64s0,0,0,0c0,.65-1.86,3.54-2.05,3.92s-2.21,3.57-1.95,4a32.36,32.36,0,0,0,7.69,9.67s0,0,0,0C157.66,258.72,162.39,252.08,161.8,251.58Z"/><path class="cls-1" d="M550.31,74.73c.59-.88,1.17-1.76,1.75-2.65l1.74-2.67c0,.06.66-1.12.69-1.12l-6.85-.45a7,7,0,0,0-.74,1.09c-.6.88-1.18,1.76-1.76,2.65l-1.74,2.67c.05-.07-.66,1.12-.69,1.12l6.85.45A7.92,7.92,0,0,0,550.31,74.73Z"/><path class="cls-1" d="M498,65.07a16.21,16.21,0,0,1-7.21-5.56,7.11,7.11,0,0,1,0,1.32c0,1.06,0,2.12,0,3.18s0,2.12,0,3.18a4.92,4.92,0,0,0,0,1.32A16.21,16.21,0,0,0,498,74.07a34.08,34.08,0,0,1,0-4.5C498,69.24,498.29,65.19,498,65.07Z"/><path class="cls-1" d="M538.35,175.38c0-1.06,0-2.12,0-3.19s0-2.12,0-3.18a6.35,6.35,0,0,1,0-1.32,21.63,21.63,0,0,1-6.89,7.25,6.5,6.5,0,0,0,0,1.31c0,1.06,0,2.13,0,3.19s0,2.12,0,3.18c0-.07.07,1.29,0,1.32a21.63,21.63,0,0,0,6.89-7.25A4.83,4.83,0,0,0,538.35,175.38Z"/><path class="cls-1" d="M406.57,178.1a14,14,0,0,1-9.68-7.68,6.37,6.37,0,0,1,0,1.32c0,1.06,0,2.12,0,3.18s0,2.12,0,3.18a4.89,4.89,0,0,0,0,1.32,14,14,0,0,0,9.68,7.68c-.1,0,0-4.25,0-4.5A33.4,33.4,0,0,0,406.57,178.1Z"/><path class="cls-1" d="M321.25,80.45c0-1.06,0-2.12,0-3.18s0-2.12,0-3.19a8,8,0,0,1,0-1.31,8.81,8.81,0,0,1-10,2.51,34.08,34.08,0,0,1,0,4.5c0,.33-.25,4.39,0,4.5a8.81,8.81,0,0,0,10-2.51A5.37,5.37,0,0,0,321.25,80.45Z"/><path class="cls-1" d="M116.75,8.77A13,13,0,0,1,107.35,5a9.17,9.17,0,0,1,0,1.31c0,1.06,0,2.13,0,3.19s0,2.12,0,3.18a5.41,5.41,0,0,0,0,1.32,13,13,0,0,0,9.4,3.78C116.85,17.77,116.79,8.77,116.75,8.77Z"/><path class="cls-1" d="M439.24,4.27A13.76,13.76,0,0,1,430.11,0a8.09,8.09,0,0,1,0,1.32c0,1.06,0,2.12,0,3.18s0,2.12,0,3.18a5.37,5.37,0,0,0,0,1.32,13.76,13.76,0,0,0,9.13,4.27C439.1,13.27,439.51,4.29,439.24,4.27Z"/><path class="cls-1" d="M341.71,38a11.53,11.53,0,0,1-9.49-6,6.37,6.37,0,0,1,0,1.32c0,1.06,0,2.12,0,3.18s0,2.12,0,3.18a4.91,4.91,0,0,0,0,1.32,11.53,11.53,0,0,0,9.49,6C341.6,46.94,342,38,341.71,38Z"/><path class="cls-1" d="M443.6,64c.48-1,.95-1.9,1.42-2.85s.94-1.9,1.4-2.86A6.34,6.34,0,0,1,447,57.1a20.18,20.18,0,0,1-7.16,2.34,6.63,6.63,0,0,0-.62,1.16c-.48.95-.95,1.9-1.42,2.85s-.94,1.9-1.4,2.86c0-.06-.51,1.19-.55,1.2A19.94,19.94,0,0,0,443,65.16,5,5,0,0,0,443.6,64Z"/><path class="cls-1" d="M107.39,217.05c0-1.06,0-2.12,0-3.18s0-2.13,0-3.19a7,7,0,0,1,0-1.31A14.48,14.48,0,0,1,97.81,216c-.64.12.51,8.89,0,9a14.48,14.48,0,0,0,9.55-6.59A4.92,4.92,0,0,0,107.39,217.05Z"/><path class="cls-1" d="M209.58,255a11.49,11.49,0,0,1-8-3,10.84,10.84,0,0,1,0,1.31c0,1.07,0,2.13,0,3.19s0,2.12,0,3.18a6,6,0,0,0,0,1.32,11.49,11.49,0,0,0,8,3C209.69,264,209.6,255,209.58,255Z"/><path class="cls-1" d="M535.53,131q-4.24-1.84-8.33-4c.27.15-.05,4.15-.05,4.5s-.32,4.31.05,4.5q4.08,2.19,8.33,4c-.22-.09.05-4.18.05-4.5S535.85,131.14,535.53,131Z"/><path class="cls-1" d="M233.06,171.71c-2.84-1.24-5.61-2.58-8.34-4,.28.14,0,4.14,0,4.5s-.32,4.3,0,4.5c2.73,1.46,5.5,2.8,8.34,4-.22-.1,0-4.19,0-4.5S233.38,171.85,233.06,171.71Z"/><path class="cls-1" d="M541.64,24.49c0-1.06,0-2.13,0-3.19s0-2.12,0-3.18a11.09,11.09,0,0,1,0-1.32l-6.91,5.72a6.59,6.59,0,0,0,0,1.32c0,1.06,0,2.12,0,3.18s0,2.12,0,3.18a11.2,11.2,0,0,1,0,1.32l6.91-5.72A6.5,6.5,0,0,0,541.64,24.49Z"/><path class="cls-1" d="M203,39.68l-5.81-4.26s0,1.38,0,1.32c0,1.06,0,2.12,0,3.18s0,2.12,0,3.18a6.58,6.58,0,0,0,0,1.32L203,48.68s0-1.37,0-1.32c0-1.06,0-2.12,0-3.18s0-2.12,0-3.18A6.59,6.59,0,0,0,203,39.68Z"/><path class="cls-1" d="M425.55,162.76a22.62,22.62,0,0,0-7.33.68c-.22.06,0,4.22,0,4.5s.16,4.47,0,4.5a22.62,22.62,0,0,1,7.33-.68C425.41,171.75,425.82,162.78,425.55,162.76Z"/><path class="cls-1" d="M253,47.49A12.66,12.66,0,0,1,240,43.2c.46.56,0,3.79,0,4.5s-.47,3.86,0,4.5A12.66,12.66,0,0,0,253,56.49C253.78,56.29,252.34,47.66,253,47.49Z"/><path class="cls-1" d="M488.61,158a10.48,10.48,0,0,1-8.82-3.94,7.11,7.11,0,0,1,0,1.32c0,1.06,0,2.12,0,3.18s0,2.12,0,3.18a5.36,5.36,0,0,0,0,1.32,10.48,10.48,0,0,0,8.82,3.94C488.83,167,488.52,158,488.61,158Z"/><path class="cls-1" d="M396.82,73.36a13,13,0,0,1-8.12-5.93,4.91,4.91,0,0,1,0,1c0,.83,0,1.65,0,2.48s0,1.65,0,2.47a4,4,0,0,0,0,1,13,13,0,0,0,8.12,5.93c-.08,0,0-3.3,0-3.5A23.73,23.73,0,0,0,396.82,73.36Z"/><path class="cls-1" d="M286.16,247.28a31.87,31.87,0,0,1,0-3.5l-8,2.68c-.21.07,0,3.26,0,3.5a34.6,34.6,0,0,1,0,3.5l8-2.68C286.33,250.71,286.16,247.52,286.16,247.28Z"/><path class="cls-1" d="M483.51,218.15a9.93,9.93,0,0,1-6.76-5.24,5,5,0,0,1,0,1c0,.82,0,1.65,0,2.47s0,1.65,0,2.48a3.52,3.52,0,0,0,0,1,9.93,9.93,0,0,0,6.76,5.24c-.08,0,0-3.3,0-3.5A27,27,0,0,0,483.51,218.15Z"/><path class="cls-1" d="M110.83,90.93h36.4l8.05,7.35v11.2L150,114l6.65,6v12.6l-8.05,7.35h-38.5V128h29.4l1.75-1.75v-3.15l-3.15-2.8h-16.8v-11.2h15.4l3.15-2.8v-1.75l-1.75-1.75h-27.3Z"/><path class="cls-1" d="M203.3,90.23l9.8,9.1v32.2l-9.8,9.1H173.2l-9.8-9.1V99.33l9.8-9.1Zm-24.5,14v22.4l2.1,2.1h14.7l2.1-2.1v-22.4l-2.1-2.1H180.9Z"/><path class="cls-1" d="M260.84,90.23l9.8,9.1v32.2l-9.8,9.1h-30.1l-9.8-9.1V99.33l9.8-9.1Zm-24.5,14v22.4l2.1,2.1h14.7l2.1-2.1v-22.4l-2.1-2.1h-14.7Z"/><path class="cls-1" d="M278.12,139.93V128h14v11.9Z"/><path class="cls-1" d="M339.52,90.23l9.8,9.1v32.2l-9.8,9.1H309.41l-9.8-9.1V99.33l9.8-9.1Zm-24.5,14v22.4l2.1,2.1h14.7l2.1-2.1v-22.4l-2.1-2.1h-14.7Z"/><path class="cls-1" d="M397.06,90.23l9.8,9.1v32.2l-9.8,9.1H367l-9.8-9.1V99.33l9.8-9.1Zm-24.51,14v22.4l2.1,2.1h14.71l2.1-2.1v-22.4l-2.1-2.1H374.65Z"/><path class="cls-1" d="M454.6,90.23l9.8,9.1v32.2l-9.8,9.1H424.49l-9.8-9.1V99.33l9.8-9.1Zm-24.51,14v22.4l2.1,2.1H446.9l2.1-2.1v-22.4l-2.1-2.1H432.19Z"/><path class="cls-1" d="M494.56,113.33V107h26.6l3.15-2.8v-1.4l-3.85-3.5H503.31v-8.4H525l9.1,8.4v6.3l-1.4,1.4h7.36v6.3Zm45.51,4.2v6.3H513.46l-3.15,2.8V128l3.85,3.5h19.25v8.4h-23.8l-9.1-8.4v-6.3l1.4-1.4h-7.35v-6.3Z"/><polygon class="cls-1" points="571.63 108.22 569.78 114.45 638.19 125.48 647.12 101.91 571.63 108.22"/><polygon class="cls-1" points="570.31 83.42 574.46 87.88 672.78 42.45 663.44 25.23 570.31 83.42"/><polygon class="cls-1" points="559.78 147.12 561.85 144.94 624.78 160.79 617.53 175.72 559.78 147.12"/><polygon class="cls-1" points="86.28 119.45 88.51 110 3 92.02 0 120.02 86.28 119.45"/><polygon class="cls-1" points="108.09 153.7 103.75 149.65 15.8 194.3 26.28 210.56 108.09 153.7"/><polygon class="cls-1" points="108.06 75.95 103.72 79.99 36 52.52 46.5 36.27 108.06 75.95"/><path class="cls-1" d="M256.55,189.78v3.6l-2.3,2.1H243.94v-2.4h9l.81-.7v-1.9l-1.11-1h-5.7v-2.4h5.5l1.1-1v-1.5l-.8-.7h-8.6v-2.4H254l2.31,2.1v3.2l-1.6,1.4Z"/><path class="cls-1" d="M262.14,195.48h-2.8v-14h2.8v5.8h7.4v-5.8h2.81v14h-2.81v-5.8h-7.4Z"/><path class="cls-1" d="M286.14,185.88l-7.8,9.6h-2.6v-14h2.8v9.6l7.81-9.6H289v14h-2.81Z"/><path class="cls-1" d="M300.74,189.68h-2.3l-4.4,5.8h-3.4l5.5-7.2-5.1-6.8h3.4l4.3,5.8h2v-5.8h2.8v5.8h2l4.3-5.8h3.4l-5.1,6.8,5.5,7.2h-3.4l-4.4-5.8h-2.31v5.8h-2.8Z"/><path class="cls-1" d="M325.75,181.28l2.8,2.6v9.2l-2.8,2.6h-8.11l-2.8-2.6v-9.2l2.8-2.6Zm-8.11,3.6v7.2l1.3,1.2h5.5l1.31-1.2v-7.2l-1.31-1.2h-5.5Z"/><path class="cls-1" d="M334.44,195.48h-2.8v-14h2.8v5.8h2.4l4.3-5.8h3.41l-5.11,6.8,5.51,7.2h-3.41l-4.4-5.8h-2.7Z"/><path class="cls-1" d="M366.35,189.88v3.5l-2.31,2.1H353v-14h10.3l2.3,2.1v3.3l-1.3,1.1Zm-4.31-6h-6.2v3.3h5.9l1.1-1v-1.6Zm1.5,8.5v-1.8l-1.1-1h-6.6v3.5h6.9Z"/><path class="cls-1" d="M368.44,195.48v-2.4h2.8v-9.2h-2.8v-2.4h8.4v2.4H374v9.2h2.8v2.4Z"/><path class="cls-1" d="M379,193.08l1.9-1.8.8-9.8h10.51v11.6h1.9v5.4h-2.81v-3h-10.4v3h-2.8v-5.4Zm3.4,0h7v-9.2h-5l-.7,8Z"/><path class="cls-1" d="M206.7,219.48h-9.41l-2.8-2.6v-8.8l2.8-2.6h9.41v2.4h-8.11l-1.3,1.2v6.8l1.3,1.2h8.11Z"/><path class="cls-1" d="M219.9,205.28l2.8,2.6v9.2l-2.8,2.6h-8.11l-2.8-2.6v-9.2l2.8-2.6Zm-8.11,3.6v7.2l1.3,1.2h5.51l1.3-1.2v-7.2l-1.3-1.2h-5.51Z"/><path class="cls-1" d="M228.59,210.28v9.2h-2.8v-14h2.8l5.3,7.6,5.31-7.6H242v14h-2.8v-9.2l-4.31,6h-2Z"/><path class="cls-1" d="M257.4,205.48v2.4h-9.21v3.8h7v2.4h-7v5.4h-2.8v-14Z"/><path class="cls-1" d="M263.79,214.88l-6.1-9.4h3.2l4.3,6.6,4.31-6.6h3.2l-6.11,9.4v4.6h-2.8Z"/><path class="cls-1" d="M283.29,219.48v-11.6h-5.2v-2.4H291.3v2.4h-5.21v11.6Z"/><path class="cls-1" d="M302.19,215.78h-6.6l-1.6,3.7h-3.1l6.2-14h3.6l6.21,14h-3.1Zm-5.5-2.4h4.4l-2.2-5.1Z"/><path class="cls-1" d="M317.79,215.28v4.2H315v-14h10.3l2.6,2.4v5l-2.6,2.4Zm6.2-7.4h-6.2v5H324l1.1-1v-3Z"/><path class="cls-1" d="M333.29,214.88v4.6h-2.8v-14h10.1l2.61,2.4v4.6l-2.41,2.3,3.41,4.7h-3.31l-3.3-4.6Zm6-7h-6v4.6h6l1.1-1v-2.6Z"/><path class="cls-1" d="M358.39,205.48v2.4h-9.2v3.4h7v2.4h-7v3.4h9.4v2.4h-12.2v-14Z"/><path class="cls-1" d="M361,205.48h10.4l2.81,2.6v8.8l-2.81,2.6H361Zm9.1,11.6,1.3-1.2v-6.8l-1.3-1.2h-6.3v9.2Z"/><path class="cls-1" d="M386.69,215.78h-6.6l-1.6,3.7h-3.1l6.2-14h3.6l6.2,14h-3.1Zm-5.5-2.4h4.4l-2.2-5.1Z"/><path class="cls-1" d="M395.79,219.48v-11.6h-5.2v-2.4h13.2v2.4h-5.2v11.6Z"/><path class="cls-1" d="M416.09,205.28l2.8,2.6v9.2l-2.8,2.6H408l-2.8-2.6v-9.2l2.8-2.6Zm-8.1,3.6v7.2l1.3,1.2h5.5l1.3-1.2v-7.2l-1.3-1.2h-5.5Z"/><path class="cls-1" d="M424.79,214.88v4.6H422v-14h10.1l2.61,2.4v4.6l-2.41,2.3,3.41,4.7h-3.31l-3.3-4.6Zm6-7h-6v4.6h6l1.1-1v-2.6Z"/><path class="cls-1" d="M440.59,211.68l-.5,3.4h-1.8l-.5-3.4v-6.2h2.8Zm-2.8,7.8v-2.7h2.8v2.7Z"/><path class="cls-1" d="M447.79,207.18l1.8-1,1,1.7-2,1.1,2,1.1-1,1.7-1.8-1v1.9h-2v-1.9l-1.8,1-1-1.7,2-1.1-2-1.1,1-1.7,1.8,1v-1.9h2Z"/><line class="cls-2" x1="439.45" y1="227.45" x2="194.45" y2="227.45"/><path class="cls-1" d="M204.8,292.48h-7.21l-1.8,4h-2.1l6.5-14h2l6.51,14h-2.1Zm-6.51-1.6h5.81l-2.91-6.3Z"/><path class="cls-1" d="M220.39,296.48v-12.4h-5.3v-1.6H227.6v1.6h-5.31v12.4Z"/><path class="cls-1" d="M238.5,292.48h-7.21l-1.8,4h-2.1l6.5-14h2l6.51,14h-2.1Zm-6.51-1.6h5.8l-2.9-6.3Z"/><path class="cls-1" d="M246.49,296.48h-1.9v-14h1.9v6.2H250l4.51-6.2h2.2l-5.11,6.8,5.51,7.2h-2.2l-4.71-6.2h-3.7Z"/><path class="cls-1" d="M268.7,282.28l2.8,2.6v9.2l-2.8,2.6h-7.51l-2.8-2.6v-9.2l2.8-2.6Zm-8.41,3.2v8l1.7,1.6h5.91l1.7-1.6v-8l-1.7-1.6H262Z"/><path class="cls-1" d="M283.19,296.48v-6.2h-3.1l-4.7,6.2h-2.2l5.5-7.2-5.1-6.8h2.2l4.5,6.2h2.9v-6.2h1.9v6.2H288l4.5-6.2h2.2l-5.1,6.8,5.5,7.2h-2.2l-4.7-6.2h-3.11v6.2Z"/><path class="cls-1" d="M297.31,296.48h-.92v-2.2h2.1v2.2l-1.3,2-.8-.5Z"/><path class="cls-1" d="M319.39,296.48h-8.9l-2.8-2.6v-8.8l2.8-2.6h8.9v1.6h-8.1l-1.7,1.6v7.6l1.7,1.6h8.1Z"/><path class="cls-1" d="M334.89,282.48v14H333v-12.4h-8.7v12.4h-1.9v-14Z"/><path class="cls-1" d="M350.5,282.48v1.6h-9.71v4.6h7.5v1.6h-7.5v4.6h9.9v1.6h-11.8v-14Z"/><path class="cls-1" d="M365.39,294.88h1.9v4.6h-1.9v-3h-11.9v-14h1.9v12.4h8.1v-12.4h1.9Z"/><path class="cls-1" d="M369.19,296.48v-1.6H372v-10.8h-2.8v-1.6h7.5v1.6h-2.8v10.8h2.8v1.6Z"/><path class="cls-1" d="M389.19,292.48H382l-1.8,4h-2.1l6.5-14h2l6.5,14H391Zm-6.5-1.6h5.8l-2.9-6.3Z"/><path class="cls-1" d="M397.19,282.48h10.3v14h-1.9v-12.4H399l-.72,10-2.8,2.6h-2v-1.6h1.2l1.7-1.6Z"/><path class="cls-1" d="M413.39,282.48v5.2H421l2.6,2.4v4l-2.6,2.4h-9.5v-14Zm8.3,11v-2.8l-1.5-1.4h-6.8v5.6h6.8Z"/><path class="cls-1" d="M428.49,296.48h-1.9v-14h1.9v6.2h8.7v-6.2h1.9v14h-1.9v-6.2h-8.7Z"/><path class="cls-1" d="M442.29,296.48v-1.6h2.8v-10.8h-2.8v-1.6h7.5v1.6H447v10.8h2.8v1.6Z"/><path class="cls-1" d="M193.1,306.48v14h-1.9v-12.4h-8.7v12.4h-1.91v-14Z"/><path class="cls-1" d="M207,306.28l2.8,2.6v9.2l-2.8,2.6h-7.5l-2.81-2.6v-9.2l2.81-2.6Zm-8.4,3.2v8l1.7,1.6h5.9l1.7-1.6v-8l-1.7-1.6h-5.9Z"/><path class="cls-1" d="M212.39,318.88l1.9-1.9.8-10.5H225.2v12.4h1.9v4.6h-1.9v-3h-12v3h-1.9v-4.6Zm2.4,0h8.51v-10.8h-6.41l-.7,9.5Z"/><path class="cls-1" d="M239.1,316.48h-7.21l-1.8,4H228l6.51-14h2l6.5,14h-2.1Zm-6.51-1.6h5.81l-2.9-6.3Z"/><path class="cls-1" d="M247.09,315.88v4.6h-1.9v-14h9.71l2.7,2.5v4.4l-2.7,2.5Zm7-7.8h-7v6.2h7l1.6-1.5v-3.2Z"/><path class="cls-1" d="M273.2,306.48l-7.7,14h-2l2-3.7h-.61l-6-10.3H261c1.62,2.68,3,5.38,5.2,9l5-9Z"/><path class="cls-1" d="M277.19,320.48h-1.9v-14h1.9v6.2h8.71v-6.2h1.9v14h-1.9v-6.2h-8.71Z"/><path class="cls-1" d="M293.69,320.48h-1.9v-14h1.9v6.2h3.5l4.51-6.2h2.2l-5.1,6.8,5.5,7.2h-2.2l-4.71-6.2h-3.7Z"/><path class="cls-1" d="M317.1,320.48v-11.1l-9,11.1h-1.7v-14h1.9v11.1l9-11.1H319v14Z"/><path class="cls-1" d="M342.1,314.88v3.5l-2.3,2.1H329.39v-14h9.71l2.3,2.1v3.3l-1.3,1.2Zm-3.81-6.8h-7v4.4h6.9l1.31-1.2v-2.1Zm1.91,9.7v-2.3l-1.51-1.4h-7.4v4.8H339Z"/><path class="cls-1" d="M344.59,320.48v-1.6h2.8v-10.8h-2.8v-1.6h7.5v1.6h-2.8v10.8h2.8v1.6Z"/><path class="cls-1" d="M354.49,318.88l1.9-1.9.8-10.5H367.3v12.4h1.9v4.6h-1.9v-3h-12v3h-1.9v-4.6Zm2.4,0h8.5v-10.8H359l-.7,9.5Z"/><polygon class="cls-3" points="429.46 318.84 422.38 318.84 428.57 307.77 429.46 306.22 427.69 306.22 419.5 306.22 419.5 307.77 426.8 307.77 420.38 318.84 419.5 320.39 421.27 320.39 428.57 320.39 429.46 318.84"/><polygon class="cls-3" points="449.17 306.22 439.2 306.22 439.2 307.77 448.29 307.77 449.17 306.22"/><polygon class="cls-3" points="449.17 312.42 439.2 312.42 439.2 313.97 448.29 313.97 449.17 312.42"/><polygon class="cls-3" points="449.17 318.84 439.2 318.84 439.2 320.39 448.29 320.39 449.17 318.84"/><path class="cls-3" d="M468.88,310.65v-.89a3.5,3.5,0,0,0-3.54-3.54h-6.43v13.95h1.56V314h2.87l3.55,6.2h1.77l-3.54-6.2h.22A3.45,3.45,0,0,0,468.88,310.65Zm-8.41-2.88h4.87a2,2,0,0,1,2,2v.89a2,2,0,0,1-2,2h-4.87Z"/><path class="cls-3" d="M390,310.65v-.89a3.5,3.5,0,0,0-3.54-3.54h-6.42v13.95h1.55V314h2.88l3.54,6.2h1.77L386.5,314h.22A3.4,3.4,0,0,0,390,310.65Zm-8.41-2.88h4.87a2,2,0,0,1,2,2v.89a2,2,0,0,1-2,2h-4.87Z"/><polygon class="cls-3" points="400.67 320.39 404.88 310.43 408.87 320.39 410.42 320.39 405.54 308.21 404.88 306.22 403.99 308.21 399.12 320.39 400.67 320.39"/><polygon class="cls-3" points="469.77 306.88 469.77 306.44 471.98 306.44 471.98 306.88 471.1 306.88 471.1 309.32 470.65 309.32 470.65 306.88 469.77 306.88"/><polygon class="cls-3" points="472.64 309.32 472.64 306.44 473.31 306.44 474.19 308.87 474.86 306.44 475.52 306.44 475.52 309.32 475.3 309.32 475.3 306.88 475.08 306.88 474.19 309.32 473.97 309.32 473.09 306.88 473.09 306.88 473.09 309.32 472.64 309.32"/></g></g></svg>