<svg xmlns="http://www.w3.org/2000/svg" viewBox="0 0 672.78 301.95"><defs><style>.cls-1{fill:#fff;}</style></defs><title>Ресурс 53</title><g id="Слой_2" data-name="Слой 2"><g id="prize"><path class="cls-1" d="M110.3,293l-8-3.23c.21.08,0,4.2,0,4.5s-.26,4.38,0,4.5l8,3.23c-.21-.09,0-4.2,0-4.5S110.6,293.07,110.3,293Z"/><path class="cls-1" d="M224.75,7.27,223,4.61a10.56,10.56,0,0,0-.74-1.09,9.48,9.48,0,0,1-7.37-1.3,5.85,5.85,0,0,1,.69,1.12c.56.9,1.14,1.79,1.71,2.68L219,8.68a4.82,4.82,0,0,0,.75,1.09,9.46,9.46,0,0,0,7.36,1.31A37.54,37.54,0,0,1,224.75,7.27Z"/><path class="cls-1" d="M163.4,192.54a57.58,57.58,0,0,0-7.45-3.63,34.18,34.18,0,0,1,0,4.5c0,.33-.25,4.38,0,4.5a57.58,57.58,0,0,1,7.45,3.63s0-1.4,0-1.32c0-1.06,0-2.12,0-3.18s0-2.12,0-3.18A7.42,7.42,0,0,0,163.4,192.54Z"/><path class="cls-1" d="M396.25,243.43a25.63,25.63,0,0,1-11.05-6.32c.42.41,0,3.92,0,4.5s-.45,4,0,4.5a25.63,25.63,0,0,0,11.05,6.32c-.13,0,0-4.24,0-4.5S396.48,243.49,396.25,243.43Z"/><path class="cls-1" d="M161.8,251.58a32.5,32.5,0,0,1-7.72-9.64s0,0,0,0c0,.65-1.86,3.54-2.05,3.92s-2.21,3.57-1.95,4a32.36,32.36,0,0,0,7.69,9.67s0,0,0,0C157.66,258.72,162.39,252.08,161.8,251.58Z"/><path class="cls-1" d="M550.31,74.73c.59-.88,1.17-1.76,1.75-2.65l1.74-2.67c0,.06.66-1.12.69-1.12l-6.85-.45a7,7,0,0,0-.74,1.09c-.6.88-1.18,1.76-1.76,2.65l-1.74,2.67c.05-.07-.66,1.12-.69,1.12l6.85.45A7.92,7.92,0,0,0,550.31,74.73Z"/><path class="cls-1" d="M498,65.07a16.21,16.21,0,0,1-7.21-5.56,7.11,7.11,0,0,1,0,1.32c0,1.06,0,2.12,0,3.18s0,2.12,0,3.18a4.92,4.92,0,0,0,0,1.32A16.21,16.21,0,0,0,498,74.07a34.08,34.08,0,0,1,0-4.5C498,69.24,498.29,65.19,498,65.07Z"/><path class="cls-1" d="M538.35,175.38c0-1.06,0-2.12,0-3.19s0-2.12,0-3.18a6.35,6.35,0,0,1,0-1.32,21.63,21.63,0,0,1-6.89,7.25,6.5,6.5,0,0,0,0,1.31c0,1.06,0,2.13,0,3.19s0,2.12,0,3.18c0-.07.07,1.29,0,1.32a21.63,21.63,0,0,0,6.89-7.25A4.83,4.83,0,0,0,538.35,175.38Z"/><path class="cls-1" d="M406.57,178.1a14,14,0,0,1-9.68-7.68,6.37,6.37,0,0,1,0,1.32c0,1.06,0,2.12,0,3.18s0,2.12,0,3.18a4.89,4.89,0,0,0,0,1.32,14,14,0,0,0,9.68,7.68c-.1,0,0-4.25,0-4.5A33.4,33.4,0,0,0,406.57,178.1Z"/><path class="cls-1" d="M321.25,80.45c0-1.06,0-2.12,0-3.18s0-2.12,0-3.19a8,8,0,0,1,0-1.31,8.81,8.81,0,0,1-10,2.51,34.08,34.08,0,0,1,0,4.5c0,.33-.25,4.39,0,4.5a8.81,8.81,0,0,0,10-2.51A5.37,5.37,0,0,0,321.25,80.45Z"/><path class="cls-1" d="M116.75,8.77A13,13,0,0,1,107.35,5a9.17,9.17,0,0,1,0,1.31c0,1.06,0,2.13,0,3.19s0,2.12,0,3.18a5.41,5.41,0,0,0,0,1.32,13,13,0,0,0,9.4,3.78C116.85,17.77,116.79,8.77,116.75,8.77Z"/><path class="cls-1" d="M439.24,4.27A13.76,13.76,0,0,1,430.11,0a8.09,8.09,0,0,1,0,1.32c0,1.06,0,2.12,0,3.18s0,2.12,0,3.18a5.37,5.37,0,0,0,0,1.32,13.76,13.76,0,0,0,9.13,4.27C439.1,13.27,439.51,4.29,439.24,4.27Z"/><path class="cls-1" d="M341.71,38a11.53,11.53,0,0,1-9.49-6,6.37,6.37,0,0,1,0,1.32c0,1.06,0,2.12,0,3.18s0,2.12,0,3.18a4.91,4.91,0,0,0,0,1.32,11.53,11.53,0,0,0,9.49,6C341.6,46.94,342,38,341.71,38Z"/><path class="cls-1" d="M443.6,64c.48-1,.95-1.9,1.42-2.85s.94-1.9,1.4-2.86A6.34,6.34,0,0,1,447,57.1a20.18,20.18,0,0,1-7.16,2.34,6.63,6.63,0,0,0-.62,1.16c-.48.95-.95,1.9-1.42,2.85s-.94,1.9-1.4,2.86c0-.06-.51,1.19-.55,1.2A19.94,19.94,0,0,0,443,65.16,5,5,0,0,0,443.6,64Z"/><path class="cls-1" d="M107.39,217.05c0-1.06,0-2.12,0-3.18s0-2.13,0-3.19a7,7,0,0,1,0-1.31A14.48,14.48,0,0,1,97.81,216c-.64.12.51,8.89,0,9a14.48,14.48,0,0,0,9.55-6.59A4.92,4.92,0,0,0,107.39,217.05Z"/><path class="cls-1" d="M209.58,255a11.49,11.49,0,0,1-8-3,10.84,10.84,0,0,1,0,1.31c0,1.07,0,2.13,0,3.19s0,2.12,0,3.18a6,6,0,0,0,0,1.32,11.49,11.49,0,0,0,8,3C209.69,264,209.6,255,209.58,255Z"/><path class="cls-1" d="M535.53,131q-4.24-1.84-8.33-4c.27.15-.05,4.15-.05,4.5s-.32,4.31.05,4.5q4.08,2.19,8.33,4c-.22-.09.05-4.18.05-4.5S535.85,131.14,535.53,131Z"/><path class="cls-1" d="M233.06,171.71c-2.84-1.24-5.61-2.58-8.34-4,.28.14,0,4.14,0,4.5s-.32,4.3,0,4.5c2.73,1.46,5.5,2.8,8.34,4-.22-.1,0-4.19,0-4.5S233.38,171.85,233.06,171.71Z"/><path class="cls-1" d="M541.64,24.49c0-1.06,0-2.13,0-3.19s0-2.12,0-3.18a11.09,11.09,0,0,1,0-1.32l-6.91,5.72a6.59,6.59,0,0,0,0,1.32c0,1.06,0,2.12,0,3.18s0,2.12,0,3.18a11.2,11.2,0,0,1,0,1.32l6.91-5.72A6.5,6.5,0,0,0,541.64,24.49Z"/><path class="cls-1" d="M203,39.68l-5.81-4.26s0,1.38,0,1.32c0,1.06,0,2.12,0,3.18s0,2.12,0,3.18a6.58,6.58,0,0,0,0,1.32L203,48.68s0-1.37,0-1.32c0-1.06,0-2.12,0-3.18s0-2.12,0-3.18A6.59,6.59,0,0,0,203,39.68Z"/><path class="cls-1" d="M425.55,162.76a22.62,22.62,0,0,0-7.33.68c-.22.06,0,4.22,0,4.5s.16,4.47,0,4.5a22.62,22.62,0,0,1,7.33-.68C425.41,171.75,425.82,162.78,425.55,162.76Z"/><path class="cls-1" d="M253,47.49A12.66,12.66,0,0,1,240,43.2c.46.56,0,3.79,0,4.5s-.47,3.86,0,4.5A12.66,12.66,0,0,0,253,56.49C253.78,56.29,252.34,47.66,253,47.49Z"/><path class="cls-1" d="M488.61,158a10.48,10.48,0,0,1-8.82-3.94,7.11,7.11,0,0,1,0,1.32c0,1.06,0,2.12,0,3.18s0,2.12,0,3.18a5.36,5.36,0,0,0,0,1.32,10.48,10.48,0,0,0,8.82,3.94C488.83,167,488.52,158,488.61,158Z"/><path class="cls-1" d="M396.82,73.36a13,13,0,0,1-8.12-5.93,4.91,4.91,0,0,1,0,1c0,.83,0,1.65,0,2.48s0,1.65,0,2.47a4,4,0,0,0,0,1,13,13,0,0,0,8.12,5.93c-.08,0,0-3.3,0-3.5A23.73,23.73,0,0,0,396.82,73.36Z"/><path class="cls-1" d="M286.16,247.28a31.87,31.87,0,0,1,0-3.5l-8,2.68c-.21.07,0,3.26,0,3.5a34.6,34.6,0,0,1,0,3.5l8-2.68C286.33,250.71,286.16,247.52,286.16,247.28Z"/><path class="cls-1" d="M483.51,218.15a9.93,9.93,0,0,1-6.76-5.24,5,5,0,0,1,0,1c0,.82,0,1.65,0,2.47s0,1.65,0,2.48a3.52,3.52,0,0,0,0,1,9.93,9.93,0,0,0,6.76,5.24c-.08,0,0-3.3,0-3.5A27,27,0,0,0,483.51,218.15Z"/><path class="cls-1" d="M110.83,90.93h36.4l8.05,7.35v11.2L150,114l6.65,6v12.6l-8.05,7.35h-38.5V128h29.4l1.75-1.75v-3.15l-3.15-2.8h-16.8v-11.2h15.4l3.15-2.8v-1.75l-1.75-1.75h-27.3Z"/><path class="cls-1" d="M203.3,90.23l9.8,9.1v32.2l-9.8,9.1H173.2l-9.8-9.1V99.33l9.8-9.1Zm-24.5,14v22.4l2.1,2.1h14.7l2.1-2.1v-22.4l-2.1-2.1H180.9Z"/><path class="cls-1" d="M260.84,90.23l9.8,9.1v32.2l-9.8,9.1h-30.1l-9.8-9.1V99.33l9.8-9.1Zm-24.5,14v22.4l2.1,2.1h14.7l2.1-2.1v-22.4l-2.1-2.1h-14.7Z"/><path class="cls-1" d="M278.12,139.93V128h14v11.9Z"/><path class="cls-1" d="M339.52,90.23l9.8,9.1v32.2l-9.8,9.1H309.41l-9.8-9.1V99.33l9.8-9.1Zm-24.5,14v22.4l2.1,2.1h14.7l2.1-2.1v-22.4l-2.1-2.1h-14.7Z"/><path class="cls-1" d="M397.06,90.23l9.8,9.1v32.2l-9.8,9.1H367l-9.8-9.1V99.33l9.8-9.1Zm-24.51,14v22.4l2.1,2.1h14.71l2.1-2.1v-22.4l-2.1-2.1H374.65Z"/><path class="cls-1" d="M454.6,90.23l9.8,9.1v32.2l-9.8,9.1H424.49l-9.8-9.1V99.33l9.8-9.1Zm-24.51,14v22.4l2.1,2.1H446.9l2.1-2.1v-22.4l-2.1-2.1H432.19Z"/><path class="cls-1" d="M494.56,113.33V107h26.6l3.15-2.8v-1.4l-3.85-3.5H503.31v-8.4H525l9.1,8.4v6.3l-1.4,1.4h7.36v6.3Zm45.51,4.2v6.3H513.46l-3.15,2.8V128l3.85,3.5h19.25v8.4h-23.8l-9.1-8.4v-6.3l1.4-1.4h-7.35v-6.3Z"/><polygon class="cls-1" points="571.63 108.22 569.78 114.45 638.19 125.48 647.12 101.91 571.63 108.22"/><polygon class="cls-1" points="570.31 83.42 574.46 87.88 672.78 42.45 663.44 25.23 570.31 83.42"/><polygon class="cls-1" points="559.78 147.12 561.85 144.94 624.78 160.79 617.53 175.72 559.78 147.12"/><polygon class="cls-1" points="86.28 119.45 88.51 110 3 92.02 0 120.02 86.28 119.45"/><polygon class="cls-1" points="108.09 153.7 103.75 149.65 15.8 194.3 26.28 210.56 108.09 153.7"/><polygon class="cls-1" points="108.06 75.95 103.72 79.99 36 52.52 46.5 36.27 108.06 75.95"/></g></g></svg>