<svg xmlns="http://www.w3.org/2000/svg" viewBox="0 0 155.38 201.26"><defs><style>.cls-1{fill:#fff;}</style></defs><title>Ресурс 11</title><g id="Слой_2" data-name="Слой 2"><g id="playing"><path class="cls-1" d="M20.54,1.25h.26c.55.07,1.12,0,1.68.05a1.66,1.66,0,0,0,.62-.08h.29a6.5,6.5,0,0,0,1,.05c.68.08,1.36,0,2,0,.3,0,.56.21.85.26s.46-.21.71-.13a5.17,5.17,0,0,0,1.47,0,2.37,2.37,0,0,1,1.15-.13c.54.18,1.14-.15,1.67.13a4.42,4.42,0,0,1,1.88-.2,5.48,5.48,0,0,1,.56.1,23.63,23.63,0,0,1,2.38-.05,2.44,2.44,0,0,0,1,0c.57,0,1.14.05,1.72,0s.94-.2,1.38,0a3.68,3.68,0,0,1,1.28-.08,10.33,10.33,0,0,1,1.76-.08L44.34,1a1.21,1.21,0,0,0,0,.19,4.5,4.5,0,0,0,1.46-.1,3.36,3.36,0,0,0,1.34,0,3,3,0,0,0,1.12-.09c.37.14.77.07,1.14.2a6.82,6.82,0,0,1,1.75-.12,2,2,0,0,0,.69-.07l.31.15a1.69,1.69,0,0,1,.55-.05c0,.2,0,.41,0,.61l-.35-.27a.8.8,0,0,1-.19.35l.24.11.88-.08V1.76a1.24,1.24,0,0,1-.53-.37c.14-.11.25-.3.46-.29a4.83,4.83,0,0,1,1.47.07C55.81.84,57,1.17,58.1,1c.77,0,1.54,0,2.31,0a5,5,0,0,1,1.88.1A4.18,4.18,0,0,1,63.74.92c.18,0,.27.15.39.24A.6.6,0,0,1,64.82,1a1.36,1.36,0,0,1,.33-.14,19.67,19.67,0,0,1,2.43.1c.37-.13.78-.09,1.14-.24A2.7,2.7,0,0,0,69.85.8,3.07,3.07,0,0,0,71,.77c.34-.09.68.1,1,.08l.59,0a.5.5,0,0,1,0-.12c.55.12,1.12,0,1.68.06.32.05.63-.06.94,0a5.42,5.42,0,0,1,.58.06A1.07,1.07,0,0,1,76.44.7c1,.16,2-.13,3.06,0a16.12,16.12,0,0,1,2.78,0,3.68,3.68,0,0,0,.54-.16c0,.06,0,.19,0,.25L83,.57c.06.08.12.15.17.23.42.15.84.51,1.3.31C85.13.87,85.8.38,86.56.56a7,7,0,0,0,1.89,0,7.75,7.75,0,0,0,1.18,0,1.92,1.92,0,0,0-.06.92l.16.09L89.64,1l.2-.05L89.69.67a2.21,2.21,0,0,1,1-.1c.67,0,1.35,0,2-.1a7.26,7.26,0,0,0,1.4.05,5.77,5.77,0,0,1,.56-.27h.06l-.15,0a1.06,1.06,0,0,0,1,0c.29.1.61,0,.89.11.25-.16.56-.08.84-.1s.65-.13,1,0a3.45,3.45,0,0,1,1.32,0,28.65,28.65,0,0,0,3.34-.07c.83,0,1.66,0,2.49-.06a3.29,3.29,0,0,1,.83.08,3.42,3.42,0,0,1,1.46,0A8.76,8.76,0,0,0,109.2.05h.06a.75.75,0,0,0,.5.16,1.63,1.63,0,0,1,.86.2,4.27,4.27,0,0,1,1-.27A11.12,11.12,0,0,0,113.3.07c.63-.12,1.26.12,1.89,0a4.16,4.16,0,0,1,1.65,0c.44.08.9-.08,1.31.13a1.39,1.39,0,0,1,.61.06,1.91,1.91,0,0,0,.89,0c0-.05.07-.15.1-.21l0,.25c.21-.06.42-.14.63-.21a1.46,1.46,0,0,0,1.33.22,1.58,1.58,0,0,0,.52.12s0,.13,0,.17l.34-.07c0,.07-.12.22-.17.29.45,0,.86-.25,1.3-.29s.78-.07,1.17,0a5.38,5.38,0,0,0,1,.06c.63-.16,1.07.44,1.53.76a1.39,1.39,0,0,1,.78,1.37,1.56,1.56,0,0,1,.25.64,6.11,6.11,0,0,1,.31,2,14.6,14.6,0,0,0,0,1.62,21,21,0,0,1,.11,2.38h.37l-.21.13c0,.21,0,.42,0,.63s.11.51.13.77a5.07,5.07,0,0,0-.07,1,8.91,8.91,0,0,0,.17,1.62,4.68,4.68,0,0,0,.83.25,1.33,1.33,0,0,0,.77-.27c.1,0,.22-.17.33-.05a2.68,2.68,0,0,1,.07-.27,3.45,3.45,0,0,0,.84.15l-.06.25a2.69,2.69,0,0,1,1,0,.62.62,0,0,1,.42-.22l.12-.25.06.53.34-.22a1.65,1.65,0,0,1,.37.88c-.11.29.17.46.32.66a5.69,5.69,0,0,1,.49-.61c0,.41-.08.82-.07,1.23a3.7,3.7,0,0,1,0,1.05,1,1,0,0,0,.1.6c-.06.15-.11.3-.16.45l.28.5v.48c-.17,0-.16.29,0,.26v.34c-.1.08-.2.14-.3.21l.3.08-.48.27a1.41,1.41,0,0,0-.06.22l-.26-.26c0,.12,0,.25,0,.38l-.19.21.24-.15c.05.14.09.28.14.42a4.54,4.54,0,0,1-.53-.12,6.14,6.14,0,0,1-1.53.27c-.45-.05-.9,0-1.35-.1s-.61.25-.94.14a2.54,2.54,0,0,0-1.13,0c0,.54,0,1.08,0,1.62,0,.16,0,.33,0,.5l.12.13-.24.23a3.18,3.18,0,0,0,.16.32l.23.07c0,.35-.11.7-.1,1-.24.14-.12.43-.15.65a1.43,1.43,0,0,1-.23.27c.18-.1.47-.12.5-.37s0-.36-.07-.54l.25.24a4.22,4.22,0,0,1-.2,2.09c-.19.3.17.56.09.86a4.4,4.4,0,0,0,.09,2,1.3,1.3,0,0,1-.09.93,2,2,0,0,1-.05,1.36,4.22,4.22,0,0,1,.21,1.9c0,.2-.1.37-.11.56a16.14,16.14,0,0,1,0,2.78,3,3,0,0,1,0,1,14.6,14.6,0,0,0,.06,2.09,1.18,1.18,0,0,1-.1.61,4.15,4.15,0,0,1,.09,1.27c.12.63,0,1.29.13,1.92l-.11,0a3.28,3.28,0,0,0,.11,1.46,2.58,2.58,0,0,0-.06,1.17c.08.33,0,.67,0,1a1.59,1.59,0,0,0,.28.53h-.27l.09.12a2.12,2.12,0,0,0-.15,1.17c.3.17.2.55.3.82a1.23,1.23,0,0,0-.18,1.25l-.18.29a2.26,2.26,0,0,0,.24.72c.26.16.57,0,.84,0a1.51,1.51,0,0,1,.93.15,5.21,5.21,0,0,1,1.05-.14c.41-.08.82.08,1.23,0a2,2,0,0,0,1.15.05c-.06.2-.14.42-.41.32l.23.1a1.64,1.64,0,0,0,0,.38l.23-.14a4.13,4.13,0,0,0,.59.41l-.3.07.31.2v.36c-.17,0-.16.28,0,.26v.47c-.09.17-.18.33-.26.5a4.37,4.37,0,0,0,.18.46c0,.13-.09.25-.14.37a2.46,2.46,0,0,1,.07,1,11.21,11.21,0,0,0,.08,1.53,7.08,7.08,0,0,1-.5-.59c-.11.12-.22.24-.34.35s0,.16,0,.21.21.18.32.27c.05-.14.1-.27.16-.4a4,4,0,0,0,.22.34,2.8,2.8,0,0,0-.06.28l-.31.06c0,.17,0,.33-.07.5l-.26-.18c0-.23,0-.47,0-.7-.12,0-.09.17-.13.25a.91.91,0,0,1-.28.57l-.32-.22-.06.54-.16-.26-.34-.06s0-.12,0-.16a2.43,2.43,0,0,1-1,0l0,.24-.8.14c0-.07-.07-.14-.11-.2-.24,0-.42-.16-.63-.23a1.14,1.14,0,0,0-.87,0,6,6,0,0,1-.08.84,8.61,8.61,0,0,1,0,.88,2.52,2.52,0,0,1,.22.47c0,.22-.21.42-.11.65a6.15,6.15,0,0,1,.08,1.06l-.22.24h.19a6.32,6.32,0,0,0,.09,1.37.84.84,0,0,1-.06.38l.09.27a11.18,11.18,0,0,0,0,1.92c0,.3.1.61,0,.88,0,.07,0,.19.07.25-.05.22-.08.44-.12.66l.08.14a4.28,4.28,0,0,1-.72,1.84l-.06.27a6,6,0,0,1-1.22.92,4.83,4.83,0,0,1-1.19.43c-.58,0-1.17,0-1.75.09a3.64,3.64,0,0,1-1.09.11l-.16.17a7.9,7.9,0,0,1-1.46-.06,5.93,5.93,0,0,1-1.63.07c-.7-.09-1.41,0-2.11,0a5.16,5.16,0,0,1-.87-.27c-.26,0-.49.23-.75.13a5.71,5.71,0,0,0-1.43,0,2,2,0,0,1-1.46,0c-.25,0-.49.06-.74.11a1.46,1.46,0,0,1-.62-.16,4,4,0,0,1-1.85.21c-.23,0-.44-.1-.66-.1a17.27,17.27,0,0,1-2.69,0,23.78,23.78,0,0,1-2.39,0,3.5,3.5,0,0,1-1.33,0,5.48,5.48,0,0,1-.57,0,1.21,1.21,0,0,1-.68,0,9.51,9.51,0,0,1-1.77.09l-.1.13a1.46,1.46,0,0,0,0-.2,3.3,3.3,0,0,0-1.13.06c-.38.12-.77-.07-1.15,0-.54.07-1.08,0-1.61.14A7.48,7.48,0,0,1,96,73.8,15.7,15.7,0,0,1,93.5,74a1.94,1.94,0,0,1-.3-.13.49.49,0,0,1-.67-.17c-.12.11-.19.32-.38.3a5.39,5.39,0,0,1-1.45-.07A7,7,0,0,1,89,74a12.36,12.36,0,0,1-1.36,0l-.12.16-.25-.29c-.24.15-.43.48-.76.38a9.21,9.21,0,0,0-2.46,0c-.57-.08-1.13.07-1.7,0-.86,0-1.74,0-2.61,0-.41,0-.82,0-1.23,0s-1-.09-1.49,0a5.32,5.32,0,0,1-1.49.09,8.83,8.83,0,0,0-2-.1,2.78,2.78,0,0,1-.64-.19l0,.22c-.65-.08-1.29-.09-1.93-.11s-1.07.07-1.61.11l-.17-.18v.2a2.8,2.8,0,0,0-.57-.08,5.38,5.38,0,0,1-2,0c-.27-.08-.52.14-.8.09a2.09,2.09,0,0,0-.93,0c-.44-.09-.89.09-1.31-.11-.56.13-1.13,0-1.69.12s-.8-.17-1.21-.15c0-.12.05-.25.08-.37l.27-.13-.11-.14a1.46,1.46,0,0,0-.07.19l-.38-.09c.08-.1.17-.19.25-.28l-.21-.19-.1.13-.45-.51c-.1.11-.19.23-.29.35a1.79,1.79,0,0,1-.33,1.17l-.35-.2c0,.15,0,.29,0,.44h-.16v-.24l-.13.1-.25-.09V74.2a2.11,2.11,0,0,1-1,0c0,.06,0,.19,0,.25a4.21,4.21,0,0,1-.78.12c-.07-.07-.12-.14-.18-.21l-.1.08-.27-.23c0,.09,0,.28,0,.38a.37.37,0,0,1-.21-.48c-.81-.23-1.43.53-2.21.56a2.08,2.08,0,0,1-1-.09c-.54,0-1.07.09-1.6,0s-1.3.09-1.95,0-1.51.09-2.27.1a6.07,6.07,0,0,0-1.28-.05c-.24.11-.51.31-.77.14s-.47,0-.7.05-.71.07-1-.19a.77.77,0,0,0,0,.15,6.83,6.83,0,0,0-1.28.07,1.16,1.16,0,0,1-.49,0,2.88,2.88,0,0,1-1.17-.06,6.11,6.11,0,0,1-1.48.08c-.54,0-1.1-.2-1.62,0a4.4,4.4,0,0,0-.89.19h-.05c-.17-.21-.45-.12-.68-.11a2.4,2.4,0,0,1-.75-.08l.26-.28a1.6,1.6,0,0,1-1.26.38c-.63,0-1.26-.07-1.89,0-.25,0-.43-.21-.68-.17a5.57,5.57,0,0,1-1.35.07c-.44-.11-.9.1-1.33-.1a9.71,9.71,0,0,1-2.09.07,2.75,2.75,0,0,0-1.07,0,1.57,1.57,0,0,1-.83,0,4.16,4.16,0,0,0-1.45,0c-.29.05-.57-.08-.86,0a9.6,9.6,0,0,1-2.57.09c-.33,0-.63-.14-1-.14s-.84,0-1.26,0a3.81,3.81,0,0,1-2.32-1.17s-.06-.13-.09-.18l-.12.06,0-.07a8.44,8.44,0,0,1-.47-.83,2.62,2.62,0,0,1-.27-1.09L14,71.43c.15-.31,0-.63,0-.94l.38-.18-.5-.17.29-.26-.2-.32.29-.07A3.65,3.65,0,0,1,14,67.76l.15-.14a5.08,5.08,0,0,0,0-1.35,1.39,1.39,0,0,1,0-.7,1.76,1.76,0,0,1-.09-.2c.23-.51-.12-1.06.15-1.56A4.45,4.45,0,0,1,14.08,62a2.07,2.07,0,0,0-.25-.15,7,7,0,0,1-1.12.15,1.69,1.69,0,0,0-1.13.07A8.33,8.33,0,0,1,9.85,62c-.25-.07-.31-.43-.58-.46s-.27.06-.37.17a1.54,1.54,0,0,0-.17-.19L9,61.42c-.12-.1-.35-.12-.36-.31-.09-.38,0-.8-.23-1.14v-.14a3.42,3.42,0,0,0,.1-1.23,2.64,2.64,0,0,1,0-.93c.09-.33-.09-.67.05-1s-.05-.39-.12-.56c0-.36,0-.81.37-1l0,.28L9,55.33c0-.07-.07-.19-.09-.25a2.83,2.83,0,0,1,.81-.2c0-.05,0-.14,0-.18l-.27,0a1.9,1.9,0,0,1,.43-.26,3.32,3.32,0,0,0,.77,0c.31-.07.62,0,.93,0a3,3,0,0,1,.95,0,10,10,0,0,1,1.23-.08,1.68,1.68,0,0,1,0-.67c.11-.44-.12-.87-.05-1.32a11,11,0,0,0,0-1.15c-.11-1,0-1.92-.11-2.88a3.07,3.07,0,0,1,.09-.8,4,4,0,0,1,0-1.47,13.16,13.16,0,0,0-.15-1.54c.19-.46.06-1,.33-1.42A4.85,4.85,0,0,1,13.65,42a11.25,11.25,0,0,0-.07-1.64c-.12-.65.14-1.31,0-2a21.54,21.54,0,0,1,0-2.41c.13-.41.09-.84.24-1.24,0-.23,0-.46-.07-.69L13.58,34l.25,0c-.07-.2-.14-.4-.22-.6s.09-.2.13-.29a4.4,4.4,0,0,1-.23-1.35,2.66,2.66,0,0,1,.08-.79,5.5,5.5,0,0,1,0-1.67,2.76,2.76,0,0,1,.1-.64,1.75,1.75,0,0,1-.09-.78c.07-.39-.12-.78,0-1.17.1-.61-.12-1.21,0-1.81a3.45,3.45,0,0,1,0-1.5,1,1,0,0,1-.06-.79l-.09-.27c-.38,0-.75.23-1.13.12-.75-.28-1.55.19-2.3-.06a2.05,2.05,0,0,1-1.06-.15c-.16.05-.32.11-.48.15,0-.14.06-.28.1-.42A2.1,2.1,0,0,1,8.8,22c-.19-.15-.2-.38-.25-.6l-.15.25a1.51,1.51,0,0,0-.53-.44v-.07c.23.13.23-.2,0-.16v-.41a.14.14,0,0,0,0-.27v-.52c.05-.15.12-.29.16-.44A2.32,2.32,0,0,1,8,18.74c.06-.36-.08-.73,0-1.09a7.77,7.77,0,0,0-.08-1.6,7,7,0,0,1,.52.57l.3-.36A1.87,1.87,0,0,1,9,15.08l.36.2c0-.15,0-.29,0-.44h.16c0,.05,0,.14,0,.18l.41,0a1.24,1.24,0,0,0,0,.18,2.25,2.25,0,0,1,1,0c-.11-.37.36-.3.59-.32l.18-.12c.08.1.1.35.28.27a1.64,1.64,0,0,0,1.25.25c.06-.16.12-.32.19-.48a10.75,10.75,0,0,1-.16-1.27,1.28,1.28,0,0,1,.09-.64l-.08-.28c.08-.32,0-.65,0-1a2,2,0,0,0,.05-.43c-.05-.64,0-1.29-.14-1.93l.14-.11c0-.25,0-.51,0-.77L13,8.5a1.2,1.2,0,0,0,.08-1.06l.3.19a4.5,4.5,0,0,1-.25-1.7c-.15-.66.16-1.33,0-2,.09-.57.58-.94.89-1.4a1.3,1.3,0,0,1,1.27-.66,8.89,8.89,0,0,1,1.74-.51,16.35,16.35,0,0,1,2,0A6.25,6.25,0,0,0,20.54,1.25Zm89.3-.81c0,.12-.07.24-.11.36l.19-.05C109.93.63,110,.49,109.84.44Zm2.48,0c.05.28.4,0,.58.06A.44.44,0,0,0,112.32.48ZM86.11,1.1,85.84.94c.09.09.18.18.12.31a4.87,4.87,0,0,1,.52-.12L86.13.86A1.94,1.94,0,0,1,86.11,1.1Zm-39.52.53.21.16.36-.18.31.16C47.31,1.37,46.88,1.53,46.59,1.63Zm17.47-.25a3.68,3.68,0,0,1-.44.23,1.6,1.6,0,0,0,1.27,0l-.26-.09a1.94,1.94,0,0,1,0-.24c-.14.09-.27.19-.4.29l0-.48A1.13,1.13,0,0,0,64.06,1.38Zm42.4-.71c-.09.13.12.32.22.16S106.56.52,106.46.67ZM39.69,1.75l-.06.14c.16-.06.39,0,.47-.22Zm8.62-.2c-.13,0-.29.2-.1.25S48.57,1.49,48.31,1.55Zm1,.15a.91.91,0,0,0,.54.09,8,8,0,0,1,1.3,0l.08.2.1,0c-.08-.15-.17-.3-.26-.45a3.47,3.47,0,0,0-.85.17C49.89,1.69,49.52,1.4,49.28,1.7Zm36.15-.27c.21,0,.19-.26.25-.41C85.47,1.05,85.48,1.28,85.43,1.43ZM96.84.9c-.1.11.1.23.18.12S96.91.79,96.84.9Zm.74,0c-.11,0-.29.1-.2.22S97.81,1,97.58.9Zm-46.1.69c0,.07,0,.22,0,.3l.4,0Zm33.57-.25c-.12.14.14.23.22.12S85.13,1.23,85.05,1.34Zm11.07-.09c-.13.14.12.31.22.16S96.21,1.16,96.12,1.25Zm-42.34.61a2.33,2.33,0,0,0,.07.25l.36,0A3.48,3.48,0,0,0,53.78,1.86Zm30.8-.38a1.94,1.94,0,0,1,0,.24l.27-.21ZM64.16,2l.23.25V1.92ZM52.43,2.5l0,.22-.32,0c.05.11.1.22.16.33.26-.18.3-.51.47-.76ZM53,2.35c-.21.33.36.28.22,0ZM51.66,3c-.16.1,0,.33.15.2S51.79,2.86,51.66,3ZM75.4,6.55c-.18,0-.06.28.09.2S75.54,6.48,75.4,6.55Zm3.26,0v.34l.19,0-.06-.25Zm11.43.39c-.23-.05-.48-.14-.68,0a.74.74,0,0,0,.66.1c.32-.1.64.06,1,0,.18-.06.25.14.36.23-.05-.15-.12-.31-.18-.46C90.82,6.65,90.48,7,90.09,6.9Zm-1.64.21a3.46,3.46,0,0,1,.22.31h-.36l.09.12.43-.2s0-.1,0-.14l.17,0-.13-.12A.91.91,0,0,1,88.45,7.11Zm6.87,0-.4.14c.2,0,.41-.06.61,0a.46.46,0,0,1,.36,0l.19-.11a.5.5,0,0,1,0,.13c.18,0,.37,0,.55-.06a1.62,1.62,0,0,1-.57-.12l.16-.14C96,7.1,95.61,7.47,95.32,7.14Zm11.86,0a.71.71,0,0,0,.5-.21C107.51,6.93,107.28,6.91,107.18,7.1Zm-16.92.32-.3,0a1,1,0,0,0,.8,0,1.23,1.23,0,0,0,0,.19l.27-.19c0-.12-.14-.15-.21-.21l-.15.09C90.51,7.25,90.27,7.13,90.26,7.42ZM37.39,8l-.08.29h.25l-.15-.17L37.6,8Zm3.24-.06c0,.15,0,.2.18.14S40.8,7.89,40.63,7.94ZM92.1,7.37c.07.07.3,0,.25-.11S92,7.24,92.1,7.37Zm.32-.13.16.17c.15.1.29-.14.45,0a1.09,1.09,0,0,0,.44,0A2.66,2.66,0,0,0,92.42,7.24Zm1.52,0c0,.14.24.25.37.2S94.07,7.21,93.94,7.27Zm-59.49.9c-.12.09.06.29.17.2S34.57,8.08,34.45,8.17Zm.31,0c-.08.12.13.27.22.16S34.86,8,34.76,8.14ZM34,8.42c.1.09.33,0,.24-.16S33.9,8.29,34,8.42Zm84-1.31.25.41c.37,0,.7-.25,1.07-.14a1.16,1.16,0,0,0,.64,0c0-.12-.12-.14-.21-.17a3.47,3.47,0,0,0-.79.07,1.49,1.49,0,0,0-.81,0s0-.14,0-.19ZM20.61,8.62a2.1,2.1,0,0,1-.18,1l.23.21c-.16.11-.1.3-.08.46s0,.52,0,.77a6.2,6.2,0,0,1,.05,1.22h.17v.16h-.17a1.55,1.55,0,0,1-.15.56l.15.38c-.23,0-.19.29-.23.46l.26,0c.08.27,0,.58.19.8a1.09,1.09,0,0,1-.34.13l.1.08c-.09.31-.36.58-.34.93,0,.61.52,1.09.59,1.7a1.66,1.66,0,0,1,0,.8c-.22.58.06,1.19,0,1.79a5.35,5.35,0,0,0,0,1.2,2,2,0,0,0-.91-.08l-.09.18c.21,0,.6-.24.6.11l.31-.15c.19.14.12.36.08.55s.05.16.08.24l-.07.13c.06.52.07,1,.08,1.56a2.29,2.29,0,0,1,0,1,3.1,3.1,0,0,1,0,.86,1.21,1.21,0,0,1,.24.48c0,.16-.13.31-.18.47s.11.32.16.49-.06.17-.1.26a3.73,3.73,0,0,1,.09.46l-.17.16.13.14a7.55,7.55,0,0,0,.08,1.26,1.7,1.7,0,0,1,0,.45A3.19,3.19,0,0,1,21.06,31c.05.13.17.25.15.4a5.92,5.92,0,0,1,0,1.33,6.58,6.58,0,0,1,.08,1.54,18,18,0,0,0,0,2.2,5,5,0,0,1-.27.85c0,.26.25.49.13.76a7.49,7.49,0,0,0,0,1.42A1.87,1.87,0,0,1,21.09,41a2.24,2.24,0,0,1,.05.58l.11.23-.17,0a.47.47,0,0,1,0,.59,4.1,4.1,0,0,1,.22,1.88c0,.2-.09.37-.13.56a18,18,0,0,1,.1,2.2,2.37,2.37,0,0,0,.06,1.24,1.45,1.45,0,0,0,0,.85,4.34,4.34,0,0,0,.06,1.72c0,.16-.1.31-.14.47a2.79,2.79,0,0,1,.06,1.25,5.1,5.1,0,0,1,.1,1.35c0,.2,0,.43.13.58l-.19,0a3.7,3.7,0,0,0,0,.88,1.49,1.49,0,0,1,.06.86,3.63,3.63,0,0,0,0,1.14c-.15.42.18.84,0,1.25s0,.64-.17.91a3.32,3.32,0,0,1,.15.89,6.69,6.69,0,0,0,.08,1.55l-.19.35c.11.16.18.46-.08.53a1.8,1.8,0,0,0,.06.22c.23.16.15.45.17.69a2.42,2.42,0,0,1-.1,1.07,12.24,12.24,0,0,1,.2,2.71,1.59,1.59,0,0,0,1,0,2.62,2.62,0,0,0,.79,0c.52.17,1.05-.12,1.58,0l0,.23.4-.17a1,1,0,0,0,.67.06c.32-.14.64.16,1,0a3.72,3.72,0,0,1,1.25-.1c0,.13,0,.26,0,.39a1,1,0,0,1,.08-.35c.09-.19.33-.11.5-.15a.72.72,0,0,1-.22.45c0,.09.05.19.07.28l.73-.31c-.09-.09-.25-.25-.11-.35a1.79,1.79,0,0,1,1.4,0l-.23.25.5.15a1.79,1.79,0,0,1,.76-.06c.18,0,.34-.12.5-.18a.61.61,0,0,0,.19.26l.19-.19a5.32,5.32,0,0,1,1.13.07,1.24,1.24,0,0,1,.66-.05A3.81,3.81,0,0,1,36,67.54v.19a2.12,2.12,0,0,1,1-.15c.28,0,.59-.27.81,0l.14-.08c.36.16.68-.16,1-.13a3,3,0,0,0,.78-.08,1.83,1.83,0,0,0,.87.06c.43-.15.87.06,1.31,0a2,2,0,0,1,.77.11,1.63,1.63,0,0,1,.57-.1c.61.06,1.21-.09,1.81,0a2.79,2.79,0,0,0,.95-.06,2.18,2.18,0,0,0,1.16,0,1.85,1.85,0,0,0,1.23,0l.3.1a29.91,29.91,0,0,1,4.54-.08,4.89,4.89,0,0,1,1.57-.12c.39.09.75-.13,1.14-.08.17,0,.32.11.49.15.4-.09.82-.07,1.23-.13a1.88,1.88,0,0,1,.67,0c.52-.14,1,.34,1.53,0v.26l.21-.27a1.52,1.52,0,0,0,.6,0,1.78,1.78,0,0,1,1.06.12l.28-.28s0,.14,0,.18l.57-.06a10.09,10.09,0,0,1,2.69.12A3.51,3.51,0,0,1,66.73,67c.21,0,.34.15.5.25.15-.12.31-.26.52-.18a.59.59,0,0,0,.52-.14c.53.19,1.08,0,1.61,0,.31.06.64,0,.93.12.37-.23.82-.06,1.2-.27a2.67,2.67,0,0,0,1.19.06,2.67,2.67,0,0,0,1.16,0,2.78,2.78,0,0,1,1.07.09,1.68,1.68,0,0,1,.67-.05v-.15c.5.08,1,0,1.53,0a2.65,2.65,0,0,0,.56,0,5.74,5.74,0,0,1,1.24,0l.48-.14a7.58,7.58,0,0,0,1.43.09c.35-.14.71,0,1.06-.08s.57.07.87.06a10.29,10.29,0,0,1,2.08-.08,2.64,2.64,0,0,0,.55-.15c.12.39.57,0,.83,0v.2a15.51,15.51,0,0,1,1.67,0c.5.13,1-.22,1.46,0,.26-.19.55.1.83,0a1.51,1.51,0,0,1,1,.08c.8-.37,1.72.06,2.53-.22a1.36,1.36,0,0,1,0,.2c.1-.08.2-.21.35-.18a16.52,16.52,0,0,0,2.11,0c.35,0,.7-.13,1.06-.13a1.87,1.87,0,0,0,.07.22,2,2,0,0,1,.79-.23,2.27,2.27,0,0,0,.86,0,.7.7,0,0,0,.45,0,2.31,2.31,0,0,1,1.35-.07,1.14,1.14,0,0,1,.58,0,3.38,3.38,0,0,0,1-.07c1,.09,1.91-.12,2.87-.08a13.33,13.33,0,0,1,2.19,0,4,4,0,0,1,1.51,0,10,10,0,0,0,1.54-.18,1,1,0,0,0,.57.16,1.33,1.33,0,0,1,.84.2c.27-.08.54-.17.81-.28a9.4,9.4,0,0,0,1.91-.08c.63-.11,1.25.16,1.88,0a6.44,6.44,0,0,1,1.24-.06,2.7,2.7,0,0,0,1.26.1,1.89,1.89,0,0,0,.85.12,1.54,1.54,0,0,0,1.08,0l.09-.18a1.49,1.49,0,0,1,0,.21l.62-.19a.72.72,0,0,0,.6.1,11.8,11.8,0,0,1,.18-1.69,1.33,1.33,0,0,1-.1-.76c.1-.41-.16-.81,0-1.21,0,0,0-.16-.07-.21a2.24,2.24,0,0,0,0-1.15c.22-.45-.05-.92,0-1.39a.93.93,0,0,1-.33-.45l.33,0,.14-.13c-.17-.09-.12-.3-.17-.45a1.83,1.83,0,0,1-.11-.73c.07-.49,0-1,.06-1.47,0-.25-.13-.48-.11-.74a1.26,1.26,0,0,0,0-.67,1.06,1.06,0,0,0,.07-.68,1.71,1.71,0,0,1,.07-.87,7.36,7.36,0,0,1-.13-2,1.44,1.44,0,0,1,0-.62,1.19,1.19,0,0,1,0-.42c.08-.64,0-1.28,0-1.92a8.1,8.1,0,0,1-.13-1.09l.2-.05a2.16,2.16,0,0,1-.2-1.25,8.65,8.65,0,0,0-.13-1.14c-.23-.82.2-1.65,0-2.47-.07-.42.08-.84,0-1.26s-.07-.76,0-1.14c0-.7,0-1.4-.06-2.09a2.49,2.49,0,0,1,.07-.77c0-.2-.11-.38-.08-.57a7.35,7.35,0,0,0,0-2.34c-.09-.29.2-.53.12-.82a1.28,1.28,0,0,1,.21-.78,1.29,1.29,0,0,0-.09-.16,1.77,1.77,0,0,0-.19-.59,10.26,10.26,0,0,0-.09-1.92,3.63,3.63,0,0,1,0-1.14c.08-.51-.13-1-.09-1.51a2.16,2.16,0,0,1,.07-.76c.19-.47-.13-1,.17-1.44l0-.45c-.26.06-.4-.19-.48-.39a3.41,3.41,0,0,1,.64.1l-.05-.29-.24,0a1.57,1.57,0,0,0-.1-.61c-.17-.38,0-.78,0-1.16a3.5,3.5,0,0,1,0-1,1.88,1.88,0,0,1-.09-1.05c-.13-.31.12-.62,0-.93a1.69,1.69,0,0,1,.09-.86c-.31-.8,0-1.7-.21-2.51l.21,0-.18-.16a17.36,17.36,0,0,0,0-2.6c0-.27-.23-.68.1-.82-.29-.5-.1-1.08-.25-1.62a2.4,2.4,0,0,0-.14-1.09,1,1,0,0,1-.38-.36l.36.17c0-.12,0-.24,0-.35s-.08-.13-.1-.17a.7.7,0,0,0,.1-.4c-.06-.37.05-.75,0-1.13-.18-.07-.37-.23-.57-.14a6,6,0,0,1-1.46.05c-.73-.09-1.46,0-2.19,0a5.05,5.05,0,0,1-.86-.27c-.24,0-.43.24-.67.15a6.53,6.53,0,0,0-1.53,0,1.79,1.79,0,0,1-1.4,0,2.14,2.14,0,0,1-.87,0,.6.6,0,0,1-.53-.12c-.56.37-1.26.16-1.88.23-.2,0-.37-.11-.56-.12A15.26,15.26,0,0,1,107,7.7c-.42.06-.84-.14-1.26,0s-.56-.08-.84,0-.59-.06-.88,0a4.31,4.31,0,0,0-1,.09c-.22.07-.43-.07-.64-.11a5.15,5.15,0,0,1-1.17.11c-.41.13-.84.07-1.25.16a7.58,7.58,0,0,1-.82-.08c-.47.23-1,0-1.46.05-.33,0-.65-.17-1-.06s-.79,0-1.18.06-.51,0-.76,0c-.39-.22-.86.12-1.28,0A2.28,2.28,0,0,0,92.48,8a6.8,6.8,0,0,0-.77-.11A1.17,1.17,0,0,1,91,8,3.5,3.5,0,0,0,90.1,8c-1.2,0-2.41.07-3.62,0a6.73,6.73,0,0,1-1.62.12,2.49,2.49,0,0,0-.86.08,1.7,1.7,0,0,1-.8-.15c-.19,0-.35.21-.55.15-.38-.09-.78.07-1.16,0-.56-.11-1.14.13-1.71,0a6.27,6.27,0,0,1-.86.09c-1-.06-2,.07-2.94,0a9.37,9.37,0,0,0-1.06,0c-.44.11-.88-.14-1.32,0a3.83,3.83,0,0,1-.68.08,2.59,2.59,0,0,1-1.43-.12l-.25.09a2.45,2.45,0,0,0-1,0c-.23,0-.44-.14-.66-.2a1.46,1.46,0,0,0,0,.2c-.46,0-.91-.15-1.37-.09a1.23,1.23,0,0,1-.43,0c-.43.05-.87,0-1.29.11-.17,0-.31-.06-.46-.12v.16a1.88,1.88,0,0,0-1,0,4.49,4.49,0,0,1-1.37-.06c-.27-.11-.53.15-.81.09a1.42,1.42,0,0,0-.91.06c-.29-.16-.6.07-.89,0a2.58,2.58,0,0,0-1.14,0,1.63,1.63,0,0,1-.4.24c0-.06,0-.19,0-.26a8.79,8.79,0,0,1-1.7.05s0,.15,0,.2A2.22,2.22,0,0,0,56.5,8.3a1.73,1.73,0,0,1-1,0l-.18.1c-.51-.24-1.06.1-1.57-.15a4.61,4.61,0,0,1-1.85.1c-.26-.06-.51.12-.76,0-.32.12-.66,0-1,0s-.7,0-1,0a8.33,8.33,0,0,0-1.41.15l0-.23a4.48,4.48,0,0,1-.68.22,4.22,4.22,0,0,0-.87,0,.59.59,0,0,1-.39,0,2.69,2.69,0,0,1-1.37.16c-.22-.06-.46,0-.68-.05a2.26,2.26,0,0,0-1,.05c-.28,0-.56-.07-.84,0-1.11.13-2.23.09-3.34.14-.49.09-1-.14-1.44,0a8,8,0,0,0-2.49.05c-.23.06-.42-.18-.65-.13A1.4,1.4,0,0,1,33,8.57a3.6,3.6,0,0,0-.78.27c-.57,0-1.14,0-1.7,0a3.1,3.1,0,0,1-1.25,0A4.94,4.94,0,0,0,28,9,4.1,4.1,0,0,1,26.9,8.9c-.45-.16-.94.1-1.37-.14a1.82,1.82,0,0,1-.83-.14c-.27.06-.63,0-.81.23a1.51,1.51,0,0,1-.09-.18l-.55.22-.57-.32a1.21,1.21,0,0,1-.39.42c.05-.14.11-.28.17-.42-.22,0-.45.13-.67,0s-.67.14-1-.08Zm101-.4c0,.14,0,.18.16.14S121.75,8.18,121.62,8.22Zm6.64,2.6c-.18.31,0,.65,0,1a2.16,2.16,0,0,0,0,.84l-.28.15a.66.66,0,0,0,.51-.23c.09-.35-.22-.67-.13-1S128.51,11,128.26,10.82ZM128.08,13a2.85,2.85,0,0,1,0,.29.75.75,0,0,0,.27-.26Zm-1.34.19c-.1.13.16.27.25.15S126.84,13.06,126.74,13.18Zm-107,3c-.1.1,0,.29.14.29S19.93,16,19.77,16.19Zm.19.49c-.11.09,0,.3.16.22S20.09,16.58,20,16.68Zm0,.5.51.11a1.1,1.1,0,0,0-.4-.24Zm.2.37a3,3,0,0,1,.14.59c.07-.16.39-.42,0-.44.05,0,.14-.14.19-.19A.41.41,0,0,1,20.17,17.55Zm-5.79,4.78c0,.17,0,.34,0,.51a1,1,0,0,0-.27.17,1.07,1.07,0,0,0,.52-.2c0-.18,0-.35,0-.53Zm109.44-1.51V21l.52-.09v.21l.25-.12.38.14-.24-.14.09-.1A3.08,3.08,0,0,0,123.82,20.82Zm-110,1.58.25.32c0-.12.09-.25.13-.37Zm.25,1.31a1.52,1.52,0,0,1-.07.64c.22.2,0,.45,0,.68l.11-.07a2.69,2.69,0,0,0,.09-1.26Zm0,1.84a.33.33,0,0,0-.07.34C14.16,25.92,14.3,25.48,14.06,25.55Zm115.05-1.09c-.09.12-.06.18.07.2S129.23,24.47,129.11,24.46Zm-115,2.08,0,.15c.07.24,0,.48,0,.71l-.12.14.1.07a2.76,2.76,0,0,0,0,.76l0-.6.24.11c-.1-.24-.27-.49-.19-.76A.83.83,0,0,0,14.16,26.54ZM20,27.74c-.12.09,0,.3.16.2S20.13,27.63,20,27.74Zm.39.74c0,.15,0,.21.16.16S20.55,28.43,20.4,28.48Zm-.11.5c-.11.13.1.36.24.27S20.44,28.89,20.29,29Zm-.55.26c-.15.05-.09.31.07.23S19.89,29.17,19.74,29.24Zm102.77,2.09a4.09,4.09,0,0,0-.07-.6C122.27,30.89,122.24,31.25,122.51,31.33ZM20.85,33.69a1.32,1.32,0,0,0-.05,1,3.4,3.4,0,0,0,0,.9h-.19l0,.16c.14-.09.32-.14.41-.29a1.46,1.46,0,0,0-.18-.79C20.88,34.33,21.08,34,20.85,33.69Zm101.48.12h.41l-.21-.16A1.56,1.56,0,0,0,122.33,33.81Zm6.49,2.12c0,.19,0,.43.2.52A1.18,1.18,0,0,0,128.82,35.93Zm-6.23,1s0,.11,0,.15C122.7,37.41,122.9,36.81,122.59,37ZM13.85,40.43c-.11.09,0,.31.16.22S14,40.35,13.85,40.43Zm.25,1c0-.2,0-.4,0-.6C13.78,41,13.91,41.31,14.1,41.46Zm-.1,2.3c-.1.17.18.27.3.2S14.11,43.64,14,43.76Zm115-.86a2.1,2.1,0,0,1-.13.26l.18.34c-.05.11-.11.21-.15.32a.57.57,0,0,0,.26-.4A4.48,4.48,0,0,0,129,42.9Zm-.1,1.61c-.14.1,0,.33.17.23S129,44.41,128.91,44.51ZM20.38,46.06c.06.16.07.36.21.48,0-.14,0-.27-.05-.41ZM14.26,47c-.13,0-.12.23,0,.24S14.39,47,14.26,47Zm114.61-.08h.24L129,46.6a2.22,2.22,0,0,0,.09-1C128.66,46,129.07,46.5,128.87,46.93Zm0,.27c-.08.11.08.31.19.19S129,47.11,128.87,47.2Zm-.11.25c0,.13,0,.18.13.14S128.89,47.41,128.76,47.45ZM20.48,53.23c.05.12.11.23.17.35s-.09.21-.13.32a1.19,1.19,0,0,0,.27-.39,4.13,4.13,0,0,1-.15-.5C20.58,53.08,20.53,53.16,20.48,53.23Zm.08,1.33a.16.16,0,0,0,0,.3C20.78,54.93,20.76,54.51,20.56,54.56Zm0,1.13a1.19,1.19,0,0,0,0,1,1.74,1.74,0,0,0-.05.85l-.25.16c.2,0,.49-.11.5-.37s-.25-.62-.14-1A.72.72,0,0,0,20.6,55.69Zm-.24,2.19c0,.13.05.27.08.4l.25-.38Zm-1.27.22c0,.11,0,.17.15.16s0-.11.05-.15Zm.1.62c.18.27.53.31.77.51-.1-.16-.15-.44-.4-.37a2.74,2.74,0,0,0,0-.28Zm.75.93c.1-.11,0-.31-.17-.25S19.81,59.73,19.94,59.65Zm.21.63,0,.37c.08-.15.16-.3.23-.45Zm110-1c-.09.08,0,.29.14.21S130.26,59.24,130.14,59.32ZM20.62,62.39H20.5c0,.31.1.62.11.94l.11.11c.08-.2.12-.47.38-.52a1.39,1.39,0,0,0-.35-.16L21,62.4h-.26l-.14-.21C20.61,62.24,20.62,62.34,20.62,62.39ZM16,65.86a2.42,2.42,0,0,1,1.22.2L17,65.79C16.71,65.73,16.3,65.55,16,65.86Zm98,.82a2.57,2.57,0,0,0,.62-.08A.4.4,0,0,0,114,66.68Zm.81-.23c-.12.13.11.23.2.11S114.88,66.3,114.81,66.45Zm-3.34.14.11.14-.16.12.22,0c0-.07,0-.2.07-.26Zm-51.95.84c-.05.26.4.21.37,0A.58.58,0,0,0,59.52,67.43Zm7,.4c.43-.16.89.1,1.31-.08a.73.73,0,0,1-.16-.37l-.38.26c0-.17,0-.33,0-.5A3.53,3.53,0,0,1,66.57,67.83Zm41.63-1.06c-.11.13.14.26.22.13S108.29,66.65,108.2,66.77Zm-59.6,1c0,.13.15.13.22.19.15-.1.31,0,.45,0a1.74,1.74,0,0,0,.11-.18l.38,0a1,1,0,0,0-.87-.07v-.19ZM30.1,68l.32.19.37-.21ZM43,67.92v0a3.25,3.25,0,0,1,.54,0l-.14.27a4.67,4.67,0,0,0,.49-.27l.37,0a2.77,2.77,0,0,0-.57-.13v.11A.92.92,0,0,0,43,67.92Zm3.2-.16a1.12,1.12,0,0,0,1,.19.59.59,0,0,0,.39-.06,1.93,1.93,0,0,1-.79-.13s0,.15,0,.2A3.45,3.45,0,0,0,46.2,67.76Zm4.66.09-.14.29a2.79,2.79,0,0,1,.5,0L51,67.88a1.81,1.81,0,0,0,.4-.18A4.44,4.44,0,0,0,50.86,67.85Zm-6.31.05c-.11,0-.29,0-.32.17S44.88,67.91,44.55,67.9Zm44.88,1.33c.16.2.08.41,0,.61l.26-.24c0-.32.26-.76-.08-1C89.52,68.83,89.78,69.22,89.43,69.23Zm7.87,2.36c-.14,0-.19.29,0,.31S97.45,71.59,97.3,71.59Zm-1.15.94c.18-.09.5-.12.41-.4l.3,0c0-.11-.09-.22-.13-.32C96.42,71.93,96.42,72.33,96.15,72.53ZM15.78,73.89l.17-.11a4.85,4.85,0,0,0,.66,0l-.19-.11c0-.13.13-.17.2-.25l-.28,0c0,.07,0,.22,0,.29l-.3,0c0-.21,0-.43-.06-.64a1.67,1.67,0,0,0-.06.63l-.19-.06a1.26,1.26,0,0,0,0-.58C15.64,73.36,15.56,73.68,15.78,73.89Zm1.42-.5v.38l.12,0a2.83,2.83,0,0,1,0-.3h.12a3.11,3.11,0,0,0,.11.41l0-.47a.45.45,0,0,1,.15.35h.09c0-.12,0-.25,0-.37A2.91,2.91,0,0,0,17.2,73.39Zm78.69-1.12c-.15.06-.14.35.06.28S96.07,72.19,95.89,72.27ZM16.68,73.41v.39h.42c0-.14,0-.28,0-.43Zm25.15.07c-.13.09.06.28.17.2S42,73.4,41.83,73.48Zm53-.72.39.23v-.25Zm2.36.25.36.24.06-.33Zm.61-.18a1,1,0,0,0,.19.5c.39,0,.75-.23,1.14-.12a1.26,1.26,0,0,0,.64,0c-.25-.32-.67-.14-1-.09a1.46,1.46,0,0,0-.8,0C97.89,73,97.83,72.92,97.77,72.83Zm-42.93.76c-.12.15.14.27.24.14S54.93,73.45,54.84,73.59ZM92,73.25a2.2,2.2,0,0,1,.51.32l.18.12c0-.1,0-.29,0-.38l.38.24a.46.46,0,0,1,.15-.32L93,73.08A5.13,5.13,0,0,0,92,73.25Zm-48.62.56c0,.16,0,.21.16.17S43.52,73.77,43.36,73.81Zm57.3-.77a2.25,2.25,0,0,1-.08.24l.33-.11Zm1.53,0-.33.19c-.11,0-.21-.11-.32-.15.06.16.24.2.37.28a4.44,4.44,0,0,1,.52-.15Zm7.23-.07c-.18,0-.44,0-.52.22A.84.84,0,0,0,109.42,73Zm-55.34.81c0,.16-.07.33-.1.49a1.81,1.81,0,0,0,.24-.37Zm.36,0-.09.12C54.45,74.18,54.8,73.65,54.44,73.74ZM42,74.16c-.13.24.28.19.31,0S42.1,74.06,42,74.16Zm.58.2h.19C43,74.06,42.44,74.07,42.62,74.36Zm10.49-.26.43.26v-.2l.18,0c0-.07,0-.14,0-.21A3.71,3.71,0,0,1,53.11,74.1Zm66.6-1c.07.17.13.39.31.47s.51-.1.76-.16a3.81,3.81,0,0,0,.67.07c0-.36-.46-.1-.67-.11a2.37,2.37,0,0,0-.88,0A.39.39,0,0,0,119.71,73.11Z"/><path class="cls-1" d="M21.67,12a1.36,1.36,0,0,1,1-.36A4.79,4.79,0,0,0,21.67,12Z"/><path class="cls-1" d="M8.33,15.52A.92.92,0,0,1,8.48,15l.21.22c0,.25-.08.49-.13.73-.23-.31-.29.05-.39.21C8.11,16.06,8,16,8,15.84s0-.19.06-.26Z"/><path class="cls-1" d="M134.18,13.51a.41.41,0,0,1,.29-.15c0,.14.05.29.07.43l.33.07c0,.07,0,.21,0,.27l-.21.33c-.06-.12-.11-.25-.16-.37l-.24.16C134.27,14,134.23,13.76,134.18,13.51Z"/><path class="cls-1" d="M100,14.42a1.1,1.1,0,0,0,.75-.12c1,.16,2.06-.11,3.06.11a1.48,1.48,0,0,1,.78-.06c.42.08.84-.07,1.27,0l.09-.07a1.49,1.49,0,0,0,.91,0c.31,0,.62.06.93.09l.3-.18c.33.24.72,0,1.08.07l-.08.18a1.87,1.87,0,0,0,.47-.23c.54.07,1.07-.15,1.6,0,.34.09.69.08,1,.2a2.55,2.55,0,0,0,.9.16,4.31,4.31,0,0,0,.85.62,4.83,4.83,0,0,1,.71,1.14,3.34,3.34,0,0,1-.07,1.41c.14.21,0,.46,0,.69a1.77,1.77,0,0,1-.08.6,2.38,2.38,0,0,1,0,1c-.08.26.15.49.17.74a2.55,2.55,0,0,0-.15.86,2.48,2.48,0,0,1,0,1.35.94.94,0,0,1,0,.88,8.7,8.7,0,0,0,0,1l-.27.13c0,.11.07.23.11.35a3,3,0,0,1-1.06-.17l-.27.21a10.29,10.29,0,0,1-1.36,0,6.72,6.72,0,0,0-2,.08c-.15,0-.27-.09-.39-.15a1.64,1.64,0,0,1-.45-.1l-.26,0c0-.28,0-.55,0-.82a1,1,0,0,0,.57.14,1.94,1.94,0,0,1,0,.24c0-.19,0-.38,0-.58l-.13.17-.26-.12a1.16,1.16,0,0,0,0-.18.54.54,0,0,1-.19-.53c.2-.63-.32-1.27,0-1.87l-.22-.21.18-.17c0-.11,0-.22.07-.33l-.2-.37h-.35c0-.07.08-.22.11-.29l-.31.33v-.21l-.24.1.08-.25c-.28.08-.61.05-.84.27a8.28,8.28,0,0,0-1.32.08c-.33,0-.64-.15-1-.17a3.9,3.9,0,0,0-.67.18c-.27.14-.2.49-.27.74.18.07.09.29.14.43s.19.49.23.75a3.65,3.65,0,0,1-.13.92c.14.41,0,.87.12,1.29a2.54,2.54,0,0,1,0,.87,4.86,4.86,0,0,1,.07.93c-.08.71.19,1.46-.16,2.12.39.43.22,1.05.28,1.57a9.07,9.07,0,0,0,.12,1.38c.11.35-.17.68-.06,1a1.47,1.47,0,0,1,0,.69c.27.5-.08,1-.06,1.51a8.88,8.88,0,0,1,0,1.15,2.55,2.55,0,0,1,.18.67c0,.28-.18.55-.09.84s-.1.77,0,1.16a2,2,0,0,1,0,1.07,14.41,14.41,0,0,1,0,2.18c0,.36.16.7.07,1.06a4.76,4.76,0,0,0,.05,1l-.17.08a2.72,2.72,0,0,0,.16.74c.14.33,0,.69,0,1,.06.66,0,1.33,0,2,0,.27-.18.51-.09.78a2.8,2.8,0,0,1,0,1.32,4.41,4.41,0,0,1,0,1.45l-.21.06a1,1,0,0,1-.11,1.2c-.11.12-.26.33-.12.47a5.76,5.76,0,0,1,.83,0c.08.36.39.06.62.06l.25.19a1,1,0,0,1,.54-.09l.22-.1.2-.27c0,.1,0,.3,0,.4l.29-.3c0,.1,0,.31-.07.42a1.81,1.81,0,0,1,1.12-.18l-.09.22.4.1c0-.15-.09-.3-.13-.46.15.07.34.07.34-.14a6,6,0,0,1,.26-1.48l-.46,0a.79.79,0,0,1,.13-.48,2.13,2.13,0,0,1-.09-1.12c.06-.26-.09-.5-.11-.76s.18-.5,0-.75.08-.59-.06-.88a3.51,3.51,0,0,0-.06-.85,10.44,10.44,0,0,0,0-1.37h.28a4.64,4.64,0,0,1-.34-.9c-.07-.48.19-.94.17-1.43a3.83,3.83,0,0,1-.07-1.84c-.31-.53.07-1.12-.15-1.65-.07-.24-.15-.46-.22-.7l-.17,0a1,1,0,0,1-.36.15,1,1,0,0,1,.2-.29l-.27,0c-.22-.26-.59-.28-.81-.54a1.63,1.63,0,0,0,0-1l.13-.21c-.32-.43,0-1-.08-1.46a2.71,2.71,0,0,1,.07-1.2.63.63,0,0,1,0-.55c-.23-.47.17-.93.34-1.36h.29c0,.13,0,.25,0,.38l.23-.31a2.92,2.92,0,0,1,.78,0c.31.07.58-.23.9-.07l-.1.2c.24.07.44-.13.65-.22a5.86,5.86,0,0,0,1.45,0,7.5,7.5,0,0,1,.81.11c.31-.31.7,0,1.06-.11a2.81,2.81,0,0,0,1.4-.19c0,.17-.08.33-.11.5l.18.17,0,.35c.27,0,.37.27.35.49a4.86,4.86,0,0,1,0,1.08,1.42,1.42,0,0,1,0,.79c-.1.3.07.6.06.9s0,.9,0,1.35a2.69,2.69,0,0,0,0,.75,8.36,8.36,0,0,0,0,2.12c0,1.21,0,2.42,0,3.62a1.62,1.62,0,0,1,0,1,22.83,22.83,0,0,1,0,2.48,8.82,8.82,0,0,1,.11,1.63,3.28,3.28,0,0,0-.1,1.25l-.21.13a3,3,0,0,1,.31.91,6.59,6.59,0,0,1-.06,1.33,2.57,2.57,0,0,1,.19.67l-.36.08a.57.57,0,0,1,.23.39,3.51,3.51,0,0,1,0,1.21,1.13,1.13,0,0,1,0,.77c0,.42-.33.77-.23,1.2-.19.29-.27.66-.55.89a2.55,2.55,0,0,0-.44.43,2.15,2.15,0,0,1-.78.62c-.59.13-1.14.42-1.74.52a1.94,1.94,0,0,0-.68.06c-.31,0-.62,0-.93,0-.07-.08-.14-.17-.22-.25-.52.3-1.16.11-1.73.29-.3.16-.53-.25-.83-.11s-.89.28-1.26,0a.76.76,0,0,1-.39,0c-.33,0-.67.05-1,0s-.6.16-.9.07-.76,0-1.15,0-.75.18-1.13.06a2,2,0,0,0-.59,0,2.62,2.62,0,0,0-.78-.14c-.28-.2-.62-.3-.9-.49a4,4,0,0,1-.82-.83c-.09-.4-.51-.6-.63-1a3,3,0,0,1,0-.52c-.1-.25-.17-.49-.25-.74a1.72,1.72,0,0,1,.09-.68l-.26-.21c.36-.58,0-1.28.09-1.92a.83.83,0,0,0-.11-.55c.32-.64,0-1.34.09-2,0-.35.14-.7,0-1s.19-.5,0-.75c-.23-.64,0-1.34-.2-2a2.87,2.87,0,0,1,.16-.92,7.12,7.12,0,0,0,0-1.22.76.76,0,0,1,0-.49,1.61,1.61,0,0,1-.17-.74,6,6,0,0,0-.07-.95,2,2,0,0,1,.16-.68,4.52,4.52,0,0,0-.09-1,1,1,0,0,1,.07-.15,1.89,1.89,0,0,1,.16-.62,5.87,5.87,0,0,0-.19-2,4.9,4.9,0,0,1,.08-.77,2,2,0,0,0-.12-.84.34.34,0,0,0,.19-.46c.35-.3.14-.73,0-1.09a1.2,1.2,0,0,1-.26-.18l.27,0a1.24,1.24,0,0,1,0-.83c-.31,0-.17-.25-.1-.41l.17.09c-.07-.36-.13-.73-.21-1.09l.13,0a2.33,2.33,0,0,1-.17-.26c0-.09,0-.26,0-.35l.18.09v-.08l-.15-.06c0-.34-.28-.66-.13-1s0-.44-.08-.64l.31-.09c0-.1,0-.21.07-.32h-.09v.13h-.19a3.43,3.43,0,0,1,0-1,1.15,1.15,0,0,0-.09-.58l.15-.31a3.37,3.37,0,0,1-.11-1.41c.1-.33-.23-.63,0-1L97,25.38a3.32,3.32,0,0,0-.12-1.53c-.1-.74,0-1.49,0-2.23A11.21,11.21,0,0,1,97,19.79c0-.07,0-.21,0-.28A2.3,2.3,0,0,0,97,18.16c.22-.39.08-.84.24-1.24a2.81,2.81,0,0,1,.69-1.08c.31-.3.5-.7.83-1C99.25,14.93,99.51,14.29,100,14.42Zm10.35.32.33-.05a.65.65,0,0,0,.57.1c-.13-.2-.37-.16-.58-.14A.27.27,0,0,0,110.38,14.74ZM100.15,15c.15.09.34-.21.16-.28A.2.2,0,0,0,100.15,15Zm-1.29.43c-.06.18-.12.36-.17.54a1.79,1.79,0,0,0,.46-.41Zm14,.11a2,2,0,0,0,.49,0l-.21-.34C113,15.34,112.94,15.45,112.85,15.57Zm-14.54.8h.27l.12-.24C98.5,16.11,98.34,16.16,98.31,16.37Zm15.1-.4a6.17,6.17,0,0,0,.19.61l.28,0c-.1-.15-.17-.33-.37-.38l.16-.13Zm.25,1c.08.07.28,0,.21-.15S113.6,16.83,113.66,16.94ZM98,17.44c.15,0,.13-.29,0-.34S97.87,17.44,98,17.44Zm-.56,0h.4l-.25-.26Zm16.27,0-.19,0a3.53,3.53,0,0,0,.13,1c0,.15.16.23.25.32l0,.35.11-.13c0-.42-.31-.77-.38-1.19l.27.17c.08-.27-.1-.5-.16-.75A1,1,0,0,0,113.75,17.41Zm-16.29.25a1.09,1.09,0,0,1,0,.17.34.34,0,0,0,.35-.2C97.73,17.48,97.52,17.59,97.46,17.66ZM114,18c-.07.09.07.27.18.21S114.12,17.9,114,18ZM113.63,19a.17.17,0,0,0,.05-.28C113.48,18.61,113.42,19,113.63,19Zm-.29.88c.08,0,.14,0,.2-.07a6,6,0,0,0-.32-.62C113.27,19.44,113.3,19.67,113.34,19.9Zm-4.91-.14a.32.32,0,0,0-.31-.14C107.87,19.75,108.4,20,108.43,19.76Zm.1.08c0,.13,0,.18.13.13S108.67,19.79,108.53,19.84Zm4.13,13c0,.09,0,.26.06.35.36-.23.77-.09,1.16-.18,0-.15-.2-.15-.29-.22a1.79,1.79,0,0,1,0,.23l-.24-.18C113.11,32.84,112.87,33,112.66,32.8Zm-5.21.35c-.13.13.08.37.22.24S107.59,33.05,107.45,33.15Zm-.2.21a2.11,2.11,0,0,0,.18.74A.93.93,0,0,0,107.25,33.36Zm6.55.17.12.46-.34-.19v.32a1.3,1.3,0,0,1,.55.12c-.08-.12-.21-.24-.16-.4s0-.25,0-.36Zm0,.88a.92.92,0,0,1,.1.63l.14.18A1.31,1.31,0,0,0,113.79,34.41Zm-.17,1.13c-.12.14.12.3.21.15S113.72,35.38,113.62,35.54ZM103.81,45.9c-.14,0-.13.23,0,.23S104,45.89,103.81,45.9Zm-.12.4c0,.18.09.35.14.53l.35.05s0-.06,0-.08C103.81,46.85,104,46.34,103.69,46.3Zm.34.7c0,.15,0,.2.16.15S104.18,46.94,104,47Zm5.19,1.3a.26.26,0,0,0,.09.33C109.5,48.61,109.39,48.22,109.22,48.3Zm.62.58c0,.15,0,.2.16.15S110,48.82,109.84,48.88Zm-.42.25a3.09,3.09,0,0,0,0,.86H109c0,.2,0,.39.06.6a8.73,8.73,0,0,1,.19,1.36l-.25.11a.83.83,0,0,0,.27.37c0-.14,0-.29,0-.43.27-.13.09-.5.13-.73l.68,0s0-.13,0-.17l-.13.14a1.52,1.52,0,0,0-.6-.5c0-.07,0-.2,0-.26a1,1,0,0,0,.58.36c0-.06.05-.2.07-.27l-.18,0,0-.35-.23.22c-.11-.14,0-.21.13-.27a2.46,2.46,0,0,1-.28-.74c0-.12.15-.18.23-.27Zm-.51.14a.25.25,0,0,0,.1.37C109.16,49.58,109.09,49.19,108.91,49.27Zm2.41.17c-.09.16.2.27.32.21S111.44,49.35,111.32,49.44Zm-1.52.18c-.16,0-.1.35,0,.31S109.92,49.65,109.8,49.62ZM97.62,50c0,.14.11.28.17.42l0-.52Zm12.31.34c.08.14.16.13.23,0S110,50.15,109.93,50.3Zm4.36,3.15-.21,0v.41a6.1,6.1,0,0,0,.46.41,9.41,9.41,0,0,1-.11-1.18L114.3,53c0-.2,0-.4,0-.59A2.65,2.65,0,0,0,114.29,53.45Zm-5.14-.85c0,.13,0,.18.14.15S109.28,52.56,109.15,52.6Zm-2.62,1c-.11.14.14.27.23.15S106.62,53.44,106.53,53.58Zm8.17,0c0,.15,0,.2.16.14S114.86,53.48,114.7,53.54Zm-7.28.23.3.07-.36.22c0,.17.11.34.16.52l.26-.24c.2.15.32.1.36-.13l.25,0v-.18a.72.72,0,0,1-.5,0l.19-.15c0-.07-.07-.21-.1-.28A3.44,3.44,0,0,0,107.42,53.77Zm7.59,2c0-.2,0-.41.08-.61C114.8,55.18,115,55.54,115,55.74Zm-.86-.33s0,.11-.06.14C114.25,55.86,114.46,55.26,114.15,55.41Zm.25.8a.76.76,0,0,0,.13.55c0,.22,0,.45-.06.68l.13-.11a.33.33,0,0,0,.23.25A6.42,6.42,0,0,0,114.4,56.21Z"/><path class="cls-1" d="M52.15,15.07l.8.29.29-.18.28.16c.35,0,.69.06,1,0l-.16-.17.46-.05c0,.08,0,.23,0,.3a.8.8,0,0,0,.7-.36,2.71,2.71,0,0,0,.94,0c-.07.41.44.23.67.24,0,.07,0,.21,0,.29l.15-.19c0,.24.15.41.32.54l.29-.22a.7.7,0,0,1-.07.49l.1,0c0-.27.31-.22.5-.29a1,1,0,0,0,.06.5c.18.39,0,.82.06,1.24s-.11.84.05,1.24-.11.61.06.88a1.14,1.14,0,0,0,0,.75,1.79,1.79,0,0,1-.09.76,5.17,5.17,0,0,1,.09,2c0,.14.06.29.1.43h-.18c.06.11.19.2.17.34a12.05,12.05,0,0,0,.08,3.06l-.2.07a2.21,2.21,0,0,1,.21.79,2,2,0,0,0,0,.78c-.14.32.09.62.11.93.1.71-.21,1.42,0,2.12.07.35,0,.7,0,1,.13,1.23.11,2.47.12,3.71a2.26,2.26,0,0,0,0,.86,8.71,8.71,0,0,0,.07,2.39,1.85,1.85,0,0,0-.13.66,1.61,1.61,0,0,1-.17.74,4.22,4.22,0,0,0,.23.79c0,.6,0,1.21.08,1.81s-.09,1.16,0,1.73a3.84,3.84,0,0,1,0,1.72c-.07.33.09.68,0,1s0,.66-.21.92c.09.27-.06.71.27.8l-.21.07c.06.19.13.37.18.56a.88.88,0,0,1-.28.48,2.28,2.28,0,0,1,.39.48l-.39-.21a1.69,1.69,0,0,0,.12.54c-.26.33,0,.73-.12,1.1l-.26-.08v0l.34.13-.06.28a3.18,3.18,0,0,1,.9.73A1.51,1.51,0,0,0,60.1,54c0-.1,0-.2.07-.3.25,0,.5,0,.62-.28a2.36,2.36,0,0,0,.88,0,.85.85,0,0,0,.84-.12l.21.24-.19.29h-.26c0,.09-.07.17-.1.26l.38,0,.52-.34c0,.27-.42.33-.27.65a1.64,1.64,0,0,1,.6-.34c.12-.2.34-.36.32-.61,0-.52.27-1,.06-1.53.1-.38-.05-.78.09-1.15a4.76,4.76,0,0,1-.11-1.13l.23,0a.85.85,0,0,1-.06-.76,2,2,0,0,1,0-1,3.31,3.31,0,0,1-.16-1.26c.09-.12.24-.1.37-.13-.33,0-.5-.24-.46-.54a.69.69,0,0,1,.5.28l.19-.18-.27-.64-.29.16a1.54,1.54,0,0,1-.06-1.43l.23.23c.2-.37,0-.77.08-1.17a1.78,1.78,0,0,0-.17-.54c.33,0,.17-.26.06-.42a5.12,5.12,0,0,1,.09-1c-.16-.26,0-.56-.12-.82a3.51,3.51,0,0,1-.1-1.33c.34-.05,0-.42,0-.63a2.74,2.74,0,0,0-.09-1c.18-.13,0-.3.06-.46s-.2-.55-.16-.85-.19-.73,0-1.07c0-.34-.12-.67-.07-1a10.3,10.3,0,0,1,.14-1.46,2.56,2.56,0,0,1-.08-.73c.07-.39-.11-.78,0-1.17a.9.9,0,0,1,0-.56,3.94,3.94,0,0,0-.09-.76,1.42,1.42,0,0,0,0-.91c-.08-.33.11-.65.07-1-.21-.43,0-.91-.1-1.37,0-1.14-.09-2.29,0-3.43.06-.59-.23-1.15-.1-1.73s-.25-1,0-1.47c.08-.64-.21-1.31,0-2a2.07,2.07,0,0,1,.16-1c-.05-.16-.1-.31-.14-.47l.36.09c0,.09,0,.18-.05.28l.16-.24.29.08a.42.42,0,0,0-.17-.28.46.46,0,0,0,.35-.32l-.57.13a.4.4,0,0,1,.3-.39c.08.08.17.16.25.25l.16-.17,0,.24c.07-.08.13-.17.21-.25a2.84,2.84,0,0,0,.92,0c.29,0,.56.29.85.12s.38,0,.57.05a1.72,1.72,0,0,1,.87-.08,7.85,7.85,0,0,0,1.53-.08,3.48,3.48,0,0,1-.58.5c.12.1.24.2.35.31l.32-.09,0,.15a.85.85,0,0,1,.79.26l-.2.31c.16,0,.43-.08.49.16h-.3a1.15,1.15,0,0,0,.14.17l-.16.06.11.15h-.22a2.17,2.17,0,0,1,0,.95c.45-.1.19.52.41.74l-.19.16a3.36,3.36,0,0,1-.2.43c.08,0,.33-.17.28,0s-.25.15-.37.13c-.29.79.51,1.4.53,2.16a2.11,2.11,0,0,1-.12,1,9.84,9.84,0,0,1,.05,1.63,5.45,5.45,0,0,0,.06,1.14,1.39,1.39,0,0,0,.05.67l-.14,0a9.59,9.59,0,0,1,.17,1.78c.06.3-.1.58-.07.88a4.07,4.07,0,0,1,0,.7,1.4,1.4,0,0,1,.23.53c-.07.12-.13.24-.19.37a.92.92,0,0,1,.08.76c0,.21.11.46-.1.62l.14.07A11.32,11.32,0,0,0,71,33.52a1.66,1.66,0,0,1-.06.21c.14.34,0,.7,0,1.06l-.11.08c.15.08.11.26.13.4a18.56,18.56,0,0,1-.1,2.24,3.5,3.5,0,0,1,.21,1.16c-.08.48,0,1-.07,1.45l-.28-.21a1.37,1.37,0,0,0,.25.29,17.51,17.51,0,0,1,.08,2.9c-.39.41,0,1-.09,1.48a3.14,3.14,0,0,0,0,1.06.64.64,0,0,1-.13.49,2.45,2.45,0,0,1,.08,1.42,5.36,5.36,0,0,1,0,1.2c-.08.25.15.46.1.72-.06.45-.15.9-.17,1.36a2.71,2.71,0,0,1,.06.94c-.13.44.15.87.12,1.31a10.37,10.37,0,0,1,0,1.25c.1.49-.16,1-.12,1.44a10.85,10.85,0,0,0,0,1.14c-.19.36-.14.8-.4,1.13a3.7,3.7,0,0,1-.87,1.21c-.27.11-.47.31-.72.44a4.17,4.17,0,0,1-1.15.31l-.12.11c-.25-.16-.55,0-.82,0L66.57,60a2.33,2.33,0,0,1-.07-.25c0,.17-.09.35-.14.52a3.69,3.69,0,0,1-.38-.41,5.4,5.4,0,0,1-1.73.28,2.82,2.82,0,0,1-.76-.13,2,2,0,0,0-.8.2l.12-.3c-.6.08-1.2.17-1.81.21a6.38,6.38,0,0,0-1.45.16c-.16-.21-.42-.07-.64-.09a5.6,5.6,0,0,0-1.15.17l.11-.25a5.06,5.06,0,0,0-1.15.27,1.48,1.48,0,0,0-.86,0c-.37-.1-.76,0-1.13-.13-.48.19-.92-.15-1.27-.44s-.51-.38-.75-.59a1.15,1.15,0,0,1-.34-1,7.56,7.56,0,0,1-.48-1.64c-.12-.63,0-1.26,0-1.9.09-.6-.11-1.2-.08-1.8s0-1.15,0-1.73a9.21,9.21,0,0,1,0-2.1q0-.68,0-1.35a6.16,6.16,0,0,1,.29-1c0-.14-.12-.26-.17-.39s.11-.51.1-.77a4.8,4.8,0,0,1,0-.85,1.76,1.76,0,0,1,0-1.42c0-.24-.06-.49-.1-.73a.81.81,0,0,1,.18-.58c-.4-.58-.16-1.3-.25-1.94,0-.14.09-.27.13-.4a13.5,13.5,0,0,1-.08-1.91,4.43,4.43,0,0,0,0-1.15,1,1,0,0,1,0-.65c-.11-.62.07-1.27-.09-1.89a1.18,1.18,0,0,1,.09-.64,4.11,4.11,0,0,1-.07-1.21A5.43,5.43,0,0,1,51.67,31c0-.24.06-.53-.12-.73h.19a2,2,0,0,1,0-.42c.09-.35-.15-.69-.1-1a2.44,2.44,0,0,0,0-1.23,1.78,1.78,0,0,0-.06-1.07c.18-.35,0-.76.24-1.1a2.33,2.33,0,0,1-.16-.91,5.2,5.2,0,0,0-.08-1.42l.19-.32c0-.06-.08-.17-.1-.22a2.5,2.5,0,0,1,.05-.29l.57-.05-.28.38.31,0s0,.14,0,.18l.15-.25a2.81,2.81,0,0,1,0-1c-.21.17-.26.48-.51.6a2.13,2.13,0,0,1-.31-.29,4.29,4.29,0,0,1,.1-1.52,4.67,4.67,0,0,1-.17-1.62c.11-.43-.09-.87.06-1.3l-.14-.12.23-.23a1.3,1.3,0,0,1-.17-.94.9.9,0,0,0,0-.56A4.09,4.09,0,0,0,52.15,15.07Zm3.3.5v.07l.15.18c.27,0,.8.29.91-.1-.2,0-.51.2-.59-.1l-.22.13Zm-3.08,5.64.24-.09c0-.11,0-.22,0-.34A2.35,2.35,0,0,0,52.37,21.21Zm17.29-.62c-.14.09,0,.33.17.22S69.8,20.47,69.66,20.59Zm.15.67H70c.08-.11,0-.31-.16-.27A.16.16,0,0,0,69.81,21.26ZM52.8,22l.26-.05-.18-.25C52.86,21.75,52.83,21.85,52.8,22ZM70,21.41a1,1,0,0,1-.15.14l.49.1A4.15,4.15,0,0,0,70,21.41Zm-17.21.71c.1.15.15.4.39.37,0,.07,0,.2,0,.27l.32-.14C53.35,22.37,53,22.3,52.78,22.12Zm17.28-.19c0,.17.07.35.11.52a3.53,3.53,0,0,1,.24-.34L70.13,22h.19V21.9Zm-18,1.47.31.05c0-.13,0-.26-.08-.39Zm1.34-.3c-.1.14.15.25.24.14S53.53,23,53.44,23.1Zm-1.39.74c-.11.29.12.57.13.85s-.21.6,0,.85a.86.86,0,0,0,.09-.57c-.1-.4,0-.8,0-1.2l.24-.12A.55.55,0,0,0,52.05,23.84ZM64,24.19a2.75,2.75,0,0,1,.14.49l.3.11a2.17,2.17,0,0,1-.07-.24,2.17,2.17,0,0,0,.07-.24l-.26.22A1.83,1.83,0,0,0,64,24.19ZM64,26c0,.17.06.33.1.5l-.2,0,.25.31c0-.09.08-.18.11-.27-.12-.14,0-.3.06-.44Zm-11.83.58c.12,0,.16-.06.15-.19S51.93,26.5,52.17,26.62Zm-.08.85c-.16.2,0,.43,0,.65a1.54,1.54,0,0,1,.17-.19l-.18-.35c0-.1.07-.21.11-.31A1,1,0,0,0,52.09,27.47Zm12.1.27a3.67,3.67,0,0,1-.11.74l.14.11a2.14,2.14,0,0,0-.15.55,1.29,1.29,0,0,0,.17-1A2.73,2.73,0,0,0,64.19,27.74Zm0,1.89a.24.24,0,0,0-.1.31C64.2,30,64.32,29.66,64.16,29.63Zm0,1c-.06.09,0,.34.16.27S64.33,30.6,64.19,30.67Zm0,.33c0,.17,0,.34,0,.51a.29.29,0,0,1,0,.32c0,.18.06.36.09.54,0-.21,0-.42,0-.62l.25.08A2,2,0,0,1,64.18,31Zm5.81.94c.15-.06.08-.33-.09-.26S69.83,32,70,31.94Zm.25.46c-.12.09,0,.31.14.21S70.36,32.28,70.24,32.4Zm0,.5c-.08.08,0,.31.13.24S70.32,32.84,70.2,32.9Zm-.69.06c0,.13,0,.26.07.39C69.88,33.32,69.6,33.08,69.51,33Zm-11.29.73c0,.16,0,.21.14.17S58.37,33.64,58.22,33.69Zm-6,.69a1.58,1.58,0,0,0,.15.48c0-.13,0-.27,0-.4Zm6.08,2.5v0l.29.13v-.18Zm.13,2.43c-.08.13.12.28.22.16S58.48,39.19,58.38,39.31Zm.07.34s0,.1-.06.14C58.57,40.08,58.77,39.5,58.45,39.65Zm.1.38c-.08.11-.06.18.07.2S58.68,40.06,58.55,40ZM64.25,44c0,.23,0,.47,0,.71.06-.12.13-.25.2-.36S64.32,44.09,64.25,44ZM59,53.73l-.09.2a1.37,1.37,0,0,0,.35,0Zm1.62.21c-.15,0-.42.12-.18.23S60.75,54,60.58,53.94Zm3.34-.06c-.14.11,0,.33.16.17A.12.12,0,1,0,63.92,53.88Zm-2.55.3c0,.14.08.16.19.08S61.48,54.1,61.37,54.18Zm2.72.3c.13,0,.18,0,.15-.14S64.06,54.35,64.09,54.48Z"/><path class="cls-1" d="M29.09,15.56a1.49,1.49,0,0,0,.75-.15.93.93,0,0,0,.58.16,19.19,19.19,0,0,0,2.4-.1,15.79,15.79,0,0,0,2.48,0A28.42,28.42,0,0,0,39,15.38a2,2,0,0,1,1,.08c.43.27.95-.06,1.38.18l.26-.07.14-.3a1.88,1.88,0,0,0,.16.23c.25,0,.6-.14.78.13l.18-.16a3.37,3.37,0,0,1,1,0,3.87,3.87,0,0,1,1.17.1l.1.15c.57,0,.85.49,1.2.84a1.77,1.77,0,0,1,0,.23,1.26,1.26,0,0,1,.32.56,8.52,8.52,0,0,1,0,2.31,3.39,3.39,0,0,0,.15.77c-.19.4,0,.82,0,1.23s.05.65-.07,1c.16.43,0,.88.06,1.32a8.7,8.7,0,0,1,0,1.25,1.1,1.1,0,0,0,0,.76c.15.31-.13.64,0,.94l-.16.09c.15.18.06.4.06.61s.26.63.07.95l.1.19a6,6,0,0,1,0,.73l.08.14a9.77,9.77,0,0,0,0,1.71,14,14,0,0,1-.15,3c.2.4,0,.84.05,1.25a2.07,2.07,0,0,0,.12.59,9.08,9.08,0,0,0,0,1.88,7.73,7.73,0,0,1,0,1.36c0,.25-.2.43-.25.67a4,4,0,0,1-.39,1,10.27,10.27,0,0,0-.78.68,5.44,5.44,0,0,1-.57,0,.72.72,0,0,1-.82.44,8.8,8.8,0,0,1-1.85.08c-.69.13-1.41,0-2.11.11-.76-.18-1.52.19-2.29,0-.26-.08-.51.14-.77,0a1.58,1.58,0,0,0-1,0c-.19.25-.08.58-.07.86l-.31.07.4.2c-.21.13-.19.22,0,.28a3.93,3.93,0,0,1,.06.48l-.23-.28-.1.06a3.78,3.78,0,0,1,.32.87l-.25-.09.26.21a6.43,6.43,0,0,0,.1,2c0,.1-.09.2-.13.29.27.7.06,1.47.26,2.18,0,.2-.11.39-.14.59s.11.56.12.85a12.26,12.26,0,0,0-.05,1.82c0,.19-.09.29-.28.27a4.43,4.43,0,0,1,.27,1.25,1.21,1.21,0,0,1-.08.46.82.82,0,0,1,0,.91c.19.32.06.71.17,1.05-.21.36,0,.74.06,1.1a10.14,10.14,0,0,1-.08,1.65c0,.26-.42.29-.44.55a.32.32,0,0,0,.16.4l-.21.15c0-.09-.06-.18-.08-.26-.06.1-.1.21-.16.32-.37.17-.8.05-1.17.22s-.93-.22-1.4,0a2.79,2.79,0,0,1-1.15,0,1.52,1.52,0,0,1-.87-.06A1.06,1.06,0,0,1,30,60.6l.25-.07a2.74,2.74,0,0,1-.05-.28l-.25.17a1,1,0,0,0-.21-.58.23.23,0,0,0-.13-.31l-.05.3c-.11-.19-.33-.38-.23-.62a1.53,1.53,0,0,0,0-.85c.15-.29,0-.59,0-.88a4.76,4.76,0,0,1,.06-.65,3.24,3.24,0,0,1,0-1.24c-.19-.54.1-1.1-.07-1.64a2.11,2.11,0,0,0-.06-1.27c0-.36.21-.72.08-1.08s0-.53-.05-.8c-.1-.66.2-1.34,0-2l.24-.29a2.74,2.74,0,0,1-.06-1.07,5.7,5.7,0,0,1-.06-1.09,2.2,2.2,0,0,1-.06-1.69,6.29,6.29,0,0,1-.17-1.22c0-.18.15-.29.24-.41l.11.33h.29c-.05-.12-.1-.24-.16-.36.07-.55-.53-.73-.9-1l.33,0c0-.06,0-.19-.06-.25l-.27.09c-.05.17-.14.4-.36.26,0-.07.07-.22.09-.3-.18-.3-.1-.66-.19-1a2.56,2.56,0,0,1,0-1.23,3.12,3.12,0,0,1-.07-1c0-.26-.07-.52,0-.78a9.83,9.83,0,0,1,.14-1.33,1.72,1.72,0,0,1-.07-.21,1.21,1.21,0,0,0,.34-.74c.18-.12.45,0,.59-.21a1.52,1.52,0,0,0-.15-.66,1.17,1.17,0,0,0,0-1,2.25,2.25,0,0,0,0-1.15c-.09-.22.11-.42,0-.65s0-.71,0-1.07a6.26,6.26,0,0,1,0-.75A3.9,3.9,0,0,1,29,28.84a1.74,1.74,0,0,1-.06-1l.12-.11a.64.64,0,0,0-.16-.29l.06-.09a.69.69,0,0,1-.07-.47,3.33,3.33,0,0,0-.09-1c.06-.22.19-.44.1-.67a2,2,0,0,1,0-1.06,1.39,1.39,0,0,1,0-.88,13,13,0,0,0-.08-2.07,2.59,2.59,0,0,0,0-1,.67.67,0,0,1,0-.44,4.26,4.26,0,0,1-.09-1.42,2.75,2.75,0,0,0-.12-.86,6.51,6.51,0,0,0,.06-1.25A.88.88,0,0,1,29.09,15.56Zm.14.48c-.09.17.24.33.33.16A.25.25,0,0,0,29.23,16Zm12.48-.16a.94.94,0,0,0-.1.1C41.67,16.32,42.07,15.84,41.71,15.88Zm1.79.06.27.37c.18,0,.38,0,.45-.25Zm1,.33a1.79,1.79,0,0,0,.44.34c0-.12-.06-.23-.1-.35Zm1.25.25c-.08.13.1.39.26.32S45.86,16.48,45.71,16.52Zm-9.6,5.67c-.14.16-.27.42-.12.6.31.47,0,1.05.22,1.55a.7.7,0,0,0-.11.49c0,.27-.07.54,0,.8l-.09.22a1.85,1.85,0,0,1,.07,1.35,1.21,1.21,0,0,1,0,1.14,1.36,1.36,0,0,1,.1.69c.16.35-.12.73.13,1,0,1.27,0,2.55,0,3.82a.45.45,0,0,1-.5.42c.14.16,0,.3-.12.4a.8.8,0,0,0,.63.63c0,.1-.07.29-.09.38.47-.12.91.22,1.37.07a7.5,7.5,0,0,1,1.16,0l.12-.19c.12.24.35.11.55,0l.4.39a2,2,0,0,0,.24-.26c0-.28-.41-.46-.28-.76s.29-.09.44-.09c0,.1,0,.3-.07.4l.53-.13c0-.44-.36-.82-.18-1.28l-.25,0c.15-.12.48-.15.46-.4l-.21-.19c0,.06,0,.18,0,.25l-.42-.19c0,.31,0,.62.06.94,0,.09-.07.19-.11.28a2.54,2.54,0,0,1-.27-1.88c0-.13-.07-.26-.11-.39A1.34,1.34,0,0,1,40,32a3.79,3.79,0,0,0-.2-.34l0-.22c-.2-.29.06-.61,0-.92s0-.69-.1-1,0-.59-.09-.88.18-.42.19-.64a3.09,3.09,0,0,1-.25-.66c.2-.51-.08-1.05,0-1.57a1.12,1.12,0,0,0-.08-.7,4.64,4.64,0,0,1,.06-.83,4.31,4.31,0,0,1,0-1.19l.16.11.1-.34a3.32,3.32,0,0,0-.25-.54l.09-.2a4.83,4.83,0,0,0-.46-.44l0,.25-.13-.1a.67.67,0,0,1-.39.24l.09-.24-.44,0-.17-.12a1.5,1.5,0,0,1-1,0l-.44.19-.28-.21A.59.59,0,0,0,36.11,22.19Zm-7,.85c-.11.13.1.33.23.21S29.27,22.93,29.14,23Zm.75,1.1c0,.16,0,.21.17.16S30,24.09,29.89,24.14Zm-.46.4c-.06.16,0,.21.15.16S29.58,24.49,29.43,24.54Zm10.42-.07c-.09.13.11.27.21.16S39.94,24.35,39.85,24.47ZM29.33,26.24c-.11.16,0,.33,0,.48l-.23.2a1.14,1.14,0,0,1,.19.8l.1,0c0,.13-.06.28,0,.38,0-.13,0-.26,0-.39l.24-.23a2.77,2.77,0,0,1,0-1.28Zm17.05.22a.36.36,0,0,0,0-.4C46.26,26.08,46.25,26.44,46.38,26.46ZM29.22,29.31c-.09.13.14.26.23.15S29.31,29.21,29.22,29.31ZM40.61,32a.25.25,0,0,0,.1.32C40.89,32.33,40.79,31.94,40.61,32Zm-11.26.44c0,.16,0,.21.17.16S29.5,32.43,29.35,32.48Zm5.45,1a1.18,1.18,0,0,1,.45.58,1.21,1.21,0,0,0-.2-.69Zm.2.91,0,.28.23-.17c0,.2-.2.36-.14.56s.59.35.57.72l.21-.1-.3-.25c.21-.22-.16-.41-.29-.56s0-.24,0-.36Zm-.2.28c0,.14,0,.19.13.14S34.94,34.61,34.8,34.65Zm.49.92c0,.14,0,.18.14.13S35.42,35.52,35.29,35.57Zm-6.54.34c-.07.11.06.3.18.22S28.87,35.81,28.75,35.91Zm6.32.18c.19.15.43.24.56.46l.53-.07c-.07,0-.1-.17-.21-.16A8.75,8.75,0,0,1,35.07,36.09ZM39.53,36a5.3,5.3,0,0,0-.46.6,1.73,1.73,0,0,0,.51-.12C39.56,36.36,39.55,36.2,39.53,36Zm-2.62.16a2.9,2.9,0,0,1-.19.34c.2,0,.56.32.61,0l.21.07,0-.2-.27-.14Zm.78.06c0,.06,0,.19.06.26.32.13.62-.23.92,0-.11-.13-.24-.23-.42-.15A.43.43,0,0,0,37.69,36.26Zm8.72,2c0,.16,0,.21.17.15S46.57,38.2,46.41,38.25ZM44,41.54c0,.16,0,.21.16.16S44.13,41.49,44,41.54Zm-1.09.29a.18.18,0,0,0,.34,0C43.17,41.69,42.91,41.7,42.88,41.83ZM36,43.75a.53.53,0,0,0-.17-.36C35.61,43.42,35.84,44,36,43.75Zm-6.4.11c0,.13,0,.18.14.14S29.71,43.82,29.58,43.86Zm-.08.57.12.1.24-.1c0,.06,0,.18,0,.24l.12,0a3.07,3.07,0,0,0-.26-.43C29.56,44.11,29.55,44.32,29.5,44.43Zm.42,1.1a3.42,3.42,0,0,0,.21.43l0-.17h.28a2.31,2.31,0,0,1-.1-.28Zm-.46.6a5.33,5.33,0,0,1,.32.46,2.69,2.69,0,0,1,0,.49l.15-.31c.11.15.19.36.39.42a.7.7,0,0,1-.21-.71l.19-.1a1.46,1.46,0,0,0,.09-.13l-.21-.15.11.26L30,46.28l-.11-.3Zm.81.25c0,.09,0,.3.12.27a.43.43,0,0,0,.05-.25Zm-.54.87a2.77,2.77,0,0,1-.1.26H30C29.9,47.42,29.82,47.33,29.73,47.25Zm5,9.44.27.19c0-.14.07-.28.1-.42C35,56.41,34.84,56.53,34.77,56.69Z"/><path class="cls-1" d="M75.32,15.05c.2-.29.54-.21.83-.15.62-.23,1.28,0,1.91-.12.35,0,.7.11,1.06.07s.66-.16,1,0a1.37,1.37,0,0,1,.75,0,2.79,2.79,0,0,0,1.15,0c.13,0,.23-.16.37-.08.37.1.78-.08,1.15.08a5.7,5.7,0,0,1,1.7-.14c.31.15.64-.08,1,0s.86-.07,1.27.1c.17,0,.39.24.52,0a8.48,8.48,0,0,0,1.32-.23l.18.24c.26,0,.55-.21.78,0h.35a3.16,3.16,0,0,0,.88.44,4.22,4.22,0,0,1,.74.89c.13.13,0,.31,0,.46a.6.6,0,0,1,.14.56c-.11.43.09.86,0,1.29,0,.28.07.55,0,.83a8,8,0,0,0,0,1.89c.1.57,0,1.15.07,1.72s0,1-.11,1.46l.12.17a3,3,0,0,1-.11.67c.39.48-.26,1-.14,1.54L92,27l.09.28a1.17,1.17,0,0,1,.27,0,.52.52,0,0,1-.15.27c0,.14.1.29.15.43a.35.35,0,0,0,0,.33h-.15a2.54,2.54,0,0,1,0,1.34,4.81,4.81,0,0,1,.28.75,8.78,8.78,0,0,1,0,1.54c0,.18-.15.29-.23.43s0,.41,0,.61l-.19.23c.07.12.15.24.23.36l-.17,0c0,.33-.34.5-.35.81s-.33.44-.45.69-.5.23-.76.25a2.44,2.44,0,0,1-.1.24,8,8,0,0,0,1.14.79,2.83,2.83,0,0,1-.2.28,1.52,1.52,0,0,1,.61.62c.13.35.59.35.74.67a6.69,6.69,0,0,0,.12.74l-.24,0v.12l.26,0a2,2,0,0,1,.09.93,8.65,8.65,0,0,0,0,2,9.55,9.55,0,0,1,.1,1.2c.08.34-.16.66-.07,1,.18.87-.07,1.76.08,2.63.08.44-.07.88,0,1.32s-.17.59,0,.88c.24.61-.12,1.28.13,1.88l-.11.21a18.47,18.47,0,0,0,.11,2c-.14.4.06.89-.25,1.23a.62.62,0,0,0-.09.29l.2-.13c.28.13.08.38-.09.5a1.14,1.14,0,0,1,.17.15c0,.23,0,.46,0,.69a1,1,0,0,1,0,.73l-.26.1.11.27c-.06.47-.41.84-.42,1.31a3.52,3.52,0,0,1-.56.39,1.43,1.43,0,0,1,.11.15,1.22,1.22,0,0,1-.62.47c-.39.14-.65.57-1.1.58s-.65.21-1,.17a4.85,4.85,0,0,0-.93.06c-.31.1-.64,0-1,.06-.59.13-1.21,0-1.8.13-.29.06-.56-.14-.85-.09a7.85,7.85,0,0,0-1.82.14,7.84,7.84,0,0,0-1.81-.07c-.24,0-.48.16-.72.07a4.29,4.29,0,0,0-1.19-.05c-.33,0-.64.16-1,.1a6.79,6.79,0,0,0-1.1-.08c-.16,0-.16-.18-.2-.29a3.83,3.83,0,0,1-.69.37c-.2,0-.34-.15-.49-.24l.21-.05-.29-.49a.8.8,0,0,0,.27-.18l-.16-.22.12-.54a.57.57,0,0,1-.2-.71l.52.17c0-.19-.15-.22-.28-.28a.67.67,0,0,0-.3-.28l-.06-.5.16-.12a1.74,1.74,0,0,0-.1-.19c.13-.32-.13-.65,0-1a1.61,1.61,0,0,1-.08-.38,4.28,4.28,0,0,0,0-1.71,2.84,2.84,0,0,1,.06-.87c0-.31-.11-.63-.13-1a6.79,6.79,0,0,0,0-1.91,8.19,8.19,0,0,0,0-2.37,4.32,4.32,0,0,0,.07-1.64,5.09,5.09,0,0,0-.07-1.23,1.19,1.19,0,0,0,.07-.59,8,8,0,0,1-.1-1.62c0-.39.28-.77,0-1.14a1.47,1.47,0,0,0-.06-.78l.17,0a2.85,2.85,0,0,1-.23-.26c0-.06,0-.17,0-.23-.29-.09-.75-.29-.55-.67a.41.41,0,0,1-.13-.45l-.3-.08a5.88,5.88,0,0,1-.12-1.33,1.26,1.26,0,0,1,0-.47,1,1,0,0,1-.1-.67,1,1,0,0,0,0-.77c.19-.35.06-.75.07-1.13s0-.58,0-.88l.22-.08c0-.09.06-.18.1-.27l-.22-.18a.78.78,0,0,0,.6,0,.58.58,0,0,0,.37,0l-.08.24.22-.2c0-.13-.05-.28,0-.4l.26,0c-.07-.15-.3-.37,0-.38,0-.12-.08-.24-.11-.36l-.3-.17a2.06,2.06,0,0,0-.21-.42A2.31,2.31,0,0,0,75.51,30c-.05-.49.18-1-.05-1.47h.2c-.15-.13-.14-.33-.18-.51.41-.14.16-.6.14-.89s-.26-.48-.19-.76a9.47,9.47,0,0,0-.09-1.06c0-1.66,0-3.31-.06-5a7.47,7.47,0,0,1,0-1.06,13.27,13.27,0,0,0,0-1.41.78.78,0,0,0-.12-.61,2.27,2.27,0,0,0,0-1.52A4.61,4.61,0,0,0,75.32,15.05Zm14.61.17a2.85,2.85,0,0,1,0,.29.89.89,0,0,0,.63-.19A4.17,4.17,0,0,0,89.93,15.22Zm1.78,1.14c0,.16.07.31.11.47l-.33,0,.27.33a.41.41,0,0,1,.22-.37,1.55,1.55,0,0,1,0-.22Zm-7.6,4.16a.26.26,0,0,0,.3,0C84.5,20.32,84.05,20.34,84.11,20.52Zm-.72.4a4.25,4.25,0,0,0-1,0l-.19.29a1,1,0,0,1,0,.63c.2.35,0,.76.11,1.14s-.15.71-.12,1.07A10,10,0,0,1,82,26.2a2.06,2.06,0,0,0,.15.48c-.07.38.08.8-.22,1.11l-.11-.16-.19,0a1.48,1.48,0,0,0,.18.47c.14.1.32.15.42.3-.33.14-.14.47,0,.69a1.75,1.75,0,0,1,0,.91,2.63,2.63,0,0,1,.13,1,4.36,4.36,0,0,0,0,1.14c0,.22,0,.48.16.64,0,0,.14-.1.19-.14a.73.73,0,0,0,.8.11.52.52,0,0,0,.33.44,1,1,0,0,1,.56-.31v.34l.28-.19.24.11c.33-.17.67-.31,1-.49,0-.24-.1-.5-.13-.74,0-.45-.12-.89-.08-1.33a7.92,7.92,0,0,1-.05-1.82,12.23,12.23,0,0,0,0-1.6l.3.05-.2-.12a3.71,3.71,0,0,1,0-1c.15-.36-.14-.7-.11-1.07s.2-1,0-1.53a4.67,4.67,0,0,0-.09-1.12c-.11-.23.1-.4.23-.56a1.31,1.31,0,0,0-.19-.75,6,6,0,0,1-.59-.22c-.41-.15-.83.12-1.25,0l0-.18C83.6,20.76,83.54,21,83.39,20.92Zm2.06-.2c0,.13.08.16.2.07S85.57,20.64,85.45,20.72Zm6.18.4a.16.16,0,0,0,0,.29C91.81,21.44,91.84,21.06,91.63,21.12Zm-5.76,2.5.36-.07a2.46,2.46,0,0,1,0-.47A.7.7,0,0,0,85.87,23.62ZM75.94,26.2c-.13.07-.13.13,0,.2S76.06,26.27,75.94,26.2Zm5.74.15c-.06.09-.1.35,0,.39S81.83,26.38,81.68,26.35Zm-5.9.46c-.07.15.07.3.12.44C75.87,27.12,76,26.76,75.78,26.81Zm5.91.05c0,.16,0,.2.16.15S81.84,26.81,81.69,26.86Zm-5.83.52c-.1.1,0,.34.13.33S76,27.37,75.86,27.38ZM78,28.7h.29l-.15-.22C78,28.45,78,28.62,78,28.7Zm-.57.35c-.09.2.33.29.36.1A.29.29,0,0,0,77.4,29.05Zm-1,.16a4.71,4.71,0,0,0,.09.52l.19-.13.31-.09-.26,0Zm-.46.61a6.16,6.16,0,0,1,0,1C76.31,30.6,76.14,30.06,75.9,29.82Zm-1,3.18a2,2,0,0,1,.13.18c-.18.13-.46.23-.4.51l.5,0c0-.22,0-.44,0-.67Zm10.34.37c.2,0,.41.05.62.05l-.3-.26C85.44,33.16,85.35,33.3,85.25,33.37Zm-.67,5.46a.54.54,0,0,0,.43.35l-.2-.34Zm-9.4.27c0,.14,0,.18.15.14S75.31,39.06,75.18,39.1ZM83.83,39c0,.16,0,.21.16.16S84,38.91,83.83,39Zm-1.8.39c.19.1.37,0,.53-.12C82.39,39,82.17,39.23,82,39.35Zm.51.34a.43.43,0,0,0-.06.45c-.36.56,0,1.21-.06,1.81a14.35,14.35,0,0,0-.08,1.61,6.33,6.33,0,0,1,.06,1.63l.09,0a1.5,1.5,0,0,0-.07.76,4.07,4.07,0,0,1-.1,1.25c.06.23.17.45.23.69-.15.81.06,1.64-.11,2.45a3.59,3.59,0,0,0,.09.86,5,5,0,0,1-.19.76l.22,0-.29.16-.06.46.16-.06a1.34,1.34,0,0,1-.27.74l.45.14a.73.73,0,0,0,.57.37l.21.27c0-.35.34-.38.58-.51,0,.18,0,.32.23.34a1.64,1.64,0,0,1,.83-.25c0,.13,0,.26,0,.39.32-.12.7-.12,1-.36a.58.58,0,0,1,.41-.62.56.56,0,0,0-.45-.41c0-.56,0-1.13,0-1.69a5.48,5.48,0,0,0,0-1.28c-.06-.17,0-.33.08-.5l.22,0a3.31,3.31,0,0,0,.12.45,1.12,1.12,0,0,0-.1-.76,2.14,2.14,0,0,1,.1-.22l-.18.09c-.09-.09-.24-.16-.24-.3a3.08,3.08,0,0,1,0-.91c-.08-.2,0-.41-.06-.61a1.31,1.31,0,0,1,0-.59,17.19,17.19,0,0,0-.06-2.78,4.85,4.85,0,0,0,.06-.93c-.08-.32,0-.65,0-1a7.81,7.81,0,0,1,0-1.45,7.2,7.2,0,0,0-.29-1.13l0,.3a.62.62,0,0,0-.5.06.19.19,0,0,1-.34-.11,1.61,1.61,0,0,1-.6.36c.1-.21.22-.4.32-.61a3.8,3.8,0,0,0-.55.42.69.69,0,0,1-.15-.48C83.39,39.47,82.81,39.33,82.54,39.69Zm-6.87-.41c0,.14.08.16.19.07S75.78,39.19,75.67,39.28Zm.22,2.12c-.1.1,0,.31.16.22S76,41.3,75.89,41.4Zm.22,1.76c.09.06.27-.07.2-.18S76.05,43.05,76.11,43.16Zm.36,1c0,.15,0,.2.16.15S76.63,44.09,76.47,44.15Zm-.45.18a1.45,1.45,0,0,0,.09.65l.29-.28A.8.8,0,0,0,76,44.33ZM87,49.59l.24.34-.32,0a3.12,3.12,0,0,1,.26.66c.31.09.12.53.16.77l.26,0c0-.11-.08-.34-.11-.45l.28.25,0-.22-.36-.31c-.07-.31-.24-.62,0-.92l-.1-.07c.13-.17,0-.32-.1-.47C87,49.35,87,49.47,87,49.59Zm.62-.36c-.08.08,0,.29.13.23S87.69,49.17,87.57,49.23Zm-1.3.52c-.11.1,0,.31.16.22S86.39,49.66,86.27,49.75Zm.06.45-.12.33c.16.19.1.44.15.67C86.45,50.87,86.62,50.48,86.33,50.2Zm6,.89c0,.16,0,.21.16.16S92.49,51,92.34,51.09Zm-6.11.42c-.1.13.13.26.22.13S86.31,51.39,86.23,51.51Zm.12.26c0,.16,0,.21.16.15S86.51,51.71,86.35,51.77Zm5.77-.09a5.59,5.59,0,0,0,.38.73,2.75,2.75,0,0,0,.09-.5A2,2,0,0,1,92.12,51.68Zm.33,1.4c0,.15,0,.21.17.16S92.61,53,92.45,53.08Zm-9,1c.06.12.26.09.37,0S83.46,53.85,83.44,54.06ZM91.68,54c.11.23.11.57.41.62a2.69,2.69,0,0,0-.2-.27l0-.28ZM76,55.05c-.15.1,0,.33.15.23S76.1,54.93,76,55.05Zm.35,2.88c0,.2.13.49-.12.61l.22.52.24-.18-.22-.1c0-.17,0-.34,0-.52A2.26,2.26,0,0,0,76.31,57.93Zm10.37,1.19c-.05.15,0,.2.15.16S86.84,59.07,86.68,59.12Z"/><path class="cls-1" d="M57.31,15.29a2.8,2.8,0,0,1,.71-.06,2.51,2.51,0,0,0,.46.16c.21,0,.24.25.29.39a1.32,1.32,0,0,1-.85-.32C57.69,15.49,57.38,15.6,57.31,15.29Z"/><path class="cls-1" d="M69.44,15.64a.47.47,0,0,1,.51-.07,2.83,2.83,0,0,1,0,.3l.5.07-.19.27c-.28,0-.61,0-.68-.36C69.54,15.8,69.28,15.73,69.44,15.64Z"/><path class="cls-1" d="M97.27,33.2c.08-.13.32,0,.22.13S97.17,33.34,97.27,33.2Z"/><path class="cls-1" d="M114.14,53.84a.15.15,0,0,1,.24-.06V54C114.27,54.12,114.12,54,114.14,53.84Z"/><path class="cls-1" d="M59.92,73.11c.36,0,.43.49.39.76a1.64,1.64,0,0,1,.22.71.88.88,0,0,1-.43-.24A.73.73,0,0,0,60,74c0,.15-.09.3-.14.45l-.25-.21a5.62,5.62,0,0,1,.16-.71l.14.08C59.92,73.42,59.92,73.26,59.92,73.11Z"/><path class="cls-1" d="M31.23,113.56h7l1.67-1.46V110l-1-.85H28.27v-2.92H40.5l3,2.55v4.51l-3.61,3.17h-7L31.23,118v2.43H43.07v2.92H27.63v-6.57Z"/><path class="cls-1" d="M72,106.26v17h-3.6V109.18H58.82V123.3h-3.6v-17Z"/><path class="cls-1" d="M80,118.19v5.11h-3.6v-17H89.64L93,109.18v6.09l-3.34,2.92Zm8-9H80v6.09h8l1.42-1.22V110.4Z"/><path class="cls-1" d="M110,106l3.6,3.17v11.2l-3.6,3.17H99.57L96,120.38v-11.2l3.6-3.17ZM99.57,110.4v8.76l1.68,1.47h7.08l1.67-1.47V110.4l-1.67-1.46h-7.08Z"/><path class="cls-1" d="M122.38,123.3V109.18h-6.69v-2.92h17v2.92H126V123.3Z"/><path class="cls-1" d="M148.79,111.62l-10,11.68h-3.34v-17H139V118l10-11.69h3.35v17h-3.61Z"/><path class="cls-1" d="M82.43,152.53H70.33l-3.6-3.16V138.65l3.6-3.16h12.1v2.92H72l-1.67,1.46v8.28L72,149.61H82.43Z"/><path class="cls-1" d="M102.92,145.71V150l-3,2.55H85.8v-17H99.06l3,2.55v4l-1.67,1.34Zm-5.53-7.3h-8v4H97l1.42-1.22v-2Zm1.93,10.35v-2.19l-1.42-1.22H89.41v4.26h8.88Z"/><path class="cls-1" d="M105.67,152.53v-2.92h3.61v-11.2h-3.61v-2.92h10.82v2.92h-3.61v11.2h3.61v2.92Z"/><path class="cls-1" d="M125.14,152.53V138.41h-6.7v-2.92h17v2.92h-6.69v14.12Z"/><path class="cls-1" d="M155.38,135.49l-9.27,17h-3.86l2.19-4.14h-1.16L136,135.49h4L145.86,146l5.66-10.47Z"/><path class="cls-1" d="M81.85,160.39l-7.54-.13a24.46,24.46,0,0,0-.45-4.38l-6.64-.71-.45,0-.3-.34-3.33-5.54L61.36,140s1.36-1.48,2.72-2.89a33.56,33.56,0,0,0-21.62-9.5l-2.64,0a33.81,33.81,0,0,0-33,31.52L1.34,159a1.32,1.32,0,0,0,0,2.64l5.43.15a33.81,33.81,0,0,0,31.93,33.39l-.1,4.79a1.32,1.32,0,0,0,2.64,0l.1-4.79a33.79,33.79,0,0,0,33-32.27l7.5.13a1.33,1.33,0,0,0,1.35-1.3A1.32,1.32,0,0,0,81.85,160.39ZM53.75,134.9c-.2,2.37-3.13,2-4.68.14a6.36,6.36,0,0,0-2.84.58l-.64.28a25.47,25.47,0,0,1,19.24,24.19l-2.64,0A22.8,22.8,0,0,0,42.35,138l-.07.05.11-6.17A29.55,29.55,0,0,1,53.75,134.9Zm-10,8.67A3.13,3.13,0,0,1,42.17,145l.07-4.19C44,140.34,45.18,141.23,43.72,143.57Zm-28.55,2.57a6.06,6.06,0,0,0,4-.85,25.69,25.69,0,0,1,4.58-4.68,7.07,7.07,0,0,0,.38-.86c1.33-1,.57-1.77-.79-2.41a29.26,29.26,0,0,1,16.46-5.53l-.21,12.32c-1-.62-2-1.22-3.12-.56,1.24,1.12-3.44,2.67-4.82,2.72-2.8-.51,2.36,2.09.37,2.92-5.77.84,2.76,4.14,3-.52,2.1-1.11,3.38-.37,4.5.87l0,2.19a1.32,1.32,0,0,0,2.41.77A4.11,4.11,0,0,0,46,154c-1.49-2.26.4-4.87,3.28-5.15,5.17,1.53-3.52,3.91.28,4.65-.44,2.11-5.37,2.62-7.2,4.48-5.81-.26-7.88-8.75-14.14-5-2.85.56-4.91,3.38-5.62,6.37L14,159.22c0-.24,0-.49.05-.73a5.74,5.74,0,0,0-2.76-1.82A29.15,29.15,0,0,1,15.17,146.14Zm4.09,35.79a29.34,29.34,0,0,1-8-16.22A11.06,11.06,0,0,1,13,161.84l3.37.06a23.86,23.86,0,0,0,21.14,21.77c.38,0,.85.07,1.34.09l-.13,7.14A29.39,29.39,0,0,1,19.26,181.93Zm18.38.54a22.64,22.64,0,0,1-20-20.55l4.69.08a7.29,7.29,0,0,0,.25,1.64c1.81,5.56,6,6.08,11,6.38,3.83,2.06,2.37,2.37,3.19,7.2.35,0,2.42,1.41,2.77,1.41l-.4-7.11a1.32,1.32,0,0,1,1.34-1.3,1.33,1.33,0,0,1,1.3,1.35l-.19,11A35.9,35.9,0,0,1,37.64,182.47Zm3.86.74,0-.55v.55Zm-.13,7.73.05-2.65a10.1,10.1,0,0,0,4.33,2.21A30.37,30.37,0,0,1,41.37,190.94Zm19.71-8.29a29.42,29.42,0,0,1-13.89,7.56c.71-.48,1.16-1.54,1.17-3.46a7.26,7.26,0,0,1,.1-2.43,25.12,25.12,0,0,1-7,1.58l0-2.66a22.27,22.27,0,0,0,8-2.24c1.86-4.69,5.46-10.07,7.15-13,.71-2,2.3-3,2.92-4.92a4.8,4.8,0,0,0,2.45.62c.05-.33.08-.66.12-1l2.64,0c0,.34-.06.68-.1,1,1.3.15,2.32.73,2.52,2.88.48,2.94,1.34,2.47,2.25,1.18A29.35,29.35,0,0,1,61.08,182.65Z"/></g></g></svg>