<svg xmlns="http://www.w3.org/2000/svg" viewBox="0 0 147.66 147.92"><defs><style>.cls-1{fill:#fff;}</style></defs><title>Ресурс 15</title><g id="Слой_2" data-name="Слой 2"><g id="fun"><path class="cls-1" d="M24.26,142.69v3.16l-2.19,1.89H11.57V135.11H21.4L23.6,137v3l-1.25,1Zm-4.1-5.42H14.24v3h5.63l1.05-.9V137.9Zm1.43,7.67v-1.62l-1.05-.9h-6.3v3.16h6.59Z"/><path class="cls-1" d="M26.3,147.74v-2.16H29v-8.31H26.3v-2.16h8v2.16H31.65v8.31h2.67v2.16Z"/><path class="cls-1" d="M39.7,147.74H37V135.11H39.7v5.23H42l4.1-5.23h3.25l-4.87,6.13,5.25,6.5H46.47l-4.19-5.23H39.7Z"/><path class="cls-1" d="M55.06,147.74V137.27h-5v-2.16H62.7v2.16h-5v10.47Z"/><path class="cls-1" d="M74.45,134.93l2.67,2.34v8.31l-2.67,2.34H66.72l-2.67-2.34v-8.31l2.67-2.34Zm-7.73,3.25v6.49L68,145.76h5.25l1.24-1.09v-6.49l-1.24-1.09H68Z"/><path class="cls-1" d="M82.79,144v3.79H80.11V135.11H90l2.48,2.16v4.52L90,144Zm5.91-6.68H82.79v4.52H88.7l1-.91v-2.7Z"/><path class="cls-1" d="M104.85,139.08l-7.45,8.66H94.92V135.11h2.67v8.66l7.45-8.66h2.48v12.63h-2.67Z"/><path class="cls-1" d="M113.47,147.74H110.8V135.11h2.67v5.23h7.06v-5.23h2.68v12.63h-2.68v-5.23h-7.06Z"/><path class="cls-1" d="M136.41,139.08,129,147.74h-2.49V135.11h2.68v8.66l7.44-8.66h2.48v12.63h-2.67Z"/><path class="cls-1" d="M145.5,48.71a3,3,0,0,0-3.56,2c-.95,2.52-4.54,4-7.13,4.37-3.9.51-7.71-1.2-11.16-2.8-4.09-1.9-8.31-3.71-12.91-3.67a23.57,23.57,0,0,0-12.91,4.49c-4.25,2.92-7.66,6.74-11,10.63a3,3,0,0,0,0,4.09,2.92,2.92,0,0,0,4.09,0c5.36-6.24,12.42-14.47,21.62-13.34,4.35.54,8.24,3,12.23,4.58a20.59,20.59,0,0,0,12.94,1.31c4.31-1.13,8.19-3.87,9.8-8.12A2.92,2.92,0,0,0,145.5,48.71Z"/><path class="cls-1" d="M82.86,21.2a22.34,22.34,0,0,0,2.7,9.1c2.15,3.87,6.24,7.07,10.76,4.91,3.65-1.74,5.26-6.23,4.79-10a13.25,13.25,0,0,0-5.9-9.45,12.32,12.32,0,0,0-5.79-2A16.36,16.36,0,0,1,95,5.43a3,3,0,0,0,1-4c-.71-1.22-2.71-2-4-1a23.64,23.64,0,0,0-8.81,14.23,17.36,17.36,0,0,0-9.08,7.6c-5.2,9.26-1.91,20.09,3.32,28.52,2,3.15,7,.25,5-2.93-3.41-5.49-6.29-12.08-4.8-18.67A13.19,13.19,0,0,1,82.86,21.2Zm11.81,8c-1.58,2.25-3.23-.2-4.11-1.78a16.19,16.19,0,0,1-2-7.06c0-.25,0-.51,0-.76l.43,0C93.25,19.94,97.37,25.31,94.67,29.16Z"/><path class="cls-1" d="M2.9,124.25a3,3,0,0,0,1.29-.3L81,85.61A2.89,2.89,0,0,0,81.71,81L43.27,42.54a2.89,2.89,0,0,0-4.63.75l-3.46,6.92h0L.3,120.06a2.91,2.91,0,0,0,.55,3.34A2.86,2.86,0,0,0,2.9,124.25ZM42,49.47,74.78,82.23,57.13,91,52.2,79a2.9,2.9,0,0,0-5.36,2.2l5.09,12.41L31.39,103.89l-5.56-22L37.51,58.5l3.22,7.83a2.9,2.9,0,0,0,2.68,1.8,2.84,2.84,0,0,0,1.1-.22,2.89,2.89,0,0,0,1.58-3.77L41,51.62ZM21.87,89.84l4.22,16.7L9.36,114.89Z"/><path class="cls-1" d="M135.44,24.62a11.72,11.72,0,1,0-11.72,11.72A11.73,11.73,0,0,0,135.44,24.62Zm-17.64,0a5.93,5.93,0,1,1,5.92,5.93A5.93,5.93,0,0,1,117.8,24.62Z"/><path class="cls-1" d="M122.8,76.13a2.92,2.92,0,0,0-.85-2L110.31,62.44a2.9,2.9,0,0,0-4.1,0L94.57,74.08a2.9,2.9,0,0,0,0,4.1l11.64,11.64a2.9,2.9,0,0,0,4.1,0L122,78.18A2.91,2.91,0,0,0,122.8,76.13Zm-14.54,7.55-7.54-7.55,7.54-7.55,7.55,7.55Z"/><path class="cls-1" d="M46.22,75.65c3.72,0,3.73-5.79,0-5.79S42.49,75.65,46.22,75.65Z"/></g></g></svg>