<svg xmlns="http://www.w3.org/2000/svg" viewBox="0 0 95.45 14.17"><defs><style>.cls-1{fill:#44d62c;}</style></defs><title>Ресурс 55</title><g id="Слой_2" data-name="Слой 2"><g id="prize"><polygon class="cls-1" points="49.38 12.62 42.3 12.62 48.5 1.55 49.38 0 47.61 0 39.42 0 39.42 1.55 46.73 1.55 40.3 12.62 39.42 14.17 41.19 14.17 48.5 14.17 49.38 12.62"/><polygon class="cls-1" points="69.09 0 59.13 0 59.13 1.55 68.21 1.55 69.09 0"/><polygon class="cls-1" points="69.09 6.2 59.13 6.2 59.13 7.75 68.21 7.75 69.09 6.2"/><polygon class="cls-1" points="69.09 12.62 59.13 12.62 59.13 14.17 68.21 14.17 69.09 12.62"/><path class="cls-1" d="M88.8,4.43V3.54A3.5,3.5,0,0,0,85.26,0H78.84V14h1.55V7.75h2.88L86.81,14h1.77L85,7.75h.22A3.45,3.45,0,0,0,88.8,4.43ZM80.39,1.55h4.87a2,2,0,0,1,2,2v.89a2,2,0,0,1-2,2H80.39Z"/><path class="cls-1" d="M10,4.43V3.54A3.5,3.5,0,0,0,6.42,0H0V14H1.55V7.75H4.43L8,14H9.74L6.42,7.75h.22A3.41,3.41,0,0,0,10,4.43ZM1.55,1.55H6.42a2,2,0,0,1,2,2v.89a2,2,0,0,1-2,2H1.55Z"/><polygon class="cls-1" points="20.59 14.17 24.8 4.21 28.79 14.17 30.34 14.17 25.47 1.99 24.8 0 23.92 1.99 19.05 14.17 20.59 14.17"/><polygon class="cls-1" points="89.69 0.66 89.69 0.22 91.9 0.22 91.9 0.66 91.02 0.66 91.02 3.1 90.58 3.1 90.58 0.66 89.69 0.66"/><polygon class="cls-1" points="92.57 3.1 92.57 0.22 93.23 0.22 94.12 2.66 94.78 0.22 95.45 0.22 95.45 3.1 95.23 3.1 95.23 0.66 95 0.66 94.12 3.1 93.9 3.1 93.01 0.66 93.01 0.66 93.01 3.1 92.57 3.1"/></g></g></svg>