<svg xmlns="http://www.w3.org/2000/svg" viewBox="0 0 200.18 297.34"><defs><style>.cls-1{fill:#fff;}</style></defs><title>Ресурс 14</title><g id="Слой_2" data-name="Слой 2"><g id="fun"><path class="cls-1" d="M198.51,177.59c0-.32-.06-.64-.08-1a2.15,2.15,0,0,0,.08-.84c-.14-1.25-.32-2.49-.5-3.73-.15-1.41-.3-2.82-.46-4.22a.43.43,0,0,0,0-.11,246.2,246.2,0,0,0-10.84-48.56l-.06-.25c-.06-.18-.13-.36-.2-.53A252.3,252.3,0,0,0,162.51,67.1l0-.07c-.83-1.36-1.66-2.68-2.47-4C139.42,30.91,117.26,11.46,102.29.8a4.31,4.31,0,0,0-5,0c-15,10.66-37.13,30.11-57.7,62.28C38.77,64.35,38,65.67,37.12,67a.41.41,0,0,0,0,.09,251.65,251.65,0,0,0-23.92,51.28c-.07.17-.14.35-.2.53a2,2,0,0,0,0,.24A245.48,245.48,0,0,0,2.05,167.72s0,.08,0,.12c-.16,1.4-.31,2.81-.46,4.22-.18,1.24-.35,2.48-.5,3.73a2,2,0,0,0,.09.84l-.09,1a4.36,4.36,0,0,0,.35,2.07c-.27.18-.41.38-.35.59A23.13,23.13,0,0,0,2,183l0,0c2.11,5,6,9.66,10.85,13.78a.18.18,0,0,0,0,.07l.2.15c7,5.91,15.81,10.8,23.92,14.56l0,0c.83.39,1.65.76,2.47,1.12,20.57,9.13,32.83,15.6,47.8,18.63a14,14,0,0,0,5,0c15-3,47-9.5,67.61-18.63.81-.36,1.64-.73,2.47-1.12l0,0c8.1-3.75,16.94-8.65,23.92-14.56l.2-.15.06-.07c4.82-4.13,8.73-8.73,10.84-13.78,0,0,0,0,0,0a23.13,23.13,0,0,0,1-2.76c.06-.21-.07-.41-.35-.59A4.22,4.22,0,0,0,198.51,177.59Zm-125-122.4c5.4-4.37,14.64-14.31,19.25-19.5,6-6.75,13.25,0,22.25,3,7.26,2.42,9.93,14.87,13.75,21.5,6.22,10.8,20.67,17.18,26.56,30.42-10.33-9.75-22.44-13.08-31.06-26-3.58-5.38-8.57-14.09-14.5-16.66s-16.78-2.81-22,1c-1.11.79-11.4,8.15-20.75,16.5C61.55,70.29,57.46,77,53,79c-5.56,2.47-8.5,12.88-10.56,10.47C42.72,80.19,70.86,57.3,73.47,55.19ZM189.91,180.06c-.15.54-.33,1.08-.52,1.61l-1,2.45c-3.37,15.14-69.14,40.07-96.44,40.07S24,203.75,11.23,184.12l-1-2.45c-.19-.53-.37-1.07-.52-1.61a.75.75,0,0,0-.36-.4,4.31,4.31,0,0,0,.36-1.4c.15-1.92.33-3.81.52-5.7l.06-.5,1-5.47C24,120,72.89,65.94,100.19,65.94S185,130.62,188.35,166.59l1,5.47.06.5c.19,1.89.37,3.78.52,5.7a4.32,4.32,0,0,0,.37,1.4A.77.77,0,0,0,189.91,180.06Z"/><polygon class="cls-1" points="61.73 103.7 38.04 137.38 115.32 137.38 121.27 143.33 121.27 150.26 115.32 156.21 79.65 156.21 69.74 165.13 69.74 210.71 88.08 216.05 109.38 211.67 109.38 187.91 129.27 187.91 164.48 162.16 164.48 127.48 138.11 103.7 61.73 103.7"/><polygon class="cls-1" points="69.27 237.94 69.27 263.47 108.9 263.47 108.9 237.94 89.51 242.72 69.27 237.94"/><path class="cls-1" d="M11.64,297.34h-9L0,295v-7.95l2.67-2.34h9v2.16H3.91L2.67,288v6.13l1.24,1.09h7.73Z"/><path class="cls-1" d="M25.59,284.71v2.16H16.81v3.07h6.68v2.17H16.81v3.07h9v2.16H14.14V284.71Z"/><path class="cls-1" d="M30.76,297.34H28.09V284.71h2.67v5.23h2.29l4.11-5.23H40.4l-4.87,6.14,5.25,6.49H37.54l-4.2-5.23H30.76Z"/><path class="cls-1" d="M45.09,293.55v3.79H42.42V284.71h9.83l2.48,2.16v4.52l-2.48,2.16ZM51,286.87H45.09v4.52H51l1.05-.91v-2.7Z"/><path class="cls-1" d="M68.68,284.71v2.16H59.9v3.07h6.68v2.17H59.9v3.07h9v2.16H57.23V284.71Z"/><path class="cls-1" d="M74.88,297.34V286.87h-5v-2.16h12.6v2.16h-5v10.47Z"/><path class="cls-1" d="M87.21,297.34H84.54V284.71h2.67v5.23h7.06v-5.23h2.67v12.63H94.27v-5.23H87.21Z"/><path class="cls-1" d="M110.15,288.68l-7.45,8.66h-2.48V284.71h2.67v8.66l7.45-8.66h2.48v12.63h-2.67Z"/><path class="cls-1" d="M126,288.68l-7.44,8.66H116.1V284.71h2.67v8.66l7.45-8.66h2.48v12.63H126Zm0-8.58v1.45l-1.81,1.53h-3.63l-1.81-1.53V280.1h2.1v.64l.76.63h1.53l.76-.63v-.64Z"/><path class="cls-1" d="M138.08,297.34V284.71h10.79v2.16h-8.12v10.47Z"/><path class="cls-1" d="M150.12,297.34v-2.16h2.67v-8.31h-2.67v-2.16h8v2.16h-2.67v8.31h2.67v2.16Z"/><path class="cls-1" d="M172.21,297.34h-9L160.56,295v-7.95l2.67-2.34h9v2.16h-7.74L163.23,288v6.13l1.24,1.09h7.74Z"/><path class="cls-1" d="M178.4,297.34V286.87h-5v-2.16H186v2.16h-5v10.47Z"/><path class="cls-1" d="M197.7,289l2.48,2.17v4l-2.48,2.16h-9.64V284.71h2.67V289Zm-.19,5.24v-2.17l-1-.9h-5.73v4h5.73Z"/></g></g></svg>