<svg xmlns="http://www.w3.org/2000/svg" viewBox="0 0 120.96 92.04"><defs><style>.cls-1{fill:none;}.cls-1,.cls-3{stroke:#fff;stroke-miterlimit:10;}.cls-2{fill:#fff;}</style></defs><title>Ресурс 32</title><g id="Слой_2" data-name="Слой 2"><g id="hardware02"><polyline class="cls-1" points="87.83 26.84 120.25 59.26 87.83 91.69"/><path class="cls-2" d="M6.75,0H34l6.9,6.3v9.6l-4.2,3.9,5.4,5.1V35.7L35.24,42H6.15V37.2H32.84l3.6-3.3V26.7l-4.2-3.9H15.75V18H31l4.2-3.9v-6l-3.6-3.3H6.75Z"/><path class="cls-2" d="M49.84,49H46.35L61.73,24.5h3.5Z"/><path class="cls-2" d="M67,24.5H82.9l4,3.67v5.59L84.47,36l3.15,3v6.3l-4,3.67h-17v-2.8H82.2l2.09-1.92v-4.2l-2.44-2.27H72.23V35h8.92l2.44-2.27v-3.5L81.5,27.29H67Z"/><line class="cls-3" x1="96.25" y1="58.76" y2="58.76"/></g></g></svg>