<svg xmlns="http://www.w3.org/2000/svg" viewBox="0 0 120.96 92.04"><defs><style>.cls-1{fill:none;}.cls-1,.cls-3{stroke:#fff;stroke-miterlimit:10;}.cls-2{fill:#fff;}</style></defs><title>Ресурс 25</title><g id="Слой_2" data-name="Слой 2"><g id="hardware01"><polyline class="cls-1" points="87.83 26.84 120.25 59.26 87.83 91.69"/><path class="cls-2" d="M15.3,19.2H31.8l5.09-4.8V8.1L33.3,4.8H8.4V0H35.7l6.89,6.3v9.9L34.2,24H17.7l-5.1,5.1v8.1H41.69V42H6.9V27Z"/><path class="cls-2" d="M49.69,49H46.2L61.58,24.5h3.5Z"/><path class="cls-2" d="M66.83,24.5H82.75l4,3.67v5.59L84.32,36l3.15,3v6.3l-4,3.67h-17v-2.8H82.05l2.09-1.92v-4.2L81.7,37.79H72.08V35H81l2.45-2.27v-3.5l-2.1-1.93H66.83Z"/><line class="cls-3" x1="96.25" y1="58.76" y2="58.76"/></g></g></svg>