<svg xmlns="http://www.w3.org/2000/svg" viewBox="0 0 120.96 92.04"><defs><style>.cls-1{fill:none;}.cls-1,.cls-3{stroke:#fff;stroke-miterlimit:10;}.cls-2{fill:#fff;}</style></defs><title>Ресурс 44</title><g id="Слой_2" data-name="Слой 2"><g id="hardaware03"><polyline class="cls-1" points="33.13 26.84 0.71 59.26 33.13 91.69"/><path class="cls-2" d="M44,19.2H60.5l5.1-4.8V8.1L62,4.8H37.1V0H64.4l6.9,6.3v9.9L62.9,24H46.4l-5.1,5.1v8.1H70.4V42H35.6V27Z"/><path class="cls-2" d="M78.4,49H74.9L90.29,24.5h3.5Z"/><path class="cls-2" d="M95.54,24.5h15.91l4,3.67v5.59L113,36l3.14,3v6.3l-4,3.67h-17v-2.8h15.56l2.1-1.92v-4.2l-2.45-2.27h-9.61V35h8.91l2.45-2.27v-3.5l-2.1-1.93H95.54Z"/><line class="cls-3" x1="24.71" y1="58.76" x2="120.96" y2="58.76"/></g></g></svg>