<svg xmlns="http://www.w3.org/2000/svg" viewBox="0 0 147.96 116.99"><defs><style>.cls-1{fill:#fff;}</style></defs><title>Ресурс 13</title><g id="Слой_2" data-name="Слой 2"><g id="fun"><path class="cls-1" d="M33.66,111.76v3.16l-2.19,1.89H21V104.18H30.8L33,106.07v3l-1.24,1Zm-4.1-5.42H23.64v3h5.63l1.05-.9V107ZM31,114v-1.63l-1-.9h-6.3v3.16h6.58Z"/><path class="cls-1" d="M35.7,116.81v-2.16h2.67v-8.31H35.7v-2.16h8v2.16H41v8.31h2.68v2.16Z"/><path class="cls-1" d="M55.57,113.47h-6.3l-1.53,3.34h-3l5.92-12.63h3.43l5.92,12.63h-3Zm-5.25-2.16h4.2l-2.1-4.61Z"/><path class="cls-1" d="M64.36,113v3.79H61.69V104.18h9.83L74,106.34v4.52L71.52,113Zm5.92-6.68H64.36v4.52h5.92l1-.91v-2.7Z"/><path class="cls-1" d="M93.18,111.67v3.25L91,116.81H81.15v-2.16h8.59l.77-.63V112.3l-1.05-.9H84v-2.17h5.25l1-.9V107l-.77-.64H81.34v-2.16h9.45l2.2,1.89V109l-1.53,1.26Z"/><path class="cls-1" d="M106,104l2.67,2.34v8.31L106,117H98.27l-2.67-2.34v-8.31L98.27,104Zm-7.73,3.25v6.49l1.24,1.09h5.25l1.24-1.09v-6.49l-1.24-1.09H99.51Z"/><path class="cls-1" d="M114.34,116.81h-2.67V104.18h2.67v5.23h7.06v-5.23h2.67v12.63H121.4v-5.23h-7.06Z"/><path class="cls-1" d="M136.5,113.47h-6.3l-1.53,3.34h-3l5.92-12.63h3.43L141,116.81h-3Zm-5.25-2.16h4.2l-2.1-4.61Z"/><path class="cls-1" d="M137.63,0H10.32L0,20.65V95.36H43.27A21.49,21.49,0,0,0,58.59,89l6.19-6.19a13,13,0,0,1,18.39,0L89.36,89a21.53,21.53,0,0,0,15.33,6.35H148V20.65Zm-5.36,8.67,4.34,8.67H11.35l4.33-8.67Zm-27.58,78a12.93,12.93,0,0,1-9.2-3.81L89.3,76.69a21.69,21.69,0,0,0-30.65,0l-6.19,6.19a12.89,12.89,0,0,1-9.19,3.81H8.67V26H139.29V86.69Z"/><path class="cls-1" d="M55.28,56.7,23.82,43.78V35.07L63.15,51.64V61.76L23.82,78.33V69.62Z"/><path class="cls-1" d="M114.8,63.44H102.72V76.37H94.85V37h28.38l7.3,6.75V56.7l-6.74,6.46,9.55,13.21h-9.27Zm7.87-16.85-3.09-2.81H102.72V56.7h16.86l3.09-2.81Z"/></g></g></svg>